  0
SECTION
  2
HEADER
  9
$ACADVER
  1
AC1018
  9
$ACADMAINTVER
 70
     0
  9
$DWGCODEPAGE
  3
ANSI_1252
  9
$INSBASE
 10
0.0
 20
0.0
 30
0.0
  9
$EXTMIN
 10
1.000000000000000E+20
 20
1.000000000000000E+20
 30
1.000000000000000E+20
  9
$EXTMAX
 10
-1.000000000000000E+20
 20
-1.000000000000000E+20
 30
-1.000000000000000E+20
  9
$LIMMIN
 10
0.0
 20
0.0
  9
$LIMMAX
 10
12.0
 20
9.0
  9
$ORTHOMODE
 70
     0
  9
$REGENMODE
 70
     1
  9
$FILLMODE
 70
     1
  9
$QTEXTMODE
 70
     0
  9
$MIRRTEXT
 70
     1
  9
$LTSCALE
 40
1.0
  9
$ATTMODE
 70
     1
  9
$TEXTSIZE
 40
0.2
  9
$TRACEWID
 40
0.05
  9
$TEXTSTYLE
  7
Standard
  9
$CLAYER
  8
0
  9
$CELTYPE
  6
ByLayer
  9
$CECOLOR
 62
   256
  9
$CELTSCALE
 40
1.0
  9
$DISPSILH
 70
     0
  9
$DIMSCALE
 40
1.0
  9
$DIMASZ
 40
0.18
  9
$DIMEXO
 40
0.0625
  9
$DIMDLI
 40
0.38
  9
$DIMRND
 40
0.0
  9
$DIMDLE
 40
0.0
  9
$DIMEXE
 40
0.18
  9
$DIMTP
 40
0.0
  9
$DIMTM
 40
0.0
  9
$DIMTXT
 40
0.18
  9
$DIMCEN
 40
0.09
  9
$DIMTSZ
 40
0.0
  9
$DIMTOL
 70
     0
  9
$DIMLIM
 70
     0
  9
$DIMTIH
 70
     1
  9
$DIMTOH
 70
     1
  9
$DIMSE1
 70
     0
  9
$DIMSE2
 70
     0
  9
$DIMTAD
 70
     0
  9
$DIMZIN
 70
     0
  9
$DIMBLK
  1

  9
$DIMASO
 70
     1
  9
$DIMSHO
 70
     1
  9
$DIMPOST
  1

  9
$DIMAPOST
  1

  9
$DIMALT
 70
     0
  9
$DIMALTD
 70
     2
  9
$DIMALTF
 40
25.4
  9
$DIMLFAC
 40
1.0
  9
$DIMTOFL
 70
     0
  9
$DIMTVP
 40
0.0
  9
$DIMTIX
 70
     0
  9
$DIMSOXD
 70
     0
  9
$DIMSAH
 70
     0
  9
$DIMBLK1
  1

  9
$DIMBLK2
  1

  9
$DIMSTYLE
  2
Standard
  9
$DIMCLRD
 70
     0
  9
$DIMCLRE
 70
     0
  9
$DIMCLRT
 70
     0
  9
$DIMTFAC
 40
1.0
  9
$DIMGAP
 40
0.09
  9
$DIMJUST
 70
     0
  9
$DIMSD1
 70
     0
  9
$DIMSD2
 70
     0
  9
$DIMTOLJ
 70
     1
  9
$DIMTZIN
 70
     0
  9
$DIMALTZ
 70
     0
  9
$DIMALTTZ
 70
     0
  9
$DIMUPT
 70
     0
  9
$DIMDEC
 70
     4
  9
$DIMTDEC
 70
     4
  9
$DIMALTU
 70
     2
  9
$DIMALTTD
 70
     2
  9
$DIMTXSTY
  7
Standard
  9
$DIMAUNIT
 70
     0
  9
$DIMADEC
 70
     0
  9
$DIMALTRND
 40
0.0
  9
$DIMAZIN
 70
     0
  9
$DIMDSEP
 70
    46
  9
$DIMATFIT
 70
     3
  9
$DIMFRAC
 70
     0
  9
$DIMLDRBLK
  1

  9
$DIMLUNIT
 70
     2
  9
$DIMLWD
 70
    -2
  9
$DIMLWE
 70
    -2
  9
$DIMTMOVE
 70
     0
  9
$LUNITS
 70
     2
  9
$LUPREC
 70
     4
  9
$SKETCHINC
 40
0.1
  9
$FILLETRAD
 40
0.5
  9
$AUNITS
 70
     0
  9
$AUPREC
 70
     0
  9
$MENU
  1
.
  9
$ELEVATION
 40
0.0
  9
$PELEVATION
 40
0.0
  9
$THICKNESS
 40
0.0
  9
$LIMCHECK
 70
     0
  9
$CHAMFERA
 40
0.5
  9
$CHAMFERB
 40
0.5
  9
$CHAMFERC
 40
1.0
  9
$CHAMFERD
 40
0.0
  9
$SKPOLY
 70
     0
  9
$TDCREATE
 40
2456148.560649259
  9
$TDUCREATE
 40
2456148.768982593
  9
$TDUPDATE
 40
2456148.560649271
  9
$TDUUPDATE
 40
2456148.768982604
  9
$TDINDWG
 40
0.0000000116
  9
$TDUSRTIMER
 40
0.0000000116
  9
$USRTIMER
 70
     1
  9
$ANGBASE
 50
0.0
  9
$ANGDIR
 70
     0
  9
$PDMODE
 70
     0
  9
$PDSIZE
 40
0.0
  9
$PLINEWID
 40
0.0
  9
$SPLFRAME
 70
     0
  9
$SPLINETYPE
 70
     6
  9
$SPLINESEGS
 70
     8
  9
$HANDSEED
  5
3BD
  9
$SURFTAB1
 70
     6
  9
$SURFTAB2
 70
     6
  9
$SURFTYPE
 70
     6
  9
$SURFU
 70
     6
  9
$SURFV
 70
     6
  9
$UCSBASE
  2

  9
$UCSNAME
  2

  9
$UCSORG
 10
0.0
 20
0.0
 30
0.0
  9
$UCSXDIR
 10
1.0
 20
0.0
 30
0.0
  9
$UCSYDIR
 10
0.0
 20
1.0
 30
0.0
  9
$UCSORTHOREF
  2

  9
$UCSORTHOVIEW
 70
     0
  9
$UCSORGTOP
 10
0.0
 20
0.0
 30
0.0
  9
$UCSORGBOTTOM
 10
0.0
 20
0.0
 30
0.0
  9
$UCSORGLEFT
 10
0.0
 20
0.0
 30
0.0
  9
$UCSORGRIGHT
 10
0.0
 20
0.0
 30
0.0
  9
$UCSORGFRONT
 10
0.0
 20
0.0
 30
0.0
  9
$UCSORGBACK
 10
0.0
 20
0.0
 30
0.0
  9
$PUCSBASE
  2

  9
$PUCSNAME
  2

  9
$PUCSORG
 10
0.0
 20
0.0
 30
0.0
  9
$PUCSXDIR
 10
1.0
 20
0.0
 30
0.0
  9
$PUCSYDIR
 10
0.0
 20
1.0
 30
0.0
  9
$PUCSORTHOREF
  2

  9
$PUCSORTHOVIEW
 70
     0
  9
$PUCSORGTOP
 10
0.0
 20
0.0
 30
0.0
  9
$PUCSORGBOTTOM
 10
0.0
 20
0.0
 30
0.0
  9
$PUCSORGLEFT
 10
0.0
 20
0.0
 30
0.0
  9
$PUCSORGRIGHT
 10
0.0
 20
0.0
 30
0.0
  9
$PUCSORGFRONT
 10
0.0
 20
0.0
 30
0.0
  9
$PUCSORGBACK
 10
0.0
 20
0.0
 30
0.0
  9
$USERI1
 70
     0
  9
$USERI2
 70
     0
  9
$USERI3
 70
     0
  9
$USERI4
 70
     0
  9
$USERI5
 70
     0
  9
$USERR1
 40
0.0
  9
$USERR2
 40
0.0
  9
$USERR3
 40
0.0
  9
$USERR4
 40
0.0
  9
$USERR5
 40
0.0
  9
$WORLDVIEW
 70
     1
  9
$SHADEDGE
 70
     3
  9
$SHADEDIF
 70
    70
  9
$TILEMODE
 70
     1
  9
$MAXACTVP
 70
    64
  9
$PINSBASE
 10
0.0
 20
0.0
 30
0.0
  9
$PLIMCHECK
 70
     0
  9
$PEXTMIN
 10
1.000000000000000E+20
 20
1.000000000000000E+20
 30
1.000000000000000E+20
  9
$PEXTMAX
 10
-1.000000000000000E+20
 20
-1.000000000000000E+20
 30
-1.000000000000000E+20
  9
$PLIMMIN
 10
0.0
 20
0.0
  9
$PLIMMAX
 10
12.0
 20
9.0
  9
$UNITMODE
 70
     0
  9
$VISRETAIN
 70
     1
  9
$PLINEGEN
 70
     0
  9
$PSLTSCALE
 70
     1
  9
$TREEDEPTH
 70
  3020
  9
$CMLSTYLE
  2
Standard
  9
$CMLJUST
 70
     0
  9
$CMLSCALE
 40
1.0
  9
$PROXYGRAPHICS
 70
     1
  9
$MEASUREMENT
 70
     0
  9
$CELWEIGHT
370
    -1
  9
$ENDCAPS
280
     0
  9
$JOINSTYLE
280
     0
  9
$LWDISPLAY
290
     1
  9
$INSUNITS
 70
     1
  9
$HYPERLINKBASE
  1

  9
$STYLESHEET
  1

  9
$XEDIT
290
     1
  9
$CEPSNTYPE
380
     0
  9
$PSTYLEMODE
290
     1
  9
$FINGERPRINTGUID
  2
{0F2E1617-043D-4B88-81B8-9847B5332447}
  9
$VERSIONGUID
  2
{FAEB1C32-E019-11D5-929B-00C0DF256EC4}
  9
$EXTNAMES
290
     1
  9
$PSVPSCALE
 40
0.0
  9
$OLESTARTUP
290
     0
  9
$SORTENTS
280
   127
  9
$INDEXCTL
280
     0
  9
$HIDETEXT
280
     1
  9
$XCLIPFRAME
290
     0
  9
$HALOGAP
280
     0
  9
$OBSCOLOR
 70
   257
  9
$OBSLTYPE
280
     0
  9
$INTERSECTIONDISPLAY
280
     0
  9
$INTERSECTIONCOLOR
 70
   257
  9
$DIMASSOC
280
     2
  9
$PROJECTNAME
  1

  0
ENDSEC
  0
SECTION
  2
CLASSES
  0
CLASS
  1
ACDBDICTIONARYWDFLT
  2
AcDbDictionaryWithDefault
  3
ObjectDBX Classes
 90
        0
 91
        3
280
     0
281
     0
  0
CLASS
  1
VISUALSTYLE
  2
AcDbVisualStyle
  3
ObjectDBX Classes
 90
     4095
 91
        3
280
     0
281
     0
  0
ENDSEC
  0
SECTION
  2
TABLES
  0
TABLE
  2
VPORT
  5
8
330
0
100
AcDbSymbolTable
 70
     1
  0
VPORT
  5
29
330
8
100
AcDbSymbolTableRecord
100
AcDbViewportTableRecord
  2
*Active
 70
     0
 10
0.0
 20
0.0
 11
1.0
 21
1.0
 12
0.0
 22
0.0
 13
0.0
 23
0.0
 14
0.5
 24
0.5
 15
0.5
 25
0.5
 16
0.0
 26
0.0
 36
1.0
 17
50.00011625137875
 27
-45.00000471840589
 37
0.0
 40
90.00000943681178
 41
1.111113577970976
 42
50.0
 43
0.0
 44
0.0
 50
0.0
 51
0.0
 71
     0
 72
   100
 73
     1
 74
     3
 75
     0
 76
     0
 77
     0
 78
     0
281
     0
 65
     1
110
0.0
120
0.0
130
0.0
111
1.0
121
0.0
131
0.0
112
0.0
122
1.0
132
0.0
 79
     0
146
0.0
  0
ENDTAB
  0
TABLE
  2
LTYPE
  5
5
330
0
100
AcDbSymbolTable
 70
     1
  0
LTYPE
  5
14
330
5
100
AcDbSymbolTableRecord
100
AcDbLinetypeTableRecord
  2
ByBlock
 70
     0
  3

 72
    65
 73
     0
 40
0.0
  0
LTYPE
  5
15
330
5
100
AcDbSymbolTableRecord
100
AcDbLinetypeTableRecord
  2
ByLayer
 70
     0
  3

 72
    65
 73
     0
 40
0.0
  0
LTYPE
  5
16
330
5
100
AcDbSymbolTableRecord
100
AcDbLinetypeTableRecord
  2
Continuous
 70
     0
  3
Solid line
 72
    65
 73
     0
 40
0.0
  0
ENDTAB
  0
TABLE
  2
LAYER
  5
2
330
0
100
AcDbSymbolTable
 70
     2
  0
LAYER
  5
10
330
2
100
AcDbSymbolTableRecord
100
AcDbLayerTableRecord
  2
0
 70
     0
 62
     7
  6
Continuous
370
    -3
390
F
  0
LAYER
  5
3B
330
2
100
AcDbSymbolTableRecord
100
AcDbLayerTableRecord
  2
Layer 1
 70
     0
 62
     7
  6
Continuous
370
    -3
390
F
  0
ENDTAB
  0
TABLE
  2
STYLE
  5
3
330
0
100
AcDbSymbolTable
 70
     1
  0
STYLE
  5
11
330
3
100
AcDbSymbolTableRecord
100
AcDbTextStyleTableRecord
  2
Standard
 70
     0
 40
0.0
 41
1.0
 50
0.0
 71
     0
 42
0.2
  3
txt
  4

  0
ENDTAB
  0
TABLE
  2
VIEW
  5
6
330
0
100
AcDbSymbolTable
 70
     0
  0
ENDTAB
  0
TABLE
  2
UCS
  5
7
330
0
100
AcDbSymbolTable
 70
     0
  0
ENDTAB
  0
TABLE
  2
APPID
  5
9
330
0
100
AcDbSymbolTable
 70
     1
  0
APPID
  5
12
330
9
100
AcDbSymbolTableRecord
100
AcDbRegAppTableRecord
  2
ACAD
 70
     0
  0
ENDTAB
  0
TABLE
  2
DIMSTYLE
  5
A
330
0
100
AcDbSymbolTable
 70
     1
100
AcDbDimStyleTable
  0
DIMSTYLE
105
27
330
A
100
AcDbSymbolTableRecord
100
AcDbDimStyleTableRecord
  2
Standard
 70
     0
340
11
  0
ENDTAB
  0
TABLE
  2
BLOCK_RECORD
  5
1
330
0
100
AcDbSymbolTable
 70
    75
  0
BLOCK_RECORD
  5
1F
330
1
100
AcDbSymbolTableRecord
100
AcDbBlockTableRecord
  2
*Model_Space
340
22
  0
BLOCK_RECORD
  5
1B
330
1
100
AcDbSymbolTableRecord
100
AcDbBlockTableRecord
  2
*Paper_Space
340
1E
  0
BLOCK_RECORD
  5
23
330
1
100
AcDbSymbolTableRecord
100
AcDbBlockTableRecord
  2
*Paper_Space0
340
26
  0
BLOCK_RECORD
  5
3C
330
1
100
AcDbSymbolTableRecord
100
AcDbBlockTableRecord
  2
block 2
340
0
102
{BLKREFS
331
3D
102
}
  0
BLOCK_RECORD
  5
49
330
1
100
AcDbSymbolTableRecord
100
AcDbBlockTableRecord
  2
block 3
340
0
102
{BLKREFS
331
4A
102
}
  0
BLOCK_RECORD
  5
56
330
1
100
AcDbSymbolTableRecord
100
AcDbBlockTableRecord
  2
block 4
340
0
102
{BLKREFS
331
57
102
}
  0
BLOCK_RECORD
  5
63
330
1
100
AcDbSymbolTableRecord
100
AcDbBlockTableRecord
  2
block 5
340
0
102
{BLKREFS
331
64
102
}
  0
BLOCK_RECORD
  5
70
330
1
100
AcDbSymbolTableRecord
100
AcDbBlockTableRecord
  2
block 6
340
0
102
{BLKREFS
331
71
102
}
  0
BLOCK_RECORD
  5
74
330
1
100
AcDbSymbolTableRecord
100
AcDbBlockTableRecord
  2
block 7
340
0
102
{BLKREFS
331
75
102
}
  0
BLOCK_RECORD
  5
81
330
1
100
AcDbSymbolTableRecord
100
AcDbBlockTableRecord
  2
block 8
340
0
102
{BLKREFS
331
82
102
}
  0
BLOCK_RECORD
  5
8E
330
1
100
AcDbSymbolTableRecord
100
AcDbBlockTableRecord
  2
block 9
340
0
102
{BLKREFS
331
8F
102
}
  0
BLOCK_RECORD
  5
9B
330
1
100
AcDbSymbolTableRecord
100
AcDbBlockTableRecord
  2
block 10
340
0
102
{BLKREFS
331
9C
102
}
  0
BLOCK_RECORD
  5
A8
330
1
100
AcDbSymbolTableRecord
100
AcDbBlockTableRecord
  2
block 11
340
0
102
{BLKREFS
331
A9
102
}
  0
BLOCK_RECORD
  5
B5
330
1
100
AcDbSymbolTableRecord
100
AcDbBlockTableRecord
  2
block 12
340
0
102
{BLKREFS
331
B6
102
}
  0
BLOCK_RECORD
  5
C2
330
1
100
AcDbSymbolTableRecord
100
AcDbBlockTableRecord
  2
block 13
340
0
102
{BLKREFS
331
C3
102
}
  0
BLOCK_RECORD
  5
CF
330
1
100
AcDbSymbolTableRecord
100
AcDbBlockTableRecord
  2
block 14
340
0
102
{BLKREFS
331
D0
102
}
  0
BLOCK_RECORD
  5
DC
330
1
100
AcDbSymbolTableRecord
100
AcDbBlockTableRecord
  2
block 15
340
0
102
{BLKREFS
331
DD
102
}
  0
BLOCK_RECORD
  5
E9
330
1
100
AcDbSymbolTableRecord
100
AcDbBlockTableRecord
  2
block 16
340
0
102
{BLKREFS
331
EA
102
}
  0
BLOCK_RECORD
  5
F6
330
1
100
AcDbSymbolTableRecord
100
AcDbBlockTableRecord
  2
block 17
340
0
102
{BLKREFS
331
F7
102
}
  0
BLOCK_RECORD
  5
103
330
1
100
AcDbSymbolTableRecord
100
AcDbBlockTableRecord
  2
block 18
340
0
102
{BLKREFS
331
104
102
}
  0
BLOCK_RECORD
  5
110
330
1
100
AcDbSymbolTableRecord
100
AcDbBlockTableRecord
  2
block 19
340
0
102
{BLKREFS
331
111
102
}
  0
BLOCK_RECORD
  5
121
330
1
100
AcDbSymbolTableRecord
100
AcDbBlockTableRecord
  2
block 20
340
0
102
{BLKREFS
331
122
102
}
  0
BLOCK_RECORD
  5
125
330
1
100
AcDbSymbolTableRecord
100
AcDbBlockTableRecord
  2
block 21
340
0
102
{BLKREFS
331
126
102
}
  0
BLOCK_RECORD
  5
132
330
1
100
AcDbSymbolTableRecord
100
AcDbBlockTableRecord
  2
block 22
340
0
102
{BLKREFS
331
133
102
}
  0
BLOCK_RECORD
  5
13F
330
1
100
AcDbSymbolTableRecord
100
AcDbBlockTableRecord
  2
block 23
340
0
102
{BLKREFS
331
140
102
}
  0
BLOCK_RECORD
  5
14C
330
1
100
AcDbSymbolTableRecord
100
AcDbBlockTableRecord
  2
block 24
340
0
102
{BLKREFS
331
14D
102
}
  0
BLOCK_RECORD
  5
159
330
1
100
AcDbSymbolTableRecord
100
AcDbBlockTableRecord
  2
block 25
340
0
102
{BLKREFS
331
15A
102
}
  0
BLOCK_RECORD
  5
166
330
1
100
AcDbSymbolTableRecord
100
AcDbBlockTableRecord
  2
block 26
340
0
102
{BLKREFS
331
167
102
}
  0
BLOCK_RECORD
  5
173
330
1
100
AcDbSymbolTableRecord
100
AcDbBlockTableRecord
  2
block 27
340
0
102
{BLKREFS
331
174
102
}
  0
BLOCK_RECORD
  5
180
330
1
100
AcDbSymbolTableRecord
100
AcDbBlockTableRecord
  2
block 28
340
0
102
{BLKREFS
331
181
102
}
  0
BLOCK_RECORD
  5
184
330
1
100
AcDbSymbolTableRecord
100
AcDbBlockTableRecord
  2
block 29
340
0
102
{BLKREFS
331
185
102
}
  0
BLOCK_RECORD
  5
191
330
1
100
AcDbSymbolTableRecord
100
AcDbBlockTableRecord
  2
block 30
340
0
102
{BLKREFS
331
192
102
}
  0
BLOCK_RECORD
  5
19E
330
1
100
AcDbSymbolTableRecord
100
AcDbBlockTableRecord
  2
block 31
340
0
102
{BLKREFS
331
19F
102
}
  0
BLOCK_RECORD
  5
1AB
330
1
100
AcDbSymbolTableRecord
100
AcDbBlockTableRecord
  2
block 32
340
0
102
{BLKREFS
331
1AC
102
}
  0
BLOCK_RECORD
  5
1B8
330
1
100
AcDbSymbolTableRecord
100
AcDbBlockTableRecord
  2
block 33
340
0
102
{BLKREFS
331
1B9
102
}
  0
BLOCK_RECORD
  5
1C5
330
1
100
AcDbSymbolTableRecord
100
AcDbBlockTableRecord
  2
block 34
340
0
102
{BLKREFS
331
1C6
102
}
  0
BLOCK_RECORD
  5
1D2
330
1
100
AcDbSymbolTableRecord
100
AcDbBlockTableRecord
  2
block 35
340
0
102
{BLKREFS
331
1D3
102
}
  0
BLOCK_RECORD
  5
1DF
330
1
100
AcDbSymbolTableRecord
100
AcDbBlockTableRecord
  2
block 36
340
0
102
{BLKREFS
331
1E0
102
}
  0
BLOCK_RECORD
  5
1E3
330
1
100
AcDbSymbolTableRecord
100
AcDbBlockTableRecord
  2
block 37
340
0
102
{BLKREFS
331
1E4
102
}
  0
BLOCK_RECORD
  5
1F0
330
1
100
AcDbSymbolTableRecord
100
AcDbBlockTableRecord
  2
block 38
340
0
102
{BLKREFS
331
1F1
102
}
  0
BLOCK_RECORD
  5
1FD
330
1
100
AcDbSymbolTableRecord
100
AcDbBlockTableRecord
  2
block 39
340
0
102
{BLKREFS
331
1FE
102
}
  0
BLOCK_RECORD
  5
20A
330
1
100
AcDbSymbolTableRecord
100
AcDbBlockTableRecord
  2
block 40
340
0
102
{BLKREFS
331
20B
102
}
  0
BLOCK_RECORD
  5
217
330
1
100
AcDbSymbolTableRecord
100
AcDbBlockTableRecord
  2
block 41
340
0
102
{BLKREFS
331
218
102
}
  0
BLOCK_RECORD
  5
224
330
1
100
AcDbSymbolTableRecord
100
AcDbBlockTableRecord
  2
block 42
340
0
102
{BLKREFS
331
225
102
}
  0
BLOCK_RECORD
  5
231
330
1
100
AcDbSymbolTableRecord
100
AcDbBlockTableRecord
  2
block 43
340
0
102
{BLKREFS
331
232
102
}
  0
BLOCK_RECORD
  5
23E
330
1
100
AcDbSymbolTableRecord
100
AcDbBlockTableRecord
  2
block 44
340
0
102
{BLKREFS
331
23F
102
}
  0
BLOCK_RECORD
  5
242
330
1
100
AcDbSymbolTableRecord
100
AcDbBlockTableRecord
  2
block 45
340
0
102
{BLKREFS
331
243
102
}
  0
BLOCK_RECORD
  5
24F
330
1
100
AcDbSymbolTableRecord
100
AcDbBlockTableRecord
  2
block 46
340
0
102
{BLKREFS
331
250
102
}
  0
BLOCK_RECORD
  5
25C
330
1
100
AcDbSymbolTableRecord
100
AcDbBlockTableRecord
  2
block 47
340
0
102
{BLKREFS
331
25D
102
}
  0
BLOCK_RECORD
  5
269
330
1
100
AcDbSymbolTableRecord
100
AcDbBlockTableRecord
  2
block 48
340
0
102
{BLKREFS
331
26A
102
}
  0
BLOCK_RECORD
  5
276
330
1
100
AcDbSymbolTableRecord
100
AcDbBlockTableRecord
  2
block 49
340
0
102
{BLKREFS
331
277
102
}
  0
BLOCK_RECORD
  5
283
330
1
100
AcDbSymbolTableRecord
100
AcDbBlockTableRecord
  2
block 50
340
0
102
{BLKREFS
331
284
102
}
  0
BLOCK_RECORD
  5
290
330
1
100
AcDbSymbolTableRecord
100
AcDbBlockTableRecord
  2
block 51
340
0
102
{BLKREFS
331
291
102
}
  0
BLOCK_RECORD
  5
29D
330
1
100
AcDbSymbolTableRecord
100
AcDbBlockTableRecord
  2
block 52
340
0
102
{BLKREFS
331
29E
102
}
  0
BLOCK_RECORD
  5
2A1
330
1
100
AcDbSymbolTableRecord
100
AcDbBlockTableRecord
  2
block 53
340
0
102
{BLKREFS
331
2A2
102
}
  0
BLOCK_RECORD
  5
2AE
330
1
100
AcDbSymbolTableRecord
100
AcDbBlockTableRecord
  2
block 54
340
0
102
{BLKREFS
331
2AF
102
}
  0
BLOCK_RECORD
  5
2BB
330
1
100
AcDbSymbolTableRecord
100
AcDbBlockTableRecord
  2
block 55
340
0
102
{BLKREFS
331
2BC
102
}
  0
BLOCK_RECORD
  5
2C8
330
1
100
AcDbSymbolTableRecord
100
AcDbBlockTableRecord
  2
block 56
340
0
102
{BLKREFS
331
2C9
102
}
  0
BLOCK_RECORD
  5
2D5
330
1
100
AcDbSymbolTableRecord
100
AcDbBlockTableRecord
  2
block 57
340
0
102
{BLKREFS
331
2D6
102
}
  0
BLOCK_RECORD
  5
2E2
330
1
100
AcDbSymbolTableRecord
100
AcDbBlockTableRecord
  2
block 58
340
0
102
{BLKREFS
331
2E3
102
}
  0
BLOCK_RECORD
  5
2EF
330
1
100
AcDbSymbolTableRecord
100
AcDbBlockTableRecord
  2
block 59
340
0
102
{BLKREFS
331
2F0
102
}
  0
BLOCK_RECORD
  5
2FC
330
1
100
AcDbSymbolTableRecord
100
AcDbBlockTableRecord
  2
block 60
340
0
102
{BLKREFS
331
2FD
102
}
  0
BLOCK_RECORD
  5
300
330
1
100
AcDbSymbolTableRecord
100
AcDbBlockTableRecord
  2
block 61
340
0
102
{BLKREFS
331
301
102
}
  0
BLOCK_RECORD
  5
30D
330
1
100
AcDbSymbolTableRecord
100
AcDbBlockTableRecord
  2
block 62
340
0
102
{BLKREFS
331
30E
102
}
  0
BLOCK_RECORD
  5
31A
330
1
100
AcDbSymbolTableRecord
100
AcDbBlockTableRecord
  2
block 63
340
0
102
{BLKREFS
331
31B
102
}
  0
BLOCK_RECORD
  5
327
330
1
100
AcDbSymbolTableRecord
100
AcDbBlockTableRecord
  2
block 64
340
0
102
{BLKREFS
331
328
102
}
  0
BLOCK_RECORD
  5
334
330
1
100
AcDbSymbolTableRecord
100
AcDbBlockTableRecord
  2
block 65
340
0
102
{BLKREFS
331
335
102
}
  0
BLOCK_RECORD
  5
341
330
1
100
AcDbSymbolTableRecord
100
AcDbBlockTableRecord
  2
block 66
340
0
102
{BLKREFS
331
342
102
}
  0
BLOCK_RECORD
  5
34E
330
1
100
AcDbSymbolTableRecord
100
AcDbBlockTableRecord
  2
block 67
340
0
102
{BLKREFS
331
34F
102
}
  0
BLOCK_RECORD
  5
35B
330
1
100
AcDbSymbolTableRecord
100
AcDbBlockTableRecord
  2
block 68
340
0
102
{BLKREFS
331
35C
102
}
  0
BLOCK_RECORD
  5
35F
330
1
100
AcDbSymbolTableRecord
100
AcDbBlockTableRecord
  2
block 69
340
0
102
{BLKREFS
331
360
102
}
  0
BLOCK_RECORD
  5
36C
330
1
100
AcDbSymbolTableRecord
100
AcDbBlockTableRecord
  2
block 70
340
0
102
{BLKREFS
331
36D
102
}
  0
BLOCK_RECORD
  5
379
330
1
100
AcDbSymbolTableRecord
100
AcDbBlockTableRecord
  2
block 71
340
0
102
{BLKREFS
331
37A
102
}
  0
BLOCK_RECORD
  5
386
330
1
100
AcDbSymbolTableRecord
100
AcDbBlockTableRecord
  2
block 72
340
0
102
{BLKREFS
331
387
102
}
  0
BLOCK_RECORD
  5
393
330
1
100
AcDbSymbolTableRecord
100
AcDbBlockTableRecord
  2
block 73
340
0
102
{BLKREFS
331
394
102
}
  0
BLOCK_RECORD
  5
3A0
330
1
100
AcDbSymbolTableRecord
100
AcDbBlockTableRecord
  2
block 74
340
0
102
{BLKREFS
331
3A1
102
}
  0
BLOCK_RECORD
  5
3AD
330
1
100
AcDbSymbolTableRecord
100
AcDbBlockTableRecord
  2
block 75
340
0
102
{BLKREFS
331
3AE
102
}
  0
ENDTAB
  0
ENDSEC
  0
SECTION
  2
BLOCKS
  0
BLOCK
  5
20
330
1F
100
AcDbEntity
  8
0
100
AcDbBlockBegin
  2
*Model_Space
 70
     0
 71
     0
 10
0.0
 20
0.0
 30
0.0
  3
*Model_Space
  1

  0
ENDBLK
  5
21
330
1F
100
AcDbEntity
  8
0
100
AcDbBlockEnd
  0
BLOCK
  5
1C
330
1B
100
AcDbEntity
 67
     1
  8
0
100
AcDbBlockBegin
  2
*Paper_Space
 70
     0
 71
     0
 10
0.0
 20
0.0
 30
0.0
  3
*Paper_Space
  1

  0
ENDBLK
  5
1D
330
1B
100
AcDbEntity
 67
     1
  8
0
100
AcDbBlockEnd
  0
BLOCK
  5
24
330
23
100
AcDbEntity
  8
0
100
AcDbBlockBegin
  2
*Paper_Space0
 70
     0
 71
     0
 10
0.0
 20
0.0
 30
0.0
  3
*Paper_Space0
  1

  0
ENDBLK
  5
25
330
23
100
AcDbEntity
  8
0
100
AcDbBlockEnd
  0
BLOCK
  5
3E
330
3C
100
AcDbEntity
  8
0
100
AcDbBlockBegin
  2
block 2
 70
     0
 71
     0
 10
0.0
 20
0.0
 30
0.0
  3
block 2
  1

  0
POLYLINE
  5
40
330
3C
100
AcDbEntity
  8
Layer 1
 62
   250
420
  2301728
370
   106
100
AcDb2dPolyline
 66
     1
 10
0.0
 20
0.0
 30
0.0
  0
VERTEX
  5
41
330
40
100
AcDbEntity
  8
Layer 1
 62
   250
420
  2301728
370
   106
100
AcDbVertex
100
AcDb2dVertex
 10
30.76341384144985
 20
-37.95412523480022
 30
0.0
  0
VERTEX
  5
42
330
40
100
AcDbEntity
  8
Layer 1
 62
   250
420
  2301728
370
   106
100
AcDbVertex
100
AcDb2dVertex
 10
30.76341384144985
 20
-47.9540726929253
 30
0.0
  0
VERTEX
  5
43
330
40
100
AcDbEntity
  8
Layer 1
 62
   250
420
  2301728
370
   106
100
AcDbVertex
100
AcDb2dVertex
 10
31.76338791667581
 20
-49.42657637663329
 30
0.0
  0
VERTEX
  5
44
330
40
100
AcDbEntity
  8
Layer 1
 62
   250
420
  2301728
370
   106
100
AcDbVertex
100
AcDb2dVertex
 10
32.76339644287935
 20
-47.9540726929253
 30
0.0
  0
VERTEX
  5
45
330
40
100
AcDbEntity
  8
Layer 1
 62
   250
420
  2301728
370
   106
100
AcDbVertex
100
AcDb2dVertex
 10
32.76339644287935
 20
-37.95412523480022
 30
0.0
  0
VERTEX
  5
46
330
40
100
AcDbEntity
  8
Layer 1
 62
   250
420
  2301728
370
   106
100
AcDbVertex
100
AcDb2dVertex
 10
31.76338791667581
 20
-36.48167322755861
 30
0.0
  0
VERTEX
  5
47
330
40
100
AcDbEntity
  8
Layer 1
 62
   250
420
  2301728
370
   106
100
AcDbVertex
100
AcDb2dVertex
 10
30.76341384144985
 20
-37.95412523480022
 30
0.0
  0
SEQEND
  5
48
330
40
100
AcDbEntity
  8
Layer 1
370
   106
  0
ENDBLK
  5
3F
330
3C
100
AcDbEntity
  8
0
100
AcDbBlockEnd
  0
BLOCK
  5
4B
330
49
100
AcDbEntity
  8
0
100
AcDbBlockBegin
  2
block 3
 70
     0
 71
     0
 10
0.0
 20
0.0
 30
0.0
  3
block 3
  1

  0
POLYLINE
  5
4D
330
49
100
AcDbEntity
  8
Layer 1
 62
   250
420
  2301728
370
   106
100
AcDb2dPolyline
 66
     1
 10
0.0
 20
0.0
 30
0.0
  0
VERTEX
  5
4E
330
4D
100
AcDbEntity
  8
Layer 1
 62
   250
420
  2301728
370
   106
100
AcDbVertex
100
AcDb2dVertex
 10
37.0134240665
 20
-37.95412523480022
 30
0.0
  0
VERTEX
  5
4F
330
4D
100
AcDbEntity
  8
Layer 1
 62
   250
420
  2301728
370
   106
100
AcDbVertex
100
AcDb2dVertex
 10
37.0134240665
 20
-47.9540726929253
 30
0.0
  0
VERTEX
  5
50
330
4D
100
AcDbEntity
  8
Layer 1
 62
   250
420
  2301728
370
   106
100
AcDbVertex
100
AcDb2dVertex
 10
38.01339814172596
 20
-49.42657637663329
 30
0.0
  0
VERTEX
  5
51
330
4D
100
AcDbEntity
  8
Layer 1
 62
   250
420
  2301728
370
   106
100
AcDbVertex
100
AcDb2dVertex
 10
39.01340666792949
 20
-47.9540726929253
 30
0.0
  0
VERTEX
  5
52
330
4D
100
AcDbEntity
  8
Layer 1
 62
   250
420
  2301728
370
   106
100
AcDbVertex
100
AcDb2dVertex
 10
39.01340666792949
 20
-37.95412523480022
 30
0.0
  0
VERTEX
  5
53
330
4D
100
AcDbEntity
  8
Layer 1
 62
   250
420
  2301728
370
   106
100
AcDbVertex
100
AcDb2dVertex
 10
38.01339814172596
 20
-36.48167322755861
 30
0.0
  0
VERTEX
  5
54
330
4D
100
AcDbEntity
  8
Layer 1
 62
   250
420
  2301728
370
   106
100
AcDbVertex
100
AcDb2dVertex
 10
37.0134240665
 20
-37.95412523480022
 30
0.0
  0
SEQEND
  5
55
330
4D
100
AcDbEntity
  8
Layer 1
370
   106
  0
ENDBLK
  5
4C
330
49
100
AcDbEntity
  8
0
100
AcDbBlockEnd
  0
BLOCK
  5
58
330
56
100
AcDbEntity
  8
0
100
AcDbBlockBegin
  2
block 4
 70
     0
 71
     0
 10
0.0
 20
0.0
 30
0.0
  3
block 4
  1

  0
POLYLINE
  5
5A
330
56
100
AcDbEntity
  8
Layer 1
 62
   250
420
  2301728
370
   106
100
AcDb2dPolyline
 66
     1
 10
0.0
 20
0.0
 30
0.0
  0
VERTEX
  5
5B
330
5A
100
AcDbEntity
  8
Layer 1
 62
   250
420
  2301728
370
   106
100
AcDbVertex
100
AcDb2dVertex
 10
61.84498246084746
 20
-37.95412523480022
 30
0.0
  0
VERTEX
  5
5C
330
5A
100
AcDbEntity
  8
Layer 1
 62
   250
420
  2301728
370
   106
100
AcDbVertex
100
AcDb2dVertex
 10
61.84498246084746
 20
-47.95410714390288
 30
0.0
  0
VERTEX
  5
5D
330
5A
100
AcDbEntity
  8
Layer 1
 62
   250
420
  2301728
370
   106
100
AcDbVertex
100
AcDb2dVertex
 10
62.84495653607343
 20
-49.42657637663329
 30
0.0
  0
VERTEX
  5
5E
330
5A
100
AcDbEntity
  8
Layer 1
 62
   250
420
  2301728
370
   106
100
AcDbVertex
100
AcDb2dVertex
 10
63.84496506227696
 20
-47.95410714390288
 30
0.0
  0
VERTEX
  5
5F
330
5A
100
AcDbEntity
  8
Layer 1
 62
   250
420
  2301728
370
   106
100
AcDbVertex
100
AcDb2dVertex
 10
63.84496506227696
 20
-37.95412523480022
 30
0.0
  0
VERTEX
  5
60
330
5A
100
AcDbEntity
  8
Layer 1
 62
   250
420
  2301728
370
   106
100
AcDbVertex
100
AcDb2dVertex
 10
62.84495653607343
 20
-36.48167322755861
 30
0.0
  0
VERTEX
  5
61
330
5A
100
AcDbEntity
  8
Layer 1
 62
   250
420
  2301728
370
   106
100
AcDbVertex
100
AcDb2dVertex
 10
61.84498246084746
 20
-37.95412523480022
 30
0.0
  0
SEQEND
  5
62
330
5A
100
AcDbEntity
  8
Layer 1
370
   106
  0
ENDBLK
  5
59
330
56
100
AcDbEntity
  8
0
100
AcDbBlockEnd
  0
BLOCK
  5
65
330
63
100
AcDbEntity
  8
0
100
AcDbBlockBegin
  2
block 5
 70
     0
 71
     0
 10
0.0
 20
0.0
 30
0.0
  3
block 5
  1

  0
POLYLINE
  5
67
330
63
100
AcDbEntity
  8
Layer 1
 62
   250
420
  2301728
370
   106
100
AcDb2dPolyline
 66
     1
 10
0.0
 20
0.0
 30
0.0
  0
VERTEX
  5
68
330
67
100
AcDbEntity
  8
Layer 1
 62
   250
420
  2301728
370
   106
100
AcDbVertex
100
AcDb2dVertex
 10
68.09497546040882
 20
-37.95412523480022
 30
0.0
  0
VERTEX
  5
69
330
67
100
AcDbEntity
  8
Layer 1
 62
   250
420
  2301728
370
   106
100
AcDbVertex
100
AcDb2dVertex
 10
68.09497546040882
 20
-47.95410714390288
 30
0.0
  0
VERTEX
  5
6A
330
67
100
AcDbEntity
  8
Layer 1
 62
   250
420
  2301728
370
   106
100
AcDbVertex
100
AcDb2dVertex
 10
69.09494953563478
 20
-49.42657637663329
 30
0.0
  0
VERTEX
  5
6B
330
67
100
AcDbEntity
  8
Layer 1
 62
   250
420
  2301728
370
   106
100
AcDbVertex
100
AcDb2dVertex
 10
70.09495806183833
 20
-47.95410714390288
 30
0.0
  0
VERTEX
  5
6C
330
67
100
AcDbEntity
  8
Layer 1
 62
   250
420
  2301728
370
   106
100
AcDbVertex
100
AcDb2dVertex
 10
70.09495806183833
 20
-37.95412523480022
 30
0.0
  0
VERTEX
  5
6D
330
67
100
AcDbEntity
  8
Layer 1
 62
   250
420
  2301728
370
   106
100
AcDbVertex
100
AcDb2dVertex
 10
69.09494953563478
 20
-36.48167322755861
 30
0.0
  0
VERTEX
  5
6E
330
67
100
AcDbEntity
  8
Layer 1
 62
   250
420
  2301728
370
   106
100
AcDbVertex
100
AcDb2dVertex
 10
68.09497546040882
 20
-37.95412523480022
 30
0.0
  0
SEQEND
  5
6F
330
67
100
AcDbEntity
  8
Layer 1
370
   106
  0
ENDBLK
  5
66
330
63
100
AcDbEntity
  8
0
100
AcDbBlockEnd
  0
BLOCK
  5
72
330
70
100
AcDbEntity
  8
0
100
AcDbBlockBegin
  2
block 6
 70
     0
 71
     0
 10
0.0
 20
0.0
 30
0.0
  3
block 6
  1

  0
INSERT
  5
75
330
70
100
AcDbEntity
  8
Layer 1
100
AcDbBlockReference
  2
block 7
 10
0.0
 20
0.0
 30
0.0
  0
INSERT
  5
82
330
70
100
AcDbEntity
  8
Layer 1
100
AcDbBlockReference
  2
block 8
 10
0.0
 20
0.0
 30
0.0
  0
INSERT
  5
8F
330
70
100
AcDbEntity
  8
Layer 1
100
AcDbBlockReference
  2
block 9
 10
0.0
 20
0.0
 30
0.0
  0
INSERT
  5
9C
330
70
100
AcDbEntity
  8
Layer 1
100
AcDbBlockReference
  2
block 10
 10
0.0
 20
0.0
 30
0.0
  0
INSERT
  5
A9
330
70
100
AcDbEntity
  8
Layer 1
100
AcDbBlockReference
  2
block 11
 10
0.0
 20
0.0
 30
0.0
  0
INSERT
  5
B6
330
70
100
AcDbEntity
  8
Layer 1
100
AcDbBlockReference
  2
block 12
 10
0.0
 20
0.0
 30
0.0
  0
INSERT
  5
C3
330
70
100
AcDbEntity
  8
Layer 1
100
AcDbBlockReference
  2
block 13
 10
0.0
 20
0.0
 30
0.0
  0
ENDBLK
  5
73
330
70
100
AcDbEntity
  8
0
100
AcDbBlockEnd
  0
BLOCK
  5
76
330
74
100
AcDbEntity
  8
0
100
AcDbBlockBegin
  2
block 7
 70
     0
 71
     0
 10
0.0
 20
0.0
 30
0.0
  3
block 7
  1

  0
POLYLINE
  5
78
330
74
100
AcDbEntity
  8
Layer 1
 62
   250
420
  2301728
370
   106
100
AcDb2dPolyline
 66
     1
 10
0.0
 20
0.0
 30
0.0
  0
VERTEX
  5
79
330
78
100
AcDbEntity
  8
Layer 1
 62
   250
420
  2301728
370
   106
100
AcDbVertex
100
AcDb2dVertex
 10
75.49132473893192
 20
-60.90526314540826
 30
0.0
  0
VERTEX
  5
7A
330
78
100
AcDbEntity
  8
Layer 1
 62
   250
420
  2301728
370
   106
100
AcDbVertex
100
AcDb2dVertex
 10
75.49132473893192
 20
-70.9052795054885
 30
0.0
  0
VERTEX
  5
7B
330
78
100
AcDbEntity
  8
Layer 1
 62
   250
420
  2301728
370
   106
100
AcDbVertex
100
AcDb2dVertex
 10
76.49136771611305
 20
-72.37771428724132
 30
0.0
  0
VERTEX
  5
7C
330
78
100
AcDbEntity
  8
Layer 1
 62
   250
420
  2301728
370
   106
100
AcDbVertex
100
AcDb2dVertex
 10
77.49134179133901
 20
-70.9052795054885
 30
0.0
  0
VERTEX
  5
7D
330
78
100
AcDbEntity
  8
Layer 1
 62
   250
420
  2301728
370
   106
100
AcDbVertex
100
AcDb2dVertex
 10
77.49134179133901
 20
-60.90526314540826
 30
0.0
  0
VERTEX
  5
7E
330
78
100
AcDbEntity
  8
Layer 1
 62
   250
420
  2301728
370
   106
100
AcDbVertex
100
AcDb2dVertex
 10
76.49136771611305
 20
-59.43282836365543
 30
0.0
  0
VERTEX
  5
7F
330
78
100
AcDbEntity
  8
Layer 1
 62
   250
420
  2301728
370
   106
100
AcDbVertex
100
AcDb2dVertex
 10
75.49132473893192
 20
-60.90526314540826
 30
0.0
  0
SEQEND
  5
80
330
78
100
AcDbEntity
  8
Layer 1
370
   106
  0
ENDBLK
  5
77
330
74
100
AcDbEntity
  8
0
100
AcDbBlockEnd
  0
BLOCK
  5
83
330
81
100
AcDbEntity
  8
0
100
AcDbBlockBegin
  2
block 8
 70
     0
 71
     0
 10
0.0
 20
0.0
 30
0.0
  3
block 8
  1

  0
POLYLINE
  5
85
330
81
100
AcDbEntity
  8
Layer 1
 62
   250
420
  2301728
370
   106
100
AcDb2dPolyline
 66
     1
 10
0.0
 20
0.0
 30
0.0
  0
VERTEX
  5
86
330
85
100
AcDbEntity
  8
Layer 1
 62
   250
420
  2301728
370
   106
100
AcDbVertex
100
AcDb2dVertex
 10
88.96379293317207
 20
-58.43281983745189
 30
0.0
  0
VERTEX
  5
87
330
85
100
AcDbEntity
  8
Layer 1
 62
   250
420
  2301728
370
   106
100
AcDbVertex
100
AcDb2dVertex
 10
78.96377657309183
 20
-58.43281983745189
 30
0.0
  0
VERTEX
  5
88
330
85
100
AcDbEntity
  8
Layer 1
 62
   250
420
  2301728
370
   106
100
AcDbVertex
100
AcDb2dVertex
 10
77.49134179133901
 20
-59.43282836365543
 30
0.0
  0
VERTEX
  5
89
330
85
100
AcDbEntity
  8
Layer 1
 62
   250
420
  2301728
370
   106
100
AcDbVertex
100
AcDb2dVertex
 10
78.96377657309183
 20
-60.43283688985897
 30
0.0
  0
VERTEX
  5
8A
330
85
100
AcDbEntity
  8
Layer 1
 62
   250
420
  2301728
370
   106
100
AcDbVertex
100
AcDb2dVertex
 10
88.96379293317207
 20
-60.43283688985897
 30
0.0
  0
VERTEX
  5
8B
330
85
100
AcDbEntity
  8
Layer 1
 62
   250
420
  2301728
370
   106
100
AcDbVertex
100
AcDb2dVertex
 10
90.4362277149249
 20
-59.43282836365543
 30
0.0
  0
VERTEX
  5
8C
330
85
100
AcDbEntity
  8
Layer 1
 62
   250
420
  2301728
370
   106
100
AcDbVertex
100
AcDb2dVertex
 10
88.96379293317207
 20
-58.43281983745189
 30
0.0
  0
SEQEND
  5
8D
330
85
100
AcDbEntity
  8
Layer 1
370
   106
  0
ENDBLK
  5
84
330
81
100
AcDbEntity
  8
0
100
AcDbBlockEnd
  0
BLOCK
  5
90
330
8E
100
AcDbEntity
  8
0
100
AcDbBlockBegin
  2
block 9
 70
     0
 71
     0
 10
0.0
 20
0.0
 30
0.0
  3
block 9
  1

  0
POLYLINE
  5
92
330
8E
100
AcDbEntity
  8
Layer 1
 62
   250
420
  2301728
370
   106
100
AcDb2dPolyline
 66
     1
 10
0.0
 20
0.0
 30
0.0
  0
VERTEX
  5
93
330
92
100
AcDbEntity
  8
Layer 1
 62
   250
420
  2301728
370
   106
100
AcDbVertex
100
AcDb2dVertex
 10
90.4362277149249
 20
-60.90529759638584
 30
0.0
  0
VERTEX
  5
94
330
92
100
AcDbEntity
  8
Layer 1
 62
   250
420
  2301728
370
   106
100
AcDbVertex
100
AcDb2dVertex
 10
90.4362277149249
 20
-70.9052795054885
 30
0.0
  0
VERTEX
  5
95
330
92
100
AcDbEntity
  8
Layer 1
 62
   250
420
  2301728
370
   106
100
AcDbVertex
100
AcDb2dVertex
 10
91.436270692106
 20
-72.3777487382189
 30
0.0
  0
VERTEX
  5
96
330
92
100
AcDbEntity
  8
Layer 1
 62
   250
420
  2301728
370
   106
100
AcDbVertex
100
AcDb2dVertex
 10
92.43624476733197
 20
-70.9052795054885
 30
0.0
  0
VERTEX
  5
97
330
92
100
AcDbEntity
  8
Layer 1
 62
   250
420
  2301728
370
   106
100
AcDbVertex
100
AcDb2dVertex
 10
92.43624476733197
 20
-60.90529759638584
 30
0.0
  0
VERTEX
  5
98
330
92
100
AcDbEntity
  8
Layer 1
 62
   250
420
  2301728
370
   106
100
AcDbVertex
100
AcDb2dVertex
 10
91.436270692106
 20
-59.43282836365543
 30
0.0
  0
VERTEX
  5
99
330
92
100
AcDbEntity
  8
Layer 1
 62
   250
420
  2301728
370
   106
100
AcDbVertex
100
AcDb2dVertex
 10
90.4362277149249
 20
-60.90529759638584
 30
0.0
  0
SEQEND
  5
9A
330
92
100
AcDbEntity
  8
Layer 1
370
   106
  0
ENDBLK
  5
91
330
8E
100
AcDbEntity
  8
0
100
AcDbBlockEnd
  0
BLOCK
  5
9D
330
9B
100
AcDbEntity
  8
0
100
AcDbBlockBegin
  2
block 10
 70
     0
 71
     0
 10
0.0
 20
0.0
 30
0.0
  3
block 10
  1

  0
POLYLINE
  5
9F
330
9B
100
AcDbEntity
  8
Layer 1
 62
   250
420
  2301728
370
   106
100
AcDb2dPolyline
 66
     1
 10
0.0
 20
0.0
 30
0.0
  0
VERTEX
  5
A0
330
9F
100
AcDbEntity
  8
Layer 1
 62
   250
420
  2301728
370
   106
100
AcDbVertex
100
AcDb2dVertex
 10
88.96379293317207
 20
-71.37774021201535
 30
0.0
  0
VERTEX
  5
A1
330
9F
100
AcDbEntity
  8
Layer 1
 62
   250
420
  2301728
370
   106
100
AcDbVertex
100
AcDb2dVertex
 10
78.96377657309183
 20
-71.37774021201535
 30
0.0
  0
VERTEX
  5
A2
330
9F
100
AcDbEntity
  8
Layer 1
 62
   250
420
  2301728
370
   106
100
AcDbVertex
100
AcDb2dVertex
 10
77.49134179133901
 20
-72.37771428724132
 30
0.0
  0
VERTEX
  5
A3
330
9F
100
AcDbEntity
  8
Layer 1
 62
   250
420
  2301728
370
   106
100
AcDbVertex
100
AcDb2dVertex
 10
78.96377657309183
 20
-73.37775726442243
 30
0.0
  0
VERTEX
  5
A4
330
9F
100
AcDbEntity
  8
Layer 1
 62
   250
420
  2301728
370
   106
100
AcDbVertex
100
AcDb2dVertex
 10
88.96379293317207
 20
-73.37775726442243
 30
0.0
  0
VERTEX
  5
A5
330
9F
100
AcDbEntity
  8
Layer 1
 62
   250
420
  2301728
370
   106
100
AcDbVertex
100
AcDb2dVertex
 10
90.4362277149249
 20
-72.37771428724132
 30
0.0
  0
VERTEX
  5
A6
330
9F
100
AcDbEntity
  8
Layer 1
 62
   250
420
  2301728
370
   106
100
AcDbVertex
100
AcDb2dVertex
 10
88.96379293317207
 20
-71.37774021201535
 30
0.0
  0
SEQEND
  5
A7
330
9F
100
AcDbEntity
  8
Layer 1
370
   106
  0
ENDBLK
  5
9E
330
9B
100
AcDbEntity
  8
0
100
AcDbBlockEnd
  0
BLOCK
  5
AA
330
A8
100
AcDbEntity
  8
0
100
AcDbBlockBegin
  2
block 11
 70
     0
 71
     0
 10
0.0
 20
0.0
 30
0.0
  3
block 11
  1

  0
POLYLINE
  5
AC
330
A8
100
AcDbEntity
  8
Layer 1
 62
   250
420
  2301728
370
   106
100
AcDb2dPolyline
 66
     1
 10
0.0
 20
0.0
 30
0.0
  0
VERTEX
  5
AD
330
AC
100
AcDbEntity
  8
Layer 1
 62
   250
420
  2301728
370
   106
100
AcDbVertex
100
AcDb2dVertex
 10
75.49132473893192
 20
-73.8502179709493
 30
0.0
  0
VERTEX
  5
AE
330
AC
100
AcDbEntity
  8
Layer 1
 62
   250
420
  2301728
370
   106
100
AcDbVertex
100
AcDb2dVertex
 10
75.49132473893192
 20
-83.85016542907438
 30
0.0
  0
VERTEX
  5
AF
330
AC
100
AcDbEntity
  8
Layer 1
 62
   250
420
  2301728
370
   106
100
AcDbVertex
100
AcDb2dVertex
 10
76.49136771611305
 20
-85.32266911278236
 30
0.0
  0
VERTEX
  5
B0
330
AC
100
AcDbEntity
  8
Layer 1
 62
   250
420
  2301728
370
   106
100
AcDbVertex
100
AcDb2dVertex
 10
77.49134179133901
 20
-83.85016542907438
 30
0.0
  0
VERTEX
  5
B1
330
AC
100
AcDbEntity
  8
Layer 1
 62
   250
420
  2301728
370
   106
100
AcDbVertex
100
AcDb2dVertex
 10
77.49134179133901
 20
-73.8502179709493
 30
0.0
  0
VERTEX
  5
B2
330
AC
100
AcDbEntity
  8
Layer 1
 62
   250
420
  2301728
370
   106
100
AcDbVertex
100
AcDb2dVertex
 10
76.49136771611305
 20
-72.37771428724132
 30
0.0
  0
VERTEX
  5
B3
330
AC
100
AcDbEntity
  8
Layer 1
 62
   250
420
  2301728
370
   106
100
AcDbVertex
100
AcDb2dVertex
 10
75.49132473893192
 20
-73.8502179709493
 30
0.0
  0
SEQEND
  5
B4
330
AC
100
AcDbEntity
  8
Layer 1
370
   106
  0
ENDBLK
  5
AB
330
A8
100
AcDbEntity
  8
0
100
AcDbBlockEnd
  0
BLOCK
  5
B7
330
B5
100
AcDbEntity
  8
0
100
AcDbBlockBegin
  2
block 12
 70
     0
 71
     0
 10
0.0
 20
0.0
 30
0.0
  3
block 12
  1

  0
POLYLINE
  5
B9
330
B5
100
AcDbEntity
  8
Layer 1
 62
   250
420
  2301728
370
   106
100
AcDb2dPolyline
 66
     1
 10
0.0
 20
0.0
 30
0.0
  0
VERTEX
  5
BA
330
B9
100
AcDbEntity
  8
Layer 1
 62
   250
420
  2301728
370
   106
100
AcDbVertex
100
AcDb2dVertex
 10
90.4362277149249
 20
-73.8502179709493
 30
0.0
  0
VERTEX
  5
BB
330
B9
100
AcDbEntity
  8
Layer 1
 62
   250
420
  2301728
370
   106
100
AcDbVertex
100
AcDb2dVertex
 10
90.4362277149249
 20
-83.85023433102953
 30
0.0
  0
VERTEX
  5
BC
330
B9
100
AcDbEntity
  8
Layer 1
 62
   250
420
  2301728
370
   106
100
AcDbVertex
100
AcDb2dVertex
 10
91.436270692106
 20
-85.32266911278236
 30
0.0
  0
VERTEX
  5
BD
330
B9
100
AcDbEntity
  8
Layer 1
 62
   250
420
  2301728
370
   106
100
AcDbVertex
100
AcDb2dVertex
 10
92.43624476733197
 20
-83.85023433102953
 30
0.0
  0
VERTEX
  5
BE
330
B9
100
AcDbEntity
  8
Layer 1
 62
   250
420
  2301728
370
   106
100
AcDbVertex
100
AcDb2dVertex
 10
92.43624476733197
 20
-73.8502179709493
 30
0.0
  0
VERTEX
  5
BF
330
B9
100
AcDbEntity
  8
Layer 1
 62
   250
420
  2301728
370
   106
100
AcDbVertex
100
AcDb2dVertex
 10
91.436270692106
 20
-72.3777487382189
 30
0.0
  0
VERTEX
  5
C0
330
B9
100
AcDbEntity
  8
Layer 1
 62
   250
420
  2301728
370
   106
100
AcDbVertex
100
AcDb2dVertex
 10
90.4362277149249
 20
-73.8502179709493
 30
0.0
  0
SEQEND
  5
C1
330
B9
100
AcDbEntity
  8
Layer 1
370
   106
  0
ENDBLK
  5
B8
330
B5
100
AcDbEntity
  8
0
100
AcDbBlockEnd
  0
BLOCK
  5
C4
330
C2
100
AcDbEntity
  8
0
100
AcDbBlockBegin
  2
block 13
 70
     0
 71
     0
 10
0.0
 20
0.0
 30
0.0
  3
block 13
  1

  0
POLYLINE
  5
C6
330
C2
100
AcDbEntity
  8
Layer 1
 62
   250
420
  2301728
370
   106
100
AcDb2dPolyline
 66
     1
 10
0.0
 20
0.0
 30
0.0
  0
VERTEX
  5
C7
330
C6
100
AcDbEntity
  8
Layer 1
 62
   250
420
  2301728
370
   106
100
AcDbVertex
100
AcDb2dVertex
 10
88.96379293317207
 20
-84.32262613560124
 30
0.0
  0
VERTEX
  5
C8
330
C6
100
AcDbEntity
  8
Layer 1
 62
   250
420
  2301728
370
   106
100
AcDbVertex
100
AcDb2dVertex
 10
78.96377657309183
 20
-84.32262613560124
 30
0.0
  0
VERTEX
  5
C9
330
C6
100
AcDbEntity
  8
Layer 1
 62
   250
420
  2301728
370
   106
100
AcDbVertex
100
AcDb2dVertex
 10
77.49134179133901
 20
-85.32266911278236
 30
0.0
  0
VERTEX
  5
CA
330
C6
100
AcDbEntity
  8
Layer 1
 62
   250
420
  2301728
370
   106
100
AcDbVertex
100
AcDb2dVertex
 10
78.96377657309183
 20
-86.32264318800831
 30
0.0
  0
VERTEX
  5
CB
330
C6
100
AcDbEntity
  8
Layer 1
 62
   250
420
  2301728
370
   106
100
AcDbVertex
100
AcDb2dVertex
 10
88.96379293317207
 20
-86.32264318800831
 30
0.0
  0
VERTEX
  5
CC
330
C6
100
AcDbEntity
  8
Layer 1
 62
   250
420
  2301728
370
   106
100
AcDbVertex
100
AcDb2dVertex
 10
90.4362277149249
 20
-85.32266911278236
 30
0.0
  0
VERTEX
  5
CD
330
C6
100
AcDbEntity
  8
Layer 1
 62
   250
420
  2301728
370
   106
100
AcDbVertex
100
AcDb2dVertex
 10
88.96379293317207
 20
-84.32262613560124
 30
0.0
  0
SEQEND
  5
CE
330
C6
100
AcDbEntity
  8
Layer 1
370
   106
  0
ENDBLK
  5
C5
330
C2
100
AcDbEntity
  8
0
100
AcDbBlockEnd
  0
BLOCK
  5
D1
330
CF
100
AcDbEntity
  8
0
100
AcDbBlockBegin
  2
block 14
 70
     0
 71
     0
 10
0.0
 20
0.0
 30
0.0
  3
block 14
  1

  0
POLYLINE
  5
D3
330
CF
100
AcDbEntity
  8
Layer 1
 62
   250
420
  2301728
370
   106
100
AcDb2dPolyline
 66
     1
 10
0.0
 20
0.0
 30
0.0
  0
VERTEX
  5
D4
330
D3
100
AcDbEntity
  8
Layer 1
 62
   250
420
  2301728
370
   106
100
AcDbVertex
100
AcDb2dVertex
 10
74.34496845997018
 20
-37.95412523480022
 30
0.0
  0
VERTEX
  5
D5
330
D3
100
AcDbEntity
  8
Layer 1
 62
   250
420
  2301728
370
   106
100
AcDbVertex
100
AcDb2dVertex
 10
74.34496845997018
 20
-47.95410714390288
 30
0.0
  0
VERTEX
  5
D6
330
D3
100
AcDbEntity
  8
Layer 1
 62
   250
420
  2301728
370
   106
100
AcDbVertex
100
AcDb2dVertex
 10
75.34494253519614
 20
-49.42657637663329
 30
0.0
  0
VERTEX
  5
D7
330
D3
100
AcDbEntity
  8
Layer 1
 62
   250
420
  2301728
370
   106
100
AcDbVertex
100
AcDb2dVertex
 10
76.34498551237725
 20
-47.95410714390288
 30
0.0
  0
VERTEX
  5
D8
330
D3
100
AcDbEntity
  8
Layer 1
 62
   250
420
  2301728
370
   106
100
AcDbVertex
100
AcDb2dVertex
 10
76.34498551237725
 20
-37.95412523480022
 30
0.0
  0
VERTEX
  5
D9
330
D3
100
AcDbEntity
  8
Layer 1
 62
   250
420
  2301728
370
   106
100
AcDbVertex
100
AcDb2dVertex
 10
75.34494253519614
 20
-36.48167322755861
 30
0.0
  0
VERTEX
  5
DA
330
D3
100
AcDbEntity
  8
Layer 1
 62
   250
420
  2301728
370
   106
100
AcDbVertex
100
AcDb2dVertex
 10
74.34496845997018
 20
-37.95412523480022
 30
0.0
  0
SEQEND
  5
DB
330
D3
100
AcDbEntity
  8
Layer 1
370
   106
  0
ENDBLK
  5
D2
330
CF
100
AcDbEntity
  8
0
100
AcDbBlockEnd
  0
BLOCK
  5
DE
330
DC
100
AcDbEntity
  8
0
100
AcDbBlockBegin
  2
block 15
 70
     0
 71
     0
 10
0.0
 20
0.0
 30
0.0
  3
block 15
  1

  0
POLYLINE
  5
E0
330
DC
100
AcDbEntity
  8
Layer 1
 62
   250
420
  2301728
370
   106
100
AcDb2dPolyline
 66
     1
 10
0.0
 20
0.0
 30
0.0
  0
VERTEX
  5
E1
330
E0
100
AcDbEntity
  8
Layer 1
 62
   250
420
  2301728
370
   106
100
AcDbVertex
100
AcDb2dVertex
 10
80.59503036148669
 20
-37.95412523480022
 30
0.0
  0
VERTEX
  5
E2
330
E0
100
AcDbEntity
  8
Layer 1
 62
   250
420
  2301728
370
   106
100
AcDbVertex
100
AcDb2dVertex
 10
80.59503036148669
 20
-47.95410714390288
 30
0.0
  0
VERTEX
  5
E3
330
E0
100
AcDbEntity
  8
Layer 1
 62
   250
420
  2301728
370
   106
100
AcDbVertex
100
AcDb2dVertex
 10
81.59500443671266
 20
-49.42657637663329
 30
0.0
  0
VERTEX
  5
E4
330
E0
100
AcDbEntity
  8
Layer 1
 62
   250
420
  2301728
370
   106
100
AcDbVertex
100
AcDb2dVertex
 10
82.59501296291619
 20
-47.95410714390288
 30
0.0
  0
VERTEX
  5
E5
330
E0
100
AcDbEntity
  8
Layer 1
 62
   250
420
  2301728
370
   106
100
AcDbVertex
100
AcDb2dVertex
 10
82.59501296291619
 20
-37.95412523480022
 30
0.0
  0
VERTEX
  5
E6
330
E0
100
AcDbEntity
  8
Layer 1
 62
   250
420
  2301728
370
   106
100
AcDbVertex
100
AcDb2dVertex
 10
81.59500443671266
 20
-36.48167322755861
 30
0.0
  0
VERTEX
  5
E7
330
E0
100
AcDbEntity
  8
Layer 1
 62
   250
420
  2301728
370
   106
100
AcDbVertex
100
AcDb2dVertex
 10
80.59503036148669
 20
-37.95412523480022
 30
0.0
  0
SEQEND
  5
E8
330
E0
100
AcDbEntity
  8
Layer 1
370
   106
  0
ENDBLK
  5
DF
330
DC
100
AcDbEntity
  8
0
100
AcDbBlockEnd
  0
BLOCK
  5
EB
330
E9
100
AcDbEntity
  8
0
100
AcDbBlockBegin
  2
block 16
 70
     0
 71
     0
 10
0.0
 20
0.0
 30
0.0
  3
block 16
  1

  0
POLYLINE
  5
ED
330
E9
100
AcDbEntity
  8
Layer 1
 62
   250
420
  2301728
370
   106
100
AcDb2dPolyline
 66
     1
 10
0.0
 20
0.0
 30
0.0
  0
VERTEX
  5
EE
330
ED
100
AcDbEntity
  8
Layer 1
 62
   250
420
  2301728
370
   106
100
AcDbVertex
100
AcDb2dVertex
 10
86.84502336104805
 20
-37.95412523480022
 30
0.0
  0
VERTEX
  5
EF
330
ED
100
AcDbEntity
  8
Layer 1
 62
   250
420
  2301728
370
   106
100
AcDbVertex
100
AcDb2dVertex
 10
86.84502336104805
 20
-47.95410714390288
 30
0.0
  0
VERTEX
  5
F0
330
ED
100
AcDbEntity
  8
Layer 1
 62
   250
420
  2301728
370
   106
100
AcDbVertex
100
AcDb2dVertex
 10
87.84499743627401
 20
-49.42657637663329
 30
0.0
  0
VERTEX
  5
F1
330
ED
100
AcDbEntity
  8
Layer 1
 62
   250
420
  2301728
370
   106
100
AcDbVertex
100
AcDb2dVertex
 10
88.84500596247754
 20
-47.95410714390288
 30
0.0
  0
VERTEX
  5
F2
330
ED
100
AcDbEntity
  8
Layer 1
 62
   250
420
  2301728
370
   106
100
AcDbVertex
100
AcDb2dVertex
 10
88.84500596247754
 20
-37.95412523480022
 30
0.0
  0
VERTEX
  5
F3
330
ED
100
AcDbEntity
  8
Layer 1
 62
   250
420
  2301728
370
   106
100
AcDbVertex
100
AcDb2dVertex
 10
87.84499743627401
 20
-36.48167322755861
 30
0.0
  0
VERTEX
  5
F4
330
ED
100
AcDbEntity
  8
Layer 1
 62
   250
420
  2301728
370
   106
100
AcDbVertex
100
AcDb2dVertex
 10
86.84502336104805
 20
-37.95412523480022
 30
0.0
  0
SEQEND
  5
F5
330
ED
100
AcDbEntity
  8
Layer 1
370
   106
  0
ENDBLK
  5
EC
330
E9
100
AcDbEntity
  8
0
100
AcDbBlockEnd
  0
BLOCK
  5
F8
330
F6
100
AcDbEntity
  8
0
100
AcDbBlockBegin
  2
block 17
 70
     0
 71
     0
 10
0.0
 20
0.0
 30
0.0
  3
block 17
  1

  0
POLYLINE
  5
FA
330
F6
100
AcDbEntity
  8
Layer 1
 62
   250
420
  2301728
370
   106
100
AcDb2dPolyline
 66
     1
 10
0.0
 20
0.0
 30
0.0
  0
VERTEX
  5
FB
330
FA
100
AcDbEntity
  8
Layer 1
 62
   250
420
  2301728
370
   106
100
AcDbVertex
100
AcDb2dVertex
 10
11.95955351383126
 20
-37.95412523480022
 30
0.0
  0
VERTEX
  5
FC
330
FA
100
AcDbEntity
  8
Layer 1
 62
   250
420
  2301728
370
   106
100
AcDbVertex
100
AcDb2dVertex
 10
11.95955351383126
 20
-47.9540726929253
 30
0.0
  0
VERTEX
  5
FD
330
FA
100
AcDbEntity
  8
Layer 1
 62
   250
420
  2301728
370
   106
100
AcDbVertex
100
AcDb2dVertex
 10
12.95952758905722
 20
-49.42650747467813
 30
0.0
  0
VERTEX
  5
FE
330
FA
100
AcDbEntity
  8
Layer 1
 62
   250
420
  2301728
370
   106
100
AcDbVertex
100
AcDb2dVertex
 10
13.95953611526076
 20
-47.9540726929253
 30
0.0
  0
VERTEX
  5
FF
330
FA
100
AcDbEntity
  8
Layer 1
 62
   250
420
  2301728
370
   106
100
AcDbVertex
100
AcDb2dVertex
 10
13.95953611526076
 20
-37.95412523480022
 30
0.0
  0
VERTEX
  5
100
330
FA
100
AcDbEntity
  8
Layer 1
 62
   250
420
  2301728
370
   106
100
AcDbVertex
100
AcDb2dVertex
 10
12.95952758905722
 20
-36.48167322755861
 30
0.0
  0
VERTEX
  5
101
330
FA
100
AcDbEntity
  8
Layer 1
 62
   250
420
  2301728
370
   106
100
AcDbVertex
100
AcDb2dVertex
 10
11.95955351383126
 20
-37.95412523480022
 30
0.0
  0
SEQEND
  5
102
330
FA
100
AcDbEntity
  8
Layer 1
370
   106
  0
ENDBLK
  5
F9
330
F6
100
AcDbEntity
  8
0
100
AcDbBlockEnd
  0
BLOCK
  5
105
330
103
100
AcDbEntity
  8
0
100
AcDbBlockBegin
  2
block 18
 70
     0
 71
     0
 10
0.0
 20
0.0
 30
0.0
  3
block 18
  1

  0
POLYLINE
  5
107
330
103
100
AcDbEntity
  8
Layer 1
 62
   250
420
  2301728
370
   106
100
AcDb2dPolyline
 66
     1
 10
0.0
 20
0.0
 30
0.0
  0
VERTEX
  5
108
330
107
100
AcDbEntity
  8
Layer 1
 62
   250
420
  2301728
370
   106
100
AcDbVertex
100
AcDb2dVertex
 10
18.20956373888141
 20
-37.95412523480022
 30
0.0
  0
VERTEX
  5
109
330
107
100
AcDbEntity
  8
Layer 1
 62
   250
420
  2301728
370
   106
100
AcDbVertex
100
AcDb2dVertex
 10
18.20956373888141
 20
-47.9540726929253
 30
0.0
  0
VERTEX
  5
10A
330
107
100
AcDbEntity
  8
Layer 1
 62
   250
420
  2301728
370
   106
100
AcDbVertex
100
AcDb2dVertex
 10
19.20953781410737
 20
-49.42650747467813
 30
0.0
  0
VERTEX
  5
10B
330
107
100
AcDbEntity
  8
Layer 1
 62
   250
420
  2301728
370
   106
100
AcDbVertex
100
AcDb2dVertex
 10
20.20954634031091
 20
-47.9540726929253
 30
0.0
  0
VERTEX
  5
10C
330
107
100
AcDbEntity
  8
Layer 1
 62
   250
420
  2301728
370
   106
100
AcDbVertex
100
AcDb2dVertex
 10
20.20954634031091
 20
-37.95412523480022
 30
0.0
  0
VERTEX
  5
10D
330
107
100
AcDbEntity
  8
Layer 1
 62
   250
420
  2301728
370
   106
100
AcDbVertex
100
AcDb2dVertex
 10
19.20953781410737
 20
-36.48167322755861
 30
0.0
  0
VERTEX
  5
10E
330
107
100
AcDbEntity
  8
Layer 1
 62
   250
420
  2301728
370
   106
100
AcDbVertex
100
AcDb2dVertex
 10
18.20956373888141
 20
-37.95412523480022
 30
0.0
  0
SEQEND
  5
10F
330
107
100
AcDbEntity
  8
Layer 1
370
   106
  0
ENDBLK
  5
106
330
103
100
AcDbEntity
  8
0
100
AcDbBlockEnd
  0
BLOCK
  5
112
330
110
100
AcDbEntity
  8
0
100
AcDbBlockBegin
  2
block 19
 70
     0
 71
     0
 10
0.0
 20
0.0
 30
0.0
  3
block 19
  1

  0
POLYLINE
  5
114
330
110
100
AcDbEntity
  8
Layer 1
 62
   250
420
  2301728
370
   106
100
AcDb2dPolyline
 66
     1
 10
0.0
 20
0.0
 30
0.0
  0
VERTEX
  5
115
330
114
100
AcDbEntity
  8
Layer 1
 62
   250
420
  2301728
370
   106
100
AcDbVertex
100
AcDb2dVertex
 10
24.45960841490913
 20
-37.95412523480022
 30
0.0
  0
VERTEX
  5
116
330
114
100
AcDbEntity
  8
Layer 1
 62
   250
420
  2301728
370
   106
100
AcDbVertex
100
AcDb2dVertex
 10
24.45960841490913
 20
-47.9540726929253
 30
0.0
  0
VERTEX
  5
117
330
114
100
AcDbEntity
  8
Layer 1
 62
   250
420
  2301728
370
   106
100
AcDbVertex
100
AcDb2dVertex
 10
25.45958249013509
 20
-49.42650747467813
 30
0.0
  0
VERTEX
  5
118
330
114
100
AcDbEntity
  8
Layer 1
 62
   250
420
  2301728
370
   106
100
AcDbVertex
100
AcDb2dVertex
 10
26.45959101633863
 20
-47.9540726929253
 30
0.0
  0
VERTEX
  5
119
330
114
100
AcDbEntity
  8
Layer 1
 62
   250
420
  2301728
370
   106
100
AcDbVertex
100
AcDb2dVertex
 10
26.45959101633863
 20
-37.95412523480022
 30
0.0
  0
VERTEX
  5
11A
330
114
100
AcDbEntity
  8
Layer 1
 62
   250
420
  2301728
370
   106
100
AcDbVertex
100
AcDb2dVertex
 10
25.45958249013509
 20
-36.48167322755861
 30
0.0
  0
VERTEX
  5
11B
330
114
100
AcDbEntity
  8
Layer 1
 62
   250
420
  2301728
370
   106
100
AcDbVertex
100
AcDb2dVertex
 10
24.45960841490913
 20
-37.95412523480022
 30
0.0
  0
SEQEND
  5
11C
330
114
100
AcDbEntity
  8
Layer 1
370
   106
  0
ENDBLK
  5
113
330
110
100
AcDbEntity
  8
0
100
AcDbBlockEnd
  0
BLOCK
  5
123
330
121
100
AcDbEntity
  8
0
100
AcDbBlockBegin
  2
block 20
 70
     0
 71
     0
 10
0.0
 20
0.0
 30
0.0
  3
block 20
  1

  0
INSERT
  5
126
330
121
100
AcDbEntity
  8
Layer 1
100
AcDbBlockReference
  2
block 21
 10
0.0
 20
0.0
 30
0.0
  0
INSERT
  5
133
330
121
100
AcDbEntity
  8
Layer 1
100
AcDbBlockReference
  2
block 22
 10
0.0
 20
0.0
 30
0.0
  0
INSERT
  5
140
330
121
100
AcDbEntity
  8
Layer 1
100
AcDbBlockReference
  2
block 23
 10
0.0
 20
0.0
 30
0.0
  0
INSERT
  5
14D
330
121
100
AcDbEntity
  8
Layer 1
100
AcDbBlockReference
  2
block 24
 10
0.0
 20
0.0
 30
0.0
  0
INSERT
  5
15A
330
121
100
AcDbEntity
  8
Layer 1
100
AcDbBlockReference
  2
block 25
 10
0.0
 20
0.0
 30
0.0
  0
INSERT
  5
167
330
121
100
AcDbEntity
  8
Layer 1
100
AcDbBlockReference
  2
block 26
 10
0.0
 20
0.0
 30
0.0
  0
INSERT
  5
174
330
121
100
AcDbEntity
  8
Layer 1
100
AcDbBlockReference
  2
block 27
 10
0.0
 20
0.0
 30
0.0
  0
ENDBLK
  5
124
330
121
100
AcDbEntity
  8
0
100
AcDbBlockEnd
  0
BLOCK
  5
127
330
125
100
AcDbEntity
  8
0
100
AcDbBlockBegin
  2
block 21
 70
     0
 71
     0
 10
0.0
 20
0.0
 30
0.0
  3
block 21
  1

  0
POLYLINE
  5
129
330
125
100
AcDbEntity
  8
Layer 1
 62
   250
420
  2301728
370
   106
100
AcDb2dPolyline
 66
     1
 10
0.0
 20
0.0
 30
0.0
  0
VERTEX
  5
12A
330
129
100
AcDbEntity
  8
Layer 1
 62
   250
420
  2301728
370
   106
100
AcDbVertex
100
AcDb2dVertex
 10
52.84380329373306
 20
-60.9051942434531
 30
0.0
  0
VERTEX
  5
12B
330
129
100
AcDbEntity
  8
Layer 1
 62
   250
420
  2301728
370
   106
100
AcDbVertex
100
AcDb2dVertex
 10
52.84380329373306
 20
-70.90521060353333
 30
0.0
  0
VERTEX
  5
12C
330
129
100
AcDbEntity
  8
Layer 1
 62
   250
420
  2301728
370
   106
100
AcDbVertex
100
AcDb2dVertex
 10
53.84384627091418
 20
-72.37764538528616
 30
0.0
  0
VERTEX
  5
12D
330
129
100
AcDbEntity
  8
Layer 1
 62
   250
420
  2301728
370
   106
100
AcDbVertex
100
AcDb2dVertex
 10
54.84382034614014
 20
-70.90521060353333
 30
0.0
  0
VERTEX
  5
12E
330
129
100
AcDbEntity
  8
Layer 1
 62
   250
420
  2301728
370
   106
100
AcDbVertex
100
AcDb2dVertex
 10
54.84382034614014
 20
-60.9051942434531
 30
0.0
  0
VERTEX
  5
12F
330
129
100
AcDbEntity
  8
Layer 1
 62
   250
420
  2301728
370
   106
100
AcDbVertex
100
AcDb2dVertex
 10
53.84384627091418
 20
-59.43275946170027
 30
0.0
  0
VERTEX
  5
130
330
129
100
AcDbEntity
  8
Layer 1
 62
   250
420
  2301728
370
   106
100
AcDbVertex
100
AcDb2dVertex
 10
52.84380329373306
 20
-60.9051942434531
 30
0.0
  0
SEQEND
  5
131
330
129
100
AcDbEntity
  8
Layer 1
370
   106
  0
ENDBLK
  5
128
330
125
100
AcDbEntity
  8
0
100
AcDbBlockEnd
  0
BLOCK
  5
134
330
132
100
AcDbEntity
  8
0
100
AcDbBlockBegin
  2
block 22
 70
     0
 71
     0
 10
0.0
 20
0.0
 30
0.0
  3
block 22
  1

  0
POLYLINE
  5
136
330
132
100
AcDbEntity
  8
Layer 1
 62
   250
420
  2301728
370
   106
100
AcDb2dPolyline
 66
     1
 10
0.0
 20
0.0
 30
0.0
  0
VERTEX
  5
137
330
136
100
AcDbEntity
  8
Layer 1
 62
   250
420
  2301728
370
   106
100
AcDbVertex
100
AcDb2dVertex
 10
66.3162714879732
 20
-58.43275093549673
 30
0.0
  0
VERTEX
  5
138
330
136
100
AcDbEntity
  8
Layer 1
 62
   250
420
  2301728
370
   106
100
AcDbVertex
100
AcDb2dVertex
 10
56.31625512789297
 20
-58.43275093549673
 30
0.0
  0
VERTEX
  5
139
330
136
100
AcDbEntity
  8
Layer 1
 62
   250
420
  2301728
370
   106
100
AcDbVertex
100
AcDb2dVertex
 10
54.84382034614014
 20
-59.43275946170027
 30
0.0
  0
VERTEX
  5
13A
330
136
100
AcDbEntity
  8
Layer 1
 62
   250
420
  2301728
370
   106
100
AcDbVertex
100
AcDb2dVertex
 10
56.31625512789297
 20
-60.43276798790381
 30
0.0
  0
VERTEX
  5
13B
330
136
100
AcDbEntity
  8
Layer 1
 62
   250
420
  2301728
370
   106
100
AcDbVertex
100
AcDb2dVertex
 10
66.3162714879732
 20
-60.43276798790381
 30
0.0
  0
VERTEX
  5
13C
330
136
100
AcDbEntity
  8
Layer 1
 62
   250
420
  2301728
370
   106
100
AcDbVertex
100
AcDb2dVertex
 10
67.78870626972602
 20
-59.43275946170027
 30
0.0
  0
VERTEX
  5
13D
330
136
100
AcDbEntity
  8
Layer 1
 62
   250
420
  2301728
370
   106
100
AcDbVertex
100
AcDb2dVertex
 10
66.3162714879732
 20
-58.43275093549673
 30
0.0
  0
SEQEND
  5
13E
330
136
100
AcDbEntity
  8
Layer 1
370
   106
  0
ENDBLK
  5
135
330
132
100
AcDbEntity
  8
0
100
AcDbBlockEnd
  0
BLOCK
  5
141
330
13F
100
AcDbEntity
  8
0
100
AcDbBlockBegin
  2
block 23
 70
     0
 71
     0
 10
0.0
 20
0.0
 30
0.0
  3
block 23
  1

  0
POLYLINE
  5
143
330
13F
100
AcDbEntity
  8
Layer 1
 62
   250
420
  2301728
370
   106
100
AcDb2dPolyline
 66
     1
 10
0.0
 20
0.0
 30
0.0
  0
VERTEX
  5
144
330
143
100
AcDbEntity
  8
Layer 1
 62
   250
420
  2301728
370
   106
100
AcDbVertex
100
AcDb2dVertex
 10
67.78870626972602
 20
-60.90522869443068
 30
0.0
  0
VERTEX
  5
145
330
143
100
AcDbEntity
  8
Layer 1
 62
   250
420
  2301728
370
   106
100
AcDbVertex
100
AcDb2dVertex
 10
67.78870626972602
 20
-70.90521060353333
 30
0.0
  0
VERTEX
  5
146
330
143
100
AcDbEntity
  8
Layer 1
 62
   250
420
  2301728
370
   106
100
AcDbVertex
100
AcDb2dVertex
 10
68.78874924690714
 20
-72.37767983626374
 30
0.0
  0
VERTEX
  5
147
330
143
100
AcDbEntity
  8
Layer 1
 62
   250
420
  2301728
370
   106
100
AcDbVertex
100
AcDb2dVertex
 10
69.78872332213311
 20
-70.90521060353333
 30
0.0
  0
VERTEX
  5
148
330
143
100
AcDbEntity
  8
Layer 1
 62
   250
420
  2301728
370
   106
100
AcDbVertex
100
AcDb2dVertex
 10
69.78872332213311
 20
-60.90522869443068
 30
0.0
  0
VERTEX
  5
149
330
143
100
AcDbEntity
  8
Layer 1
 62
   250
420
  2301728
370
   106
100
AcDbVertex
100
AcDb2dVertex
 10
68.78874924690714
 20
-59.43275946170027
 30
0.0
  0
VERTEX
  5
14A
330
143
100
AcDbEntity
  8
Layer 1
 62
   250
420
  2301728
370
   106
100
AcDbVertex
100
AcDb2dVertex
 10
67.78870626972602
 20
-60.90522869443068
 30
0.0
  0
SEQEND
  5
14B
330
143
100
AcDbEntity
  8
Layer 1
370
   106
  0
ENDBLK
  5
142
330
13F
100
AcDbEntity
  8
0
100
AcDbBlockEnd
  0
BLOCK
  5
14E
330
14C
100
AcDbEntity
  8
0
100
AcDbBlockBegin
  2
block 24
 70
     0
 71
     0
 10
0.0
 20
0.0
 30
0.0
  3
block 24
  1

  0
POLYLINE
  5
150
330
14C
100
AcDbEntity
  8
Layer 1
 62
   250
420
  2301728
370
   106
100
AcDb2dPolyline
 66
     1
 10
0.0
 20
0.0
 30
0.0
  0
VERTEX
  5
151
330
150
100
AcDbEntity
  8
Layer 1
 62
   250
420
  2301728
370
   106
100
AcDbVertex
100
AcDb2dVertex
 10
66.3162714879732
 20
-71.3776713100602
 30
0.0
  0
VERTEX
  5
152
330
150
100
AcDbEntity
  8
Layer 1
 62
   250
420
  2301728
370
   106
100
AcDbVertex
100
AcDb2dVertex
 10
56.31625512789297
 20
-71.3776713100602
 30
0.0
  0
VERTEX
  5
153
330
150
100
AcDbEntity
  8
Layer 1
 62
   250
420
  2301728
370
   106
100
AcDbVertex
100
AcDb2dVertex
 10
54.84382034614014
 20
-72.37764538528616
 30
0.0
  0
VERTEX
  5
154
330
150
100
AcDbEntity
  8
Layer 1
 62
   250
420
  2301728
370
   106
100
AcDbVertex
100
AcDb2dVertex
 10
56.31625512789297
 20
-73.37768836246727
 30
0.0
  0
VERTEX
  5
155
330
150
100
AcDbEntity
  8
Layer 1
 62
   250
420
  2301728
370
   106
100
AcDbVertex
100
AcDb2dVertex
 10
66.3162714879732
 20
-73.37768836246727
 30
0.0
  0
VERTEX
  5
156
330
150
100
AcDbEntity
  8
Layer 1
 62
   250
420
  2301728
370
   106
100
AcDbVertex
100
AcDb2dVertex
 10
67.78870626972602
 20
-72.37764538528616
 30
0.0
  0
VERTEX
  5
157
330
150
100
AcDbEntity
  8
Layer 1
 62
   250
420
  2301728
370
   106
100
AcDbVertex
100
AcDb2dVertex
 10
66.3162714879732
 20
-71.3776713100602
 30
0.0
  0
SEQEND
  5
158
330
150
100
AcDbEntity
  8
Layer 1
370
   106
  0
ENDBLK
  5
14F
330
14C
100
AcDbEntity
  8
0
100
AcDbBlockEnd
  0
BLOCK
  5
15B
330
159
100
AcDbEntity
  8
0
100
AcDbBlockBegin
  2
block 25
 70
     0
 71
     0
 10
0.0
 20
0.0
 30
0.0
  3
block 25
  1

  0
POLYLINE
  5
15D
330
159
100
AcDbEntity
  8
Layer 1
 62
   250
420
  2301728
370
   106
100
AcDb2dPolyline
 66
     1
 10
0.0
 20
0.0
 30
0.0
  0
VERTEX
  5
15E
330
15D
100
AcDbEntity
  8
Layer 1
 62
   250
420
  2301728
370
   106
100
AcDbVertex
100
AcDb2dVertex
 10
52.84380329373306
 20
-73.85014906899414
 30
0.0
  0
VERTEX
  5
15F
330
15D
100
AcDbEntity
  8
Layer 1
 62
   250
420
  2301728
370
   106
100
AcDbVertex
100
AcDb2dVertex
 10
52.84380329373306
 20
-83.85009652711922
 30
0.0
  0
VERTEX
  5
160
330
15D
100
AcDbEntity
  8
Layer 1
 62
   250
420
  2301728
370
   106
100
AcDbVertex
100
AcDb2dVertex
 10
53.84384627091418
 20
-85.3226002108272
 30
0.0
  0
VERTEX
  5
161
330
15D
100
AcDbEntity
  8
Layer 1
 62
   250
420
  2301728
370
   106
100
AcDbVertex
100
AcDb2dVertex
 10
54.84382034614014
 20
-83.85009652711922
 30
0.0
  0
VERTEX
  5
162
330
15D
100
AcDbEntity
  8
Layer 1
 62
   250
420
  2301728
370
   106
100
AcDbVertex
100
AcDb2dVertex
 10
54.84382034614014
 20
-73.85014906899414
 30
0.0
  0
VERTEX
  5
163
330
15D
100
AcDbEntity
  8
Layer 1
 62
   250
420
  2301728
370
   106
100
AcDbVertex
100
AcDb2dVertex
 10
53.84384627091418
 20
-72.37764538528616
 30
0.0
  0
VERTEX
  5
164
330
15D
100
AcDbEntity
  8
Layer 1
 62
   250
420
  2301728
370
   106
100
AcDbVertex
100
AcDb2dVertex
 10
52.84380329373306
 20
-73.85014906899414
 30
0.0
  0
SEQEND
  5
165
330
15D
100
AcDbEntity
  8
Layer 1
370
   106
  0
ENDBLK
  5
15C
330
159
100
AcDbEntity
  8
0
100
AcDbBlockEnd
  0
BLOCK
  5
168
330
166
100
AcDbEntity
  8
0
100
AcDbBlockBegin
  2
block 26
 70
     0
 71
     0
 10
0.0
 20
0.0
 30
0.0
  3
block 26
  1

  0
POLYLINE
  5
16A
330
166
100
AcDbEntity
  8
Layer 1
 62
   250
420
  2301728
370
   106
100
AcDb2dPolyline
 66
     1
 10
0.0
 20
0.0
 30
0.0
  0
VERTEX
  5
16B
330
16A
100
AcDbEntity
  8
Layer 1
 62
   250
420
  2301728
370
   106
100
AcDbVertex
100
AcDb2dVertex
 10
67.78870626972602
 20
-73.85014906899414
 30
0.0
  0
VERTEX
  5
16C
330
16A
100
AcDbEntity
  8
Layer 1
 62
   250
420
  2301728
370
   106
100
AcDbVertex
100
AcDb2dVertex
 10
67.78870626972602
 20
-83.85016542907438
 30
0.0
  0
VERTEX
  5
16D
330
16A
100
AcDbEntity
  8
Layer 1
 62
   250
420
  2301728
370
   106
100
AcDbVertex
100
AcDb2dVertex
 10
68.78874924690714
 20
-85.3226002108272
 30
0.0
  0
VERTEX
  5
16E
330
16A
100
AcDbEntity
  8
Layer 1
 62
   250
420
  2301728
370
   106
100
AcDbVertex
100
AcDb2dVertex
 10
69.78872332213311
 20
-83.85016542907438
 30
0.0
  0
VERTEX
  5
16F
330
16A
100
AcDbEntity
  8
Layer 1
 62
   250
420
  2301728
370
   106
100
AcDbVertex
100
AcDb2dVertex
 10
69.78872332213311
 20
-73.85014906899414
 30
0.0
  0
VERTEX
  5
170
330
16A
100
AcDbEntity
  8
Layer 1
 62
   250
420
  2301728
370
   106
100
AcDbVertex
100
AcDb2dVertex
 10
68.78874924690714
 20
-72.37767983626374
 30
0.0
  0
VERTEX
  5
171
330
16A
100
AcDbEntity
  8
Layer 1
 62
   250
420
  2301728
370
   106
100
AcDbVertex
100
AcDb2dVertex
 10
67.78870626972602
 20
-73.85014906899414
 30
0.0
  0
SEQEND
  5
172
330
16A
100
AcDbEntity
  8
Layer 1
370
   106
  0
ENDBLK
  5
169
330
166
100
AcDbEntity
  8
0
100
AcDbBlockEnd
  0
BLOCK
  5
175
330
173
100
AcDbEntity
  8
0
100
AcDbBlockBegin
  2
block 27
 70
     0
 71
     0
 10
0.0
 20
0.0
 30
0.0
  3
block 27
  1

  0
POLYLINE
  5
177
330
173
100
AcDbEntity
  8
Layer 1
 62
   250
420
  2301728
370
   106
100
AcDb2dPolyline
 66
     1
 10
0.0
 20
0.0
 30
0.0
  0
VERTEX
  5
178
330
177
100
AcDbEntity
  8
Layer 1
 62
   250
420
  2301728
370
   106
100
AcDbVertex
100
AcDb2dVertex
 10
66.3162714879732
 20
-84.32255723364608
 30
0.0
  0
VERTEX
  5
179
330
177
100
AcDbEntity
  8
Layer 1
 62
   250
420
  2301728
370
   106
100
AcDbVertex
100
AcDb2dVertex
 10
56.31625512789297
 20
-84.32255723364608
 30
0.0
  0
VERTEX
  5
17A
330
177
100
AcDbEntity
  8
Layer 1
 62
   250
420
  2301728
370
   106
100
AcDbVertex
100
AcDb2dVertex
 10
54.84382034614014
 20
-85.3226002108272
 30
0.0
  0
VERTEX
  5
17B
330
177
100
AcDbEntity
  8
Layer 1
 62
   250
420
  2301728
370
   106
100
AcDbVertex
100
AcDb2dVertex
 10
56.31625512789297
 20
-86.32257428605315
 30
0.0
  0
VERTEX
  5
17C
330
177
100
AcDbEntity
  8
Layer 1
 62
   250
420
  2301728
370
   106
100
AcDbVertex
100
AcDb2dVertex
 10
66.3162714879732
 20
-86.32257428605315
 30
0.0
  0
VERTEX
  5
17D
330
177
100
AcDbEntity
  8
Layer 1
 62
   250
420
  2301728
370
   106
100
AcDbVertex
100
AcDb2dVertex
 10
67.78870626972602
 20
-85.3226002108272
 30
0.0
  0
VERTEX
  5
17E
330
177
100
AcDbEntity
  8
Layer 1
 62
   250
420
  2301728
370
   106
100
AcDbVertex
100
AcDb2dVertex
 10
66.3162714879732
 20
-84.32255723364608
 30
0.0
  0
SEQEND
  5
17F
330
177
100
AcDbEntity
  8
Layer 1
370
   106
  0
ENDBLK
  5
176
330
173
100
AcDbEntity
  8
0
100
AcDbBlockEnd
  0
BLOCK
  5
182
330
180
100
AcDbEntity
  8
0
100
AcDbBlockBegin
  2
block 28
 70
     0
 71
     0
 10
0.0
 20
0.0
 30
0.0
  3
block 28
  1

  0
INSERT
  5
185
330
180
100
AcDbEntity
  8
Layer 1
100
AcDbBlockReference
  2
block 29
 10
0.0
 20
0.0
 30
0.0
  0
INSERT
  5
192
330
180
100
AcDbEntity
  8
Layer 1
100
AcDbBlockReference
  2
block 30
 10
0.0
 20
0.0
 30
0.0
  0
INSERT
  5
19F
330
180
100
AcDbEntity
  8
Layer 1
100
AcDbBlockReference
  2
block 31
 10
0.0
 20
0.0
 30
0.0
  0
INSERT
  5
1AC
330
180
100
AcDbEntity
  8
Layer 1
100
AcDbBlockReference
  2
block 32
 10
0.0
 20
0.0
 30
0.0
  0
INSERT
  5
1B9
330
180
100
AcDbEntity
  8
Layer 1
100
AcDbBlockReference
  2
block 33
 10
0.0
 20
0.0
 30
0.0
  0
INSERT
  5
1C6
330
180
100
AcDbEntity
  8
Layer 1
100
AcDbBlockReference
  2
block 34
 10
0.0
 20
0.0
 30
0.0
  0
INSERT
  5
1D3
330
180
100
AcDbEntity
  8
Layer 1
100
AcDbBlockReference
  2
block 35
 10
0.0
 20
0.0
 30
0.0
  0
ENDBLK
  5
183
330
180
100
AcDbEntity
  8
0
100
AcDbBlockEnd
  0
BLOCK
  5
186
330
184
100
AcDbEntity
  8
0
100
AcDbBlockBegin
  2
block 29
 70
     0
 71
     0
 10
0.0
 20
0.0
 30
0.0
  3
block 29
  1

  0
POLYLINE
  5
188
330
184
100
AcDbEntity
  8
Layer 1
 62
   250
420
  2301728
370
   106
100
AcDb2dPolyline
 66
     1
 10
0.0
 20
0.0
 30
0.0
  0
VERTEX
  5
189
330
188
100
AcDbEntity
  8
Layer 1
 62
   250
420
  2301728
370
   106
100
AcDbVertex
100
AcDb2dVertex
 10
30.51829513597088
 20
-60.88238769629539
 30
0.0
  0
VERTEX
  5
18A
330
188
100
AcDbEntity
  8
Layer 1
 62
   250
420
  2301728
370
   106
100
AcDbVertex
100
AcDb2dVertex
 10
30.51829513597088
 20
-70.88240405637562
 30
0.0
  0
VERTEX
  5
18B
330
188
100
AcDbEntity
  8
Layer 1
 62
   250
420
  2301728
370
   106
100
AcDbVertex
100
AcDb2dVertex
 10
31.51833811315199
 20
-72.35483883812844
 30
0.0
  0
VERTEX
  5
18C
330
188
100
AcDbEntity
  8
Layer 1
 62
   250
420
  2301728
370
   106
100
AcDbVertex
100
AcDb2dVertex
 10
32.51831218837795
 20
-70.88240405637562
 30
0.0
  0
VERTEX
  5
18D
330
188
100
AcDbEntity
  8
Layer 1
 62
   250
420
  2301728
370
   106
100
AcDbVertex
100
AcDb2dVertex
 10
32.51831218837795
 20
-60.88238769629539
 30
0.0
  0
VERTEX
  5
18E
330
188
100
AcDbEntity
  8
Layer 1
 62
   250
420
  2301728
370
   106
100
AcDbVertex
100
AcDb2dVertex
 10
31.51833811315199
 20
-59.40995291454256
 30
0.0
  0
VERTEX
  5
18F
330
188
100
AcDbEntity
  8
Layer 1
 62
   250
420
  2301728
370
   106
100
AcDbVertex
100
AcDb2dVertex
 10
30.51829513597088
 20
-60.88238769629539
 30
0.0
  0
SEQEND
  5
190
330
188
100
AcDbEntity
  8
Layer 1
370
   106
  0
ENDBLK
  5
187
330
184
100
AcDbEntity
  8
0
100
AcDbBlockEnd
  0
BLOCK
  5
193
330
191
100
AcDbEntity
  8
0
100
AcDbBlockBegin
  2
block 30
 70
     0
 71
     0
 10
0.0
 20
0.0
 30
0.0
  3
block 30
  1

  0
POLYLINE
  5
195
330
191
100
AcDbEntity
  8
Layer 1
 62
   250
420
  2301728
370
   106
100
AcDb2dPolyline
 66
     1
 10
0.0
 20
0.0
 30
0.0
  0
VERTEX
  5
196
330
195
100
AcDbEntity
  8
Layer 1
 62
   250
420
  2301728
370
   106
100
AcDbVertex
100
AcDb2dVertex
 10
43.99076333021102
 20
-58.40994438833903
 30
0.0
  0
VERTEX
  5
197
330
195
100
AcDbEntity
  8
Layer 1
 62
   250
420
  2301728
370
   106
100
AcDbVertex
100
AcDb2dVertex
 10
33.99074697013078
 20
-58.40994438833903
 30
0.0
  0
VERTEX
  5
198
330
195
100
AcDbEntity
  8
Layer 1
 62
   250
420
  2301728
370
   106
100
AcDbVertex
100
AcDb2dVertex
 10
32.51831218837795
 20
-59.40995291454256
 30
0.0
  0
VERTEX
  5
199
330
195
100
AcDbEntity
  8
Layer 1
 62
   250
420
  2301728
370
   106
100
AcDbVertex
100
AcDb2dVertex
 10
33.99074697013078
 20
-60.4099614407461
 30
0.0
  0
VERTEX
  5
19A
330
195
100
AcDbEntity
  8
Layer 1
 62
   250
420
  2301728
370
   106
100
AcDbVertex
100
AcDb2dVertex
 10
43.99076333021102
 20
-60.4099614407461
 30
0.0
  0
VERTEX
  5
19B
330
195
100
AcDbEntity
  8
Layer 1
 62
   250
420
  2301728
370
   106
100
AcDbVertex
100
AcDb2dVertex
 10
45.46319811196384
 20
-59.40995291454256
 30
0.0
  0
VERTEX
  5
19C
330
195
100
AcDbEntity
  8
Layer 1
 62
   250
420
  2301728
370
   106
100
AcDbVertex
100
AcDb2dVertex
 10
43.99076333021102
 20
-58.40994438833903
 30
0.0
  0
SEQEND
  5
19D
330
195
100
AcDbEntity
  8
Layer 1
370
   106
  0
ENDBLK
  5
194
330
191
100
AcDbEntity
  8
0
100
AcDbBlockEnd
  0
BLOCK
  5
1A0
330
19E
100
AcDbEntity
  8
0
100
AcDbBlockBegin
  2
block 31
 70
     0
 71
     0
 10
0.0
 20
0.0
 30
0.0
  3
block 31
  1

  0
POLYLINE
  5
1A2
330
19E
100
AcDbEntity
  8
Layer 1
 62
   250
420
  2301728
370
   106
100
AcDb2dPolyline
 66
     1
 10
0.0
 20
0.0
 30
0.0
  0
VERTEX
  5
1A3
330
1A2
100
AcDbEntity
  8
Layer 1
 62
   250
420
  2301728
370
   106
100
AcDbVertex
100
AcDb2dVertex
 10
45.46319811196384
 20
-60.88242214727297
 30
0.0
  0
VERTEX
  5
1A4
330
1A2
100
AcDbEntity
  8
Layer 1
 62
   250
420
  2301728
370
   106
100
AcDbVertex
100
AcDb2dVertex
 10
45.46319811196384
 20
-70.88240405637562
 30
0.0
  0
VERTEX
  5
1A5
330
1A2
100
AcDbEntity
  8
Layer 1
 62
   250
420
  2301728
370
   106
100
AcDbVertex
100
AcDb2dVertex
 10
46.46324108914496
 20
-72.35487328910602
 30
0.0
  0
VERTEX
  5
1A6
330
1A2
100
AcDbEntity
  8
Layer 1
 62
   250
420
  2301728
370
   106
100
AcDbVertex
100
AcDb2dVertex
 10
47.46321516437092
 20
-70.88240405637562
 30
0.0
  0
VERTEX
  5
1A7
330
1A2
100
AcDbEntity
  8
Layer 1
 62
   250
420
  2301728
370
   106
100
AcDbVertex
100
AcDb2dVertex
 10
47.46321516437092
 20
-60.88242214727297
 30
0.0
  0
VERTEX
  5
1A8
330
1A2
100
AcDbEntity
  8
Layer 1
 62
   250
420
  2301728
370
   106
100
AcDbVertex
100
AcDb2dVertex
 10
46.46324108914496
 20
-59.40995291454256
 30
0.0
  0
VERTEX
  5
1A9
330
1A2
100
AcDbEntity
  8
Layer 1
 62
   250
420
  2301728
370
   106
100
AcDbVertex
100
AcDb2dVertex
 10
45.46319811196384
 20
-60.88242214727297
 30
0.0
  0
SEQEND
  5
1AA
330
1A2
100
AcDbEntity
  8
Layer 1
370
   106
  0
ENDBLK
  5
1A1
330
19E
100
AcDbEntity
  8
0
100
AcDbBlockEnd
  0
BLOCK
  5
1AD
330
1AB
100
AcDbEntity
  8
0
100
AcDbBlockBegin
  2
block 32
 70
     0
 71
     0
 10
0.0
 20
0.0
 30
0.0
  3
block 32
  1

  0
POLYLINE
  5
1AF
330
1AB
100
AcDbEntity
  8
Layer 1
 62
   250
420
  2301728
370
   106
100
AcDb2dPolyline
 66
     1
 10
0.0
 20
0.0
 30
0.0
  0
VERTEX
  5
1B0
330
1AF
100
AcDbEntity
  8
Layer 1
 62
   250
420
  2301728
370
   106
100
AcDbVertex
100
AcDb2dVertex
 10
43.99076333021102
 20
-71.3548647629025
 30
0.0
  0
VERTEX
  5
1B1
330
1AF
100
AcDbEntity
  8
Layer 1
 62
   250
420
  2301728
370
   106
100
AcDbVertex
100
AcDb2dVertex
 10
33.99074697013078
 20
-71.3548647629025
 30
0.0
  0
VERTEX
  5
1B2
330
1AF
100
AcDbEntity
  8
Layer 1
 62
   250
420
  2301728
370
   106
100
AcDbVertex
100
AcDb2dVertex
 10
32.51831218837795
 20
-72.35483883812844
 30
0.0
  0
VERTEX
  5
1B3
330
1AF
100
AcDbEntity
  8
Layer 1
 62
   250
420
  2301728
370
   106
100
AcDbVertex
100
AcDb2dVertex
 10
33.99074697013078
 20
-73.35488181530957
 30
0.0
  0
VERTEX
  5
1B4
330
1AF
100
AcDbEntity
  8
Layer 1
 62
   250
420
  2301728
370
   106
100
AcDbVertex
100
AcDb2dVertex
 10
43.99076333021102
 20
-73.35488181530957
 30
0.0
  0
VERTEX
  5
1B5
330
1AF
100
AcDbEntity
  8
Layer 1
 62
   250
420
  2301728
370
   106
100
AcDbVertex
100
AcDb2dVertex
 10
45.46319811196384
 20
-72.35483883812844
 30
0.0
  0
VERTEX
  5
1B6
330
1AF
100
AcDbEntity
  8
Layer 1
 62
   250
420
  2301728
370
   106
100
AcDbVertex
100
AcDb2dVertex
 10
43.99076333021102
 20
-71.3548647629025
 30
0.0
  0
SEQEND
  5
1B7
330
1AF
100
AcDbEntity
  8
Layer 1
370
   106
  0
ENDBLK
  5
1AE
330
1AB
100
AcDbEntity
  8
0
100
AcDbBlockEnd
  0
BLOCK
  5
1BA
330
1B8
100
AcDbEntity
  8
0
100
AcDbBlockBegin
  2
block 33
 70
     0
 71
     0
 10
0.0
 20
0.0
 30
0.0
  3
block 33
  1

  0
POLYLINE
  5
1BC
330
1B8
100
AcDbEntity
  8
Layer 1
 62
   250
420
  2301728
370
   106
100
AcDb2dPolyline
 66
     1
 10
0.0
 20
0.0
 30
0.0
  0
VERTEX
  5
1BD
330
1BC
100
AcDbEntity
  8
Layer 1
 62
   250
420
  2301728
370
   106
100
AcDbVertex
100
AcDb2dVertex
 10
30.51829513597088
 20
-73.82734252183643
 30
0.0
  0
VERTEX
  5
1BE
330
1BC
100
AcDbEntity
  8
Layer 1
 62
   250
420
  2301728
370
   106
100
AcDbVertex
100
AcDb2dVertex
 10
30.51829513597088
 20
-83.8272899799615
 30
0.0
  0
VERTEX
  5
1BF
330
1BC
100
AcDbEntity
  8
Layer 1
 62
   250
420
  2301728
370
   106
100
AcDbVertex
100
AcDb2dVertex
 10
31.51833811315199
 20
-85.29979366366949
 30
0.0
  0
VERTEX
  5
1C0
330
1BC
100
AcDbEntity
  8
Layer 1
 62
   250
420
  2301728
370
   106
100
AcDbVertex
100
AcDb2dVertex
 10
32.51831218837795
 20
-83.8272899799615
 30
0.0
  0
VERTEX
  5
1C1
330
1BC
100
AcDbEntity
  8
Layer 1
 62
   250
420
  2301728
370
   106
100
AcDbVertex
100
AcDb2dVertex
 10
32.51831218837795
 20
-73.82734252183643
 30
0.0
  0
VERTEX
  5
1C2
330
1BC
100
AcDbEntity
  8
Layer 1
 62
   250
420
  2301728
370
   106
100
AcDbVertex
100
AcDb2dVertex
 10
31.51833811315199
 20
-72.35483883812844
 30
0.0
  0
VERTEX
  5
1C3
330
1BC
100
AcDbEntity
  8
Layer 1
 62
   250
420
  2301728
370
   106
100
AcDbVertex
100
AcDb2dVertex
 10
30.51829513597088
 20
-73.82734252183643
 30
0.0
  0
SEQEND
  5
1C4
330
1BC
100
AcDbEntity
  8
Layer 1
370
   106
  0
ENDBLK
  5
1BB
330
1B8
100
AcDbEntity
  8
0
100
AcDbBlockEnd
  0
BLOCK
  5
1C7
330
1C5
100
AcDbEntity
  8
0
100
AcDbBlockBegin
  2
block 34
 70
     0
 71
     0
 10
0.0
 20
0.0
 30
0.0
  3
block 34
  1

  0
POLYLINE
  5
1C9
330
1C5
100
AcDbEntity
  8
Layer 1
 62
   250
420
  2301728
370
   106
100
AcDb2dPolyline
 66
     1
 10
0.0
 20
0.0
 30
0.0
  0
VERTEX
  5
1CA
330
1C9
100
AcDbEntity
  8
Layer 1
 62
   250
420
  2301728
370
   106
100
AcDbVertex
100
AcDb2dVertex
 10
45.46319811196384
 20
-73.82734252183643
 30
0.0
  0
VERTEX
  5
1CB
330
1C9
100
AcDbEntity
  8
Layer 1
 62
   250
420
  2301728
370
   106
100
AcDbVertex
100
AcDb2dVertex
 10
45.46319811196384
 20
-83.82735888191667
 30
0.0
  0
VERTEX
  5
1CC
330
1C9
100
AcDbEntity
  8
Layer 1
 62
   250
420
  2301728
370
   106
100
AcDbVertex
100
AcDb2dVertex
 10
46.46324108914496
 20
-85.29979366366949
 30
0.0
  0
VERTEX
  5
1CD
330
1C9
100
AcDbEntity
  8
Layer 1
 62
   250
420
  2301728
370
   106
100
AcDbVertex
100
AcDb2dVertex
 10
47.46321516437092
 20
-83.82735888191667
 30
0.0
  0
VERTEX
  5
1CE
330
1C9
100
AcDbEntity
  8
Layer 1
 62
   250
420
  2301728
370
   106
100
AcDbVertex
100
AcDb2dVertex
 10
47.46321516437092
 20
-73.82734252183643
 30
0.0
  0
VERTEX
  5
1CF
330
1C9
100
AcDbEntity
  8
Layer 1
 62
   250
420
  2301728
370
   106
100
AcDbVertex
100
AcDb2dVertex
 10
46.46324108914496
 20
-72.35487328910602
 30
0.0
  0
VERTEX
  5
1D0
330
1C9
100
AcDbEntity
  8
Layer 1
 62
   250
420
  2301728
370
   106
100
AcDbVertex
100
AcDb2dVertex
 10
45.46319811196384
 20
-73.82734252183643
 30
0.0
  0
SEQEND
  5
1D1
330
1C9
100
AcDbEntity
  8
Layer 1
370
   106
  0
ENDBLK
  5
1C8
330
1C5
100
AcDbEntity
  8
0
100
AcDbBlockEnd
  0
BLOCK
  5
1D4
330
1D2
100
AcDbEntity
  8
0
100
AcDbBlockBegin
  2
block 35
 70
     0
 71
     0
 10
0.0
 20
0.0
 30
0.0
  3
block 35
  1

  0
POLYLINE
  5
1D6
330
1D2
100
AcDbEntity
  8
Layer 1
 62
   250
420
  2301728
370
   106
100
AcDb2dPolyline
 66
     1
 10
0.0
 20
0.0
 30
0.0
  0
VERTEX
  5
1D7
330
1D6
100
AcDbEntity
  8
Layer 1
 62
   250
420
  2301728
370
   106
100
AcDbVertex
100
AcDb2dVertex
 10
43.99076333021102
 20
-84.29975068648838
 30
0.0
  0
VERTEX
  5
1D8
330
1D6
100
AcDbEntity
  8
Layer 1
 62
   250
420
  2301728
370
   106
100
AcDbVertex
100
AcDb2dVertex
 10
33.99074697013078
 20
-84.29975068648838
 30
0.0
  0
VERTEX
  5
1D9
330
1D6
100
AcDbEntity
  8
Layer 1
 62
   250
420
  2301728
370
   106
100
AcDbVertex
100
AcDb2dVertex
 10
32.51831218837795
 20
-85.29979366366949
 30
0.0
  0
VERTEX
  5
1DA
330
1D6
100
AcDbEntity
  8
Layer 1
 62
   250
420
  2301728
370
   106
100
AcDbVertex
100
AcDb2dVertex
 10
33.99074697013078
 20
-86.29976773889545
 30
0.0
  0
VERTEX
  5
1DB
330
1D6
100
AcDbEntity
  8
Layer 1
 62
   250
420
  2301728
370
   106
100
AcDbVertex
100
AcDb2dVertex
 10
43.99076333021102
 20
-86.29976773889545
 30
0.0
  0
VERTEX
  5
1DC
330
1D6
100
AcDbEntity
  8
Layer 1
 62
   250
420
  2301728
370
   106
100
AcDbVertex
100
AcDb2dVertex
 10
45.46319811196384
 20
-85.29979366366949
 30
0.0
  0
VERTEX
  5
1DD
330
1D6
100
AcDbEntity
  8
Layer 1
 62
   250
420
  2301728
370
   106
100
AcDbVertex
100
AcDb2dVertex
 10
43.99076333021102
 20
-84.29975068648838
 30
0.0
  0
SEQEND
  5
1DE
330
1D6
100
AcDbEntity
  8
Layer 1
370
   106
  0
ENDBLK
  5
1D5
330
1D2
100
AcDbEntity
  8
0
100
AcDbBlockEnd
  0
BLOCK
  5
1E1
330
1DF
100
AcDbEntity
  8
0
100
AcDbBlockBegin
  2
block 36
 70
     0
 71
     0
 10
0.0
 20
0.0
 30
0.0
  3
block 36
  1

  0
INSERT
  5
1E4
330
1DF
100
AcDbEntity
  8
Layer 1
100
AcDbBlockReference
  2
block 37
 10
0.0
 20
0.0
 30
0.0
  0
INSERT
  5
1F1
330
1DF
100
AcDbEntity
  8
Layer 1
100
AcDbBlockReference
  2
block 38
 10
0.0
 20
0.0
 30
0.0
  0
INSERT
  5
1FE
330
1DF
100
AcDbEntity
  8
Layer 1
100
AcDbBlockReference
  2
block 39
 10
0.0
 20
0.0
 30
0.0
  0
INSERT
  5
20B
330
1DF
100
AcDbEntity
  8
Layer 1
100
AcDbBlockReference
  2
block 40
 10
0.0
 20
0.0
 30
0.0
  0
INSERT
  5
218
330
1DF
100
AcDbEntity
  8
Layer 1
100
AcDbBlockReference
  2
block 41
 10
0.0
 20
0.0
 30
0.0
  0
INSERT
  5
225
330
1DF
100
AcDbEntity
  8
Layer 1
100
AcDbBlockReference
  2
block 42
 10
0.0
 20
0.0
 30
0.0
  0
INSERT
  5
232
330
1DF
100
AcDbEntity
  8
Layer 1
100
AcDbBlockReference
  2
block 43
 10
0.0
 20
0.0
 30
0.0
  0
ENDBLK
  5
1E2
330
1DF
100
AcDbEntity
  8
0
100
AcDbBlockEnd
  0
BLOCK
  5
1E5
330
1E3
100
AcDbEntity
  8
0
100
AcDbBlockBegin
  2
block 37
 70
     0
 71
     0
 10
0.0
 20
0.0
 30
0.0
  3
block 37
  1

  0
POLYLINE
  5
1E7
330
1E3
100
AcDbEntity
  8
Layer 1
 62
   250
420
  2301728
370
   106
100
AcDb2dPolyline
 66
     1
 10
0.0
 20
0.0
 30
0.0
  0
VERTEX
  5
1E8
330
1E7
100
AcDbEntity
  8
Layer 1
 62
   250
420
  2301728
370
   106
100
AcDbVertex
100
AcDb2dVertex
 10
7.870773690772012
 20
-60.88231879434023
 30
0.0
  0
VERTEX
  5
1E9
330
1E7
100
AcDbEntity
  8
Layer 1
 62
   250
420
  2301728
370
   106
100
AcDbVertex
100
AcDb2dVertex
 10
7.870773690772012
 20
-70.88233515442046
 30
0.0
  0
VERTEX
  5
1EA
330
1E7
100
AcDbEntity
  8
Layer 1
 62
   250
420
  2301728
370
   106
100
AcDbVertex
100
AcDb2dVertex
 10
8.87081666795313
 20
-72.35476993617328
 30
0.0
  0
VERTEX
  5
1EB
330
1E7
100
AcDbEntity
  8
Layer 1
 62
   250
420
  2301728
370
   106
100
AcDbVertex
100
AcDb2dVertex
 10
9.870790743179091
 20
-70.88233515442046
 30
0.0
  0
VERTEX
  5
1EC
330
1E7
100
AcDbEntity
  8
Layer 1
 62
   250
420
  2301728
370
   106
100
AcDbVertex
100
AcDb2dVertex
 10
9.870790743179091
 20
-60.88231879434023
 30
0.0
  0
VERTEX
  5
1ED
330
1E7
100
AcDbEntity
  8
Layer 1
 62
   250
420
  2301728
370
   106
100
AcDbVertex
100
AcDb2dVertex
 10
8.87081666795313
 20
-59.4098840125874
 30
0.0
  0
VERTEX
  5
1EE
330
1E7
100
AcDbEntity
  8
Layer 1
 62
   250
420
  2301728
370
   106
100
AcDbVertex
100
AcDb2dVertex
 10
7.870773690772012
 20
-60.88231879434023
 30
0.0
  0
SEQEND
  5
1EF
330
1E7
100
AcDbEntity
  8
Layer 1
370
   106
  0
ENDBLK
  5
1E6
330
1E3
100
AcDbEntity
  8
0
100
AcDbBlockEnd
  0
BLOCK
  5
1F2
330
1F0
100
AcDbEntity
  8
0
100
AcDbBlockBegin
  2
block 38
 70
     0
 71
     0
 10
0.0
 20
0.0
 30
0.0
  3
block 38
  1

  0
POLYLINE
  5
1F4
330
1F0
100
AcDbEntity
  8
Layer 1
 62
   250
420
  2301728
370
   106
100
AcDb2dPolyline
 66
     1
 10
0.0
 20
0.0
 30
0.0
  0
VERTEX
  5
1F5
330
1F4
100
AcDbEntity
  8
Layer 1
 62
   250
420
  2301728
370
   106
100
AcDbVertex
100
AcDb2dVertex
 10
21.34324188501215
 20
-58.40987548638387
 30
0.0
  0
VERTEX
  5
1F6
330
1F4
100
AcDbEntity
  8
Layer 1
 62
   250
420
  2301728
370
   106
100
AcDbVertex
100
AcDb2dVertex
 10
11.34322552493192
 20
-58.40987548638387
 30
0.0
  0
VERTEX
  5
1F7
330
1F4
100
AcDbEntity
  8
Layer 1
 62
   250
420
  2301728
370
   106
100
AcDbVertex
100
AcDb2dVertex
 10
9.870790743179091
 20
-59.4098840125874
 30
0.0
  0
VERTEX
  5
1F8
330
1F4
100
AcDbEntity
  8
Layer 1
 62
   250
420
  2301728
370
   106
100
AcDbVertex
100
AcDb2dVertex
 10
11.34322552493192
 20
-60.40989253879094
 30
0.0
  0
VERTEX
  5
1F9
330
1F4
100
AcDbEntity
  8
Layer 1
 62
   250
420
  2301728
370
   106
100
AcDbVertex
100
AcDb2dVertex
 10
21.34324188501215
 20
-60.40989253879094
 30
0.0
  0
VERTEX
  5
1FA
330
1F4
100
AcDbEntity
  8
Layer 1
 62
   250
420
  2301728
370
   106
100
AcDbVertex
100
AcDb2dVertex
 10
22.81567666676498
 20
-59.4098840125874
 30
0.0
  0
VERTEX
  5
1FB
330
1F4
100
AcDbEntity
  8
Layer 1
 62
   250
420
  2301728
370
   106
100
AcDbVertex
100
AcDb2dVertex
 10
21.34324188501215
 20
-58.40987548638387
 30
0.0
  0
SEQEND
  5
1FC
330
1F4
100
AcDbEntity
  8
Layer 1
370
   106
  0
ENDBLK
  5
1F3
330
1F0
100
AcDbEntity
  8
0
100
AcDbBlockEnd
  0
BLOCK
  5
1FF
330
1FD
100
AcDbEntity
  8
0
100
AcDbBlockBegin
  2
block 39
 70
     0
 71
     0
 10
0.0
 20
0.0
 30
0.0
  3
block 39
  1

  0
POLYLINE
  5
201
330
1FD
100
AcDbEntity
  8
Layer 1
 62
   250
420
  2301728
370
   106
100
AcDb2dPolyline
 66
     1
 10
0.0
 20
0.0
 30
0.0
  0
VERTEX
  5
202
330
201
100
AcDbEntity
  8
Layer 1
 62
   250
420
  2301728
370
   106
100
AcDbVertex
100
AcDb2dVertex
 10
22.81567666676498
 20
-60.88235324531781
 30
0.0
  0
VERTEX
  5
203
330
201
100
AcDbEntity
  8
Layer 1
 62
   250
420
  2301728
370
   106
100
AcDbVertex
100
AcDb2dVertex
 10
22.81567666676498
 20
-70.88233515442046
 30
0.0
  0
VERTEX
  5
204
330
201
100
AcDbEntity
  8
Layer 1
 62
   250
420
  2301728
370
   106
100
AcDbVertex
100
AcDb2dVertex
 10
23.81571964394609
 20
-72.35480438715086
 30
0.0
  0
VERTEX
  5
205
330
201
100
AcDbEntity
  8
Layer 1
 62
   250
420
  2301728
370
   106
100
AcDbVertex
100
AcDb2dVertex
 10
24.81569371917205
 20
-70.88233515442046
 30
0.0
  0
VERTEX
  5
206
330
201
100
AcDbEntity
  8
Layer 1
 62
   250
420
  2301728
370
   106
100
AcDbVertex
100
AcDb2dVertex
 10
24.81569371917205
 20
-60.88235324531781
 30
0.0
  0
VERTEX
  5
207
330
201
100
AcDbEntity
  8
Layer 1
 62
   250
420
  2301728
370
   106
100
AcDbVertex
100
AcDb2dVertex
 10
23.81571964394609
 20
-59.4098840125874
 30
0.0
  0
VERTEX
  5
208
330
201
100
AcDbEntity
  8
Layer 1
 62
   250
420
  2301728
370
   106
100
AcDbVertex
100
AcDb2dVertex
 10
22.81567666676498
 20
-60.88235324531781
 30
0.0
  0
SEQEND
  5
209
330
201
100
AcDbEntity
  8
Layer 1
370
   106
  0
ENDBLK
  5
200
330
1FD
100
AcDbEntity
  8
0
100
AcDbBlockEnd
  0
BLOCK
  5
20C
330
20A
100
AcDbEntity
  8
0
100
AcDbBlockBegin
  2
block 40
 70
     0
 71
     0
 10
0.0
 20
0.0
 30
0.0
  3
block 40
  1

  0
POLYLINE
  5
20E
330
20A
100
AcDbEntity
  8
Layer 1
 62
   250
420
  2301728
370
   106
100
AcDb2dPolyline
 66
     1
 10
0.0
 20
0.0
 30
0.0
  0
VERTEX
  5
20F
330
20E
100
AcDbEntity
  8
Layer 1
 62
   250
420
  2301728
370
   106
100
AcDbVertex
100
AcDb2dVertex
 10
21.34324188501215
 20
-71.35479586094733
 30
0.0
  0
VERTEX
  5
210
330
20E
100
AcDbEntity
  8
Layer 1
 62
   250
420
  2301728
370
   106
100
AcDbVertex
100
AcDb2dVertex
 10
11.34322552493192
 20
-71.35479586094733
 30
0.0
  0
VERTEX
  5
211
330
20E
100
AcDbEntity
  8
Layer 1
 62
   250
420
  2301728
370
   106
100
AcDbVertex
100
AcDb2dVertex
 10
9.870790743179091
 20
-72.35476993617328
 30
0.0
  0
VERTEX
  5
212
330
20E
100
AcDbEntity
  8
Layer 1
 62
   250
420
  2301728
370
   106
100
AcDbVertex
100
AcDb2dVertex
 10
11.34322552493192
 20
-73.35481291335441
 30
0.0
  0
VERTEX
  5
213
330
20E
100
AcDbEntity
  8
Layer 1
 62
   250
420
  2301728
370
   106
100
AcDbVertex
100
AcDb2dVertex
 10
21.34324188501215
 20
-73.35481291335441
 30
0.0
  0
VERTEX
  5
214
330
20E
100
AcDbEntity
  8
Layer 1
 62
   250
420
  2301728
370
   106
100
AcDbVertex
100
AcDb2dVertex
 10
22.81567666676498
 20
-72.35476993617328
 30
0.0
  0
VERTEX
  5
215
330
20E
100
AcDbEntity
  8
Layer 1
 62
   250
420
  2301728
370
   106
100
AcDbVertex
100
AcDb2dVertex
 10
21.34324188501215
 20
-71.35479586094733
 30
0.0
  0
SEQEND
  5
216
330
20E
100
AcDbEntity
  8
Layer 1
370
   106
  0
ENDBLK
  5
20D
330
20A
100
AcDbEntity
  8
0
100
AcDbBlockEnd
  0
BLOCK
  5
219
330
217
100
AcDbEntity
  8
0
100
AcDbBlockBegin
  2
block 41
 70
     0
 71
     0
 10
0.0
 20
0.0
 30
0.0
  3
block 41
  1

  0
POLYLINE
  5
21B
330
217
100
AcDbEntity
  8
Layer 1
 62
   250
420
  2301728
370
   106
100
AcDb2dPolyline
 66
     1
 10
0.0
 20
0.0
 30
0.0
  0
VERTEX
  5
21C
330
21B
100
AcDbEntity
  8
Layer 1
 62
   250
420
  2301728
370
   106
100
AcDbVertex
100
AcDb2dVertex
 10
7.870773690772012
 20
-73.82727361988127
 30
0.0
  0
VERTEX
  5
21D
330
21B
100
AcDbEntity
  8
Layer 1
 62
   250
420
  2301728
370
   106
100
AcDbVertex
100
AcDb2dVertex
 10
7.870773690772012
 20
-83.82722107800635
 30
0.0
  0
VERTEX
  5
21E
330
21B
100
AcDbEntity
  8
Layer 1
 62
   250
420
  2301728
370
   106
100
AcDbVertex
100
AcDb2dVertex
 10
8.87081666795313
 20
-85.29972476171433
 30
0.0
  0
VERTEX
  5
21F
330
21B
100
AcDbEntity
  8
Layer 1
 62
   250
420
  2301728
370
   106
100
AcDbVertex
100
AcDb2dVertex
 10
9.870790743179091
 20
-83.82722107800635
 30
0.0
  0
VERTEX
  5
220
330
21B
100
AcDbEntity
  8
Layer 1
 62
   250
420
  2301728
370
   106
100
AcDbVertex
100
AcDb2dVertex
 10
9.870790743179091
 20
-73.82727361988127
 30
0.0
  0
VERTEX
  5
221
330
21B
100
AcDbEntity
  8
Layer 1
 62
   250
420
  2301728
370
   106
100
AcDbVertex
100
AcDb2dVertex
 10
8.87081666795313
 20
-72.35476993617328
 30
0.0
  0
VERTEX
  5
222
330
21B
100
AcDbEntity
  8
Layer 1
 62
   250
420
  2301728
370
   106
100
AcDbVertex
100
AcDb2dVertex
 10
7.870773690772012
 20
-73.82727361988127
 30
0.0
  0
SEQEND
  5
223
330
21B
100
AcDbEntity
  8
Layer 1
370
   106
  0
ENDBLK
  5
21A
330
217
100
AcDbEntity
  8
0
100
AcDbBlockEnd
  0
BLOCK
  5
226
330
224
100
AcDbEntity
  8
0
100
AcDbBlockBegin
  2
block 42
 70
     0
 71
     0
 10
0.0
 20
0.0
 30
0.0
  3
block 42
  1

  0
POLYLINE
  5
228
330
224
100
AcDbEntity
  8
Layer 1
 62
   250
420
  2301728
370
   106
100
AcDb2dPolyline
 66
     1
 10
0.0
 20
0.0
 30
0.0
  0
VERTEX
  5
229
330
228
100
AcDbEntity
  8
Layer 1
 62
   250
420
  2301728
370
   106
100
AcDbVertex
100
AcDb2dVertex
 10
22.81567666676498
 20
-73.82727361988127
 30
0.0
  0
VERTEX
  5
22A
330
228
100
AcDbEntity
  8
Layer 1
 62
   250
420
  2301728
370
   106
100
AcDbVertex
100
AcDb2dVertex
 10
22.81567666676498
 20
-83.8272899799615
 30
0.0
  0
VERTEX
  5
22B
330
228
100
AcDbEntity
  8
Layer 1
 62
   250
420
  2301728
370
   106
100
AcDbVertex
100
AcDb2dVertex
 10
23.81571964394609
 20
-85.29972476171433
 30
0.0
  0
VERTEX
  5
22C
330
228
100
AcDbEntity
  8
Layer 1
 62
   250
420
  2301728
370
   106
100
AcDbVertex
100
AcDb2dVertex
 10
24.81569371917205
 20
-83.8272899799615
 30
0.0
  0
VERTEX
  5
22D
330
228
100
AcDbEntity
  8
Layer 1
 62
   250
420
  2301728
370
   106
100
AcDbVertex
100
AcDb2dVertex
 10
24.81569371917205
 20
-73.82727361988127
 30
0.0
  0
VERTEX
  5
22E
330
228
100
AcDbEntity
  8
Layer 1
 62
   250
420
  2301728
370
   106
100
AcDbVertex
100
AcDb2dVertex
 10
23.81571964394609
 20
-72.35480438715086
 30
0.0
  0
VERTEX
  5
22F
330
228
100
AcDbEntity
  8
Layer 1
 62
   250
420
  2301728
370
   106
100
AcDbVertex
100
AcDb2dVertex
 10
22.81567666676498
 20
-73.82727361988127
 30
0.0
  0
SEQEND
  5
230
330
228
100
AcDbEntity
  8
Layer 1
370
   106
  0
ENDBLK
  5
227
330
224
100
AcDbEntity
  8
0
100
AcDbBlockEnd
  0
BLOCK
  5
233
330
231
100
AcDbEntity
  8
0
100
AcDbBlockBegin
  2
block 43
 70
     0
 71
     0
 10
0.0
 20
0.0
 30
0.0
  3
block 43
  1

  0
POLYLINE
  5
235
330
231
100
AcDbEntity
  8
Layer 1
 62
   250
420
  2301728
370
   106
100
AcDb2dPolyline
 66
     1
 10
0.0
 20
0.0
 30
0.0
  0
VERTEX
  5
236
330
235
100
AcDbEntity
  8
Layer 1
 62
   250
420
  2301728
370
   106
100
AcDbVertex
100
AcDb2dVertex
 10
21.34324188501215
 20
-84.29968178453322
 30
0.0
  0
VERTEX
  5
237
330
235
100
AcDbEntity
  8
Layer 1
 62
   250
420
  2301728
370
   106
100
AcDbVertex
100
AcDb2dVertex
 10
11.34322552493192
 20
-84.29968178453322
 30
0.0
  0
VERTEX
  5
238
330
235
100
AcDbEntity
  8
Layer 1
 62
   250
420
  2301728
370
   106
100
AcDbVertex
100
AcDb2dVertex
 10
9.870790743179091
 20
-85.29972476171433
 30
0.0
  0
VERTEX
  5
239
330
235
100
AcDbEntity
  8
Layer 1
 62
   250
420
  2301728
370
   106
100
AcDbVertex
100
AcDb2dVertex
 10
11.34322552493192
 20
-86.2996988369403
 30
0.0
  0
VERTEX
  5
23A
330
235
100
AcDbEntity
  8
Layer 1
 62
   250
420
  2301728
370
   106
100
AcDbVertex
100
AcDb2dVertex
 10
21.34324188501215
 20
-86.2996988369403
 30
0.0
  0
VERTEX
  5
23B
330
235
100
AcDbEntity
  8
Layer 1
 62
   250
420
  2301728
370
   106
100
AcDbVertex
100
AcDb2dVertex
 10
22.81567666676498
 20
-85.29972476171433
 30
0.0
  0
VERTEX
  5
23C
330
235
100
AcDbEntity
  8
Layer 1
 62
   250
420
  2301728
370
   106
100
AcDbVertex
100
AcDb2dVertex
 10
21.34324188501215
 20
-84.29968178453322
 30
0.0
  0
SEQEND
  5
23D
330
235
100
AcDbEntity
  8
Layer 1
370
   106
  0
ENDBLK
  5
234
330
231
100
AcDbEntity
  8
0
100
AcDbBlockEnd
  0
BLOCK
  5
240
330
23E
100
AcDbEntity
  8
0
100
AcDbBlockBegin
  2
block 44
 70
     0
 71
     0
 10
0.0
 20
0.0
 30
0.0
  3
block 44
  1

  0
INSERT
  5
243
330
23E
100
AcDbEntity
  8
Layer 1
100
AcDbBlockReference
  2
block 45
 10
0.0
 20
0.0
 30
0.0
  0
INSERT
  5
250
330
23E
100
AcDbEntity
  8
Layer 1
100
AcDbBlockReference
  2
block 46
 10
0.0
 20
0.0
 30
0.0
  0
INSERT
  5
25D
330
23E
100
AcDbEntity
  8
Layer 1
100
AcDbBlockReference
  2
block 47
 10
0.0
 20
0.0
 30
0.0
  0
INSERT
  5
26A
330
23E
100
AcDbEntity
  8
Layer 1
100
AcDbBlockReference
  2
block 48
 10
0.0
 20
0.0
 30
0.0
  0
INSERT
  5
277
330
23E
100
AcDbEntity
  8
Layer 1
100
AcDbBlockReference
  2
block 49
 10
0.0
 20
0.0
 30
0.0
  0
INSERT
  5
284
330
23E
100
AcDbEntity
  8
Layer 1
100
AcDbBlockReference
  2
block 50
 10
0.0
 20
0.0
 30
0.0
  0
INSERT
  5
291
330
23E
100
AcDbEntity
  8
Layer 1
100
AcDbBlockReference
  2
block 51
 10
0.0
 20
0.0
 30
0.0
  0
ENDBLK
  5
241
330
23E
100
AcDbEntity
  8
0
100
AcDbBlockEnd
  0
BLOCK
  5
244
330
242
100
AcDbEntity
  8
0
100
AcDbBlockBegin
  2
block 45
 70
     0
 71
     0
 10
0.0
 20
0.0
 30
0.0
  3
block 45
  1

  0
POLYLINE
  5
246
330
242
100
AcDbEntity
  8
Layer 1
 62
   250
420
  2301728
370
   106
100
AcDb2dPolyline
 66
     1
 10
0.0
 20
0.0
 30
0.0
  0
VERTEX
  5
247
330
246
100
AcDbEntity
  8
Layer 1
 62
   250
420
  2301728
370
   106
100
AcDbVertex
100
AcDb2dVertex
 10
5.345499808697305
 20
-6.250027450538936
 30
0.0
  0
VERTEX
  5
248
330
246
100
AcDbEntity
  8
Layer 1
 62
   250
420
  2301728
370
   106
100
AcDbVertex
100
AcDb2dVertex
 10
5.345499808697305
 20
-16.25004381061917
 30
0.0
  0
VERTEX
  5
249
330
246
100
AcDbEntity
  8
Layer 1
 62
   250
420
  2301728
370
   106
100
AcDbVertex
100
AcDb2dVertex
 10
6.345542785878424
 20
-17.722478592372
 30
0.0
  0
VERTEX
  5
24A
330
246
100
AcDbEntity
  8
Layer 1
 62
   250
420
  2301728
370
   106
100
AcDbVertex
100
AcDb2dVertex
 10
7.345516861104383
 20
-16.25004381061917
 30
0.0
  0
VERTEX
  5
24B
330
246
100
AcDbEntity
  8
Layer 1
 62
   250
420
  2301728
370
   106
100
AcDbVertex
100
AcDb2dVertex
 10
7.345516861104383
 20
-6.250027450538936
 30
0.0
  0
VERTEX
  5
24C
330
246
100
AcDbEntity
  8
Layer 1
 62
   250
420
  2301728
370
   106
100
AcDbVertex
100
AcDb2dVertex
 10
6.345542785878424
 20
-4.77759266878611
 30
0.0
  0
VERTEX
  5
24D
330
246
100
AcDbEntity
  8
Layer 1
 62
   250
420
  2301728
370
   106
100
AcDbVertex
100
AcDb2dVertex
 10
5.345499808697305
 20
-6.250027450538936
 30
0.0
  0
SEQEND
  5
24E
330
246
100
AcDbEntity
  8
Layer 1
370
   106
  0
ENDBLK
  5
245
330
242
100
AcDbEntity
  8
0
100
AcDbBlockEnd
  0
BLOCK
  5
251
330
24F
100
AcDbEntity
  8
0
100
AcDbBlockBegin
  2
block 46
 70
     0
 71
     0
 10
0.0
 20
0.0
 30
0.0
  3
block 46
  1

  0
POLYLINE
  5
253
330
24F
100
AcDbEntity
  8
Layer 1
 62
   250
420
  2301728
370
   106
100
AcDb2dPolyline
 66
     1
 10
0.0
 20
0.0
 30
0.0
  0
VERTEX
  5
254
330
253
100
AcDbEntity
  8
Layer 1
 62
   250
420
  2301728
370
   106
100
AcDbVertex
100
AcDb2dVertex
 10
18.81796800293744
 20
-3.777584142582571
 30
0.0
  0
VERTEX
  5
255
330
253
100
AcDbEntity
  8
Layer 1
 62
   250
420
  2301728
370
   106
100
AcDbVertex
100
AcDb2dVertex
 10
8.817951642857208
 20
-3.777584142582571
 30
0.0
  0
VERTEX
  5
256
330
253
100
AcDbEntity
  8
Layer 1
 62
   250
420
  2301728
370
   106
100
AcDbVertex
100
AcDb2dVertex
 10
7.345516861104383
 20
-4.77759266878611
 30
0.0
  0
VERTEX
  5
257
330
253
100
AcDbEntity
  8
Layer 1
 62
   250
420
  2301728
370
   106
100
AcDbVertex
100
AcDb2dVertex
 10
8.817951642857208
 20
-5.777601194989649
 30
0.0
  0
VERTEX
  5
258
330
253
100
AcDbEntity
  8
Layer 1
 62
   250
420
  2301728
370
   106
100
AcDbVertex
100
AcDb2dVertex
 10
18.81796800293744
 20
-5.777601194989649
 30
0.0
  0
VERTEX
  5
259
330
253
100
AcDbEntity
  8
Layer 1
 62
   250
420
  2301728
370
   106
100
AcDbVertex
100
AcDb2dVertex
 10
20.29040278469027
 20
-4.77759266878611
 30
0.0
  0
VERTEX
  5
25A
330
253
100
AcDbEntity
  8
Layer 1
 62
   250
420
  2301728
370
   106
100
AcDbVertex
100
AcDb2dVertex
 10
18.81796800293744
 20
-3.777584142582571
 30
0.0
  0
SEQEND
  5
25B
330
253
100
AcDbEntity
  8
Layer 1
370
   106
  0
ENDBLK
  5
252
330
24F
100
AcDbEntity
  8
0
100
AcDbBlockEnd
  0
BLOCK
  5
25E
330
25C
100
AcDbEntity
  8
0
100
AcDbBlockBegin
  2
block 47
 70
     0
 71
     0
 10
0.0
 20
0.0
 30
0.0
  3
block 47
  1

  0
POLYLINE
  5
260
330
25C
100
AcDbEntity
  8
Layer 1
 62
   250
420
  2301728
370
   106
100
AcDb2dPolyline
 66
     1
 10
0.0
 20
0.0
 30
0.0
  0
VERTEX
  5
261
330
260
100
AcDbEntity
  8
Layer 1
 62
   250
420
  2301728
370
   106
100
AcDbVertex
100
AcDb2dVertex
 10
20.29040278469027
 20
-6.250061901516515
 30
0.0
  0
VERTEX
  5
262
330
260
100
AcDbEntity
  8
Layer 1
 62
   250
420
  2301728
370
   106
100
AcDbVertex
100
AcDb2dVertex
 10
20.29040278469027
 20
-16.25004381061917
 30
0.0
  0
VERTEX
  5
263
330
260
100
AcDbEntity
  8
Layer 1
 62
   250
420
  2301728
370
   106
100
AcDbVertex
100
AcDb2dVertex
 10
21.29044576187139
 20
-17.72251304334958
 30
0.0
  0
VERTEX
  5
264
330
260
100
AcDbEntity
  8
Layer 1
 62
   250
420
  2301728
370
   106
100
AcDbVertex
100
AcDb2dVertex
 10
22.29041983709735
 20
-16.25004381061917
 30
0.0
  0
VERTEX
  5
265
330
260
100
AcDbEntity
  8
Layer 1
 62
   250
420
  2301728
370
   106
100
AcDbVertex
100
AcDb2dVertex
 10
22.29041983709735
 20
-6.250061901516515
 30
0.0
  0
VERTEX
  5
266
330
260
100
AcDbEntity
  8
Layer 1
 62
   250
420
  2301728
370
   106
100
AcDbVertex
100
AcDb2dVertex
 10
21.29044576187139
 20
-4.77759266878611
 30
0.0
  0
VERTEX
  5
267
330
260
100
AcDbEntity
  8
Layer 1
 62
   250
420
  2301728
370
   106
100
AcDbVertex
100
AcDb2dVertex
 10
20.29040278469027
 20
-6.250061901516515
 30
0.0
  0
SEQEND
  5
268
330
260
100
AcDbEntity
  8
Layer 1
370
   106
  0
ENDBLK
  5
25F
330
25C
100
AcDbEntity
  8
0
100
AcDbBlockEnd
  0
BLOCK
  5
26B
330
269
100
AcDbEntity
  8
0
100
AcDbBlockBegin
  2
block 48
 70
     0
 71
     0
 10
0.0
 20
0.0
 30
0.0
  3
block 48
  1

  0
POLYLINE
  5
26D
330
269
100
AcDbEntity
  8
Layer 1
 62
   250
420
  2301728
370
   106
100
AcDb2dPolyline
 66
     1
 10
0.0
 20
0.0
 30
0.0
  0
VERTEX
  5
26E
330
26D
100
AcDbEntity
  8
Layer 1
 62
   250
420
  2301728
370
   106
100
AcDbVertex
100
AcDb2dVertex
 10
18.81796800293744
 20
-16.72250451714604
 30
0.0
  0
VERTEX
  5
26F
330
26D
100
AcDbEntity
  8
Layer 1
 62
   250
420
  2301728
370
   106
100
AcDbVertex
100
AcDb2dVertex
 10
8.817951642857208
 20
-16.72250451714604
 30
0.0
  0
VERTEX
  5
270
330
26D
100
AcDbEntity
  8
Layer 1
 62
   250
420
  2301728
370
   106
100
AcDbVertex
100
AcDb2dVertex
 10
7.345516861104383
 20
-17.722478592372
 30
0.0
  0
VERTEX
  5
271
330
26D
100
AcDbEntity
  8
Layer 1
 62
   250
420
  2301728
370
   106
100
AcDbVertex
100
AcDb2dVertex
 10
8.817951642857208
 20
-18.72252156955311
 30
0.0
  0
VERTEX
  5
272
330
26D
100
AcDbEntity
  8
Layer 1
 62
   250
420
  2301728
370
   106
100
AcDbVertex
100
AcDb2dVertex
 10
18.81796800293744
 20
-18.72252156955311
 30
0.0
  0
VERTEX
  5
273
330
26D
100
AcDbEntity
  8
Layer 1
 62
   250
420
  2301728
370
   106
100
AcDbVertex
100
AcDb2dVertex
 10
20.29040278469027
 20
-17.722478592372
 30
0.0
  0
VERTEX
  5
274
330
26D
100
AcDbEntity
  8
Layer 1
 62
   250
420
  2301728
370
   106
100
AcDbVertex
100
AcDb2dVertex
 10
18.81796800293744
 20
-16.72250451714604
 30
0.0
  0
SEQEND
  5
275
330
26D
100
AcDbEntity
  8
Layer 1
370
   106
  0
ENDBLK
  5
26C
330
269
100
AcDbEntity
  8
0
100
AcDbBlockEnd
  0
BLOCK
  5
278
330
276
100
AcDbEntity
  8
0
100
AcDbBlockBegin
  2
block 49
 70
     0
 71
     0
 10
0.0
 20
0.0
 30
0.0
  3
block 49
  1

  0
POLYLINE
  5
27A
330
276
100
AcDbEntity
  8
Layer 1
 62
   250
420
  2301728
370
   106
100
AcDb2dPolyline
 66
     1
 10
0.0
 20
0.0
 30
0.0
  0
VERTEX
  5
27B
330
27A
100
AcDbEntity
  8
Layer 1
 62
   250
420
  2301728
370
   106
100
AcDbVertex
100
AcDb2dVertex
 10
5.345499808697305
 20
-19.19498227607998
 30
0.0
  0
VERTEX
  5
27C
330
27A
100
AcDbEntity
  8
Layer 1
 62
   250
420
  2301728
370
   106
100
AcDbVertex
100
AcDb2dVertex
 10
5.345499808697305
 20
-29.19492973420505
 30
0.0
  0
VERTEX
  5
27D
330
27A
100
AcDbEntity
  8
Layer 1
 62
   250
420
  2301728
370
   106
100
AcDbVertex
100
AcDb2dVertex
 10
6.345542785878424
 20
-30.66743341791304
 30
0.0
  0
VERTEX
  5
27E
330
27A
100
AcDbEntity
  8
Layer 1
 62
   250
420
  2301728
370
   106
100
AcDbVertex
100
AcDb2dVertex
 10
7.345516861104383
 20
-29.19492973420505
 30
0.0
  0
VERTEX
  5
27F
330
27A
100
AcDbEntity
  8
Layer 1
 62
   250
420
  2301728
370
   106
100
AcDbVertex
100
AcDb2dVertex
 10
7.345516861104383
 20
-19.19498227607998
 30
0.0
  0
VERTEX
  5
280
330
27A
100
AcDbEntity
  8
Layer 1
 62
   250
420
  2301728
370
   106
100
AcDbVertex
100
AcDb2dVertex
 10
6.345542785878424
 20
-17.722478592372
 30
0.0
  0
VERTEX
  5
281
330
27A
100
AcDbEntity
  8
Layer 1
 62
   250
420
  2301728
370
   106
100
AcDbVertex
100
AcDb2dVertex
 10
5.345499808697305
 20
-19.19498227607998
 30
0.0
  0
SEQEND
  5
282
330
27A
100
AcDbEntity
  8
Layer 1
370
   106
  0
ENDBLK
  5
279
330
276
100
AcDbEntity
  8
0
100
AcDbBlockEnd
  0
BLOCK
  5
285
330
283
100
AcDbEntity
  8
0
100
AcDbBlockBegin
  2
block 50
 70
     0
 71
     0
 10
0.0
 20
0.0
 30
0.0
  3
block 50
  1

  0
POLYLINE
  5
287
330
283
100
AcDbEntity
  8
Layer 1
 62
   250
420
  2301728
370
   106
100
AcDb2dPolyline
 66
     1
 10
0.0
 20
0.0
 30
0.0
  0
VERTEX
  5
288
330
287
100
AcDbEntity
  8
Layer 1
 62
   250
420
  2301728
370
   106
100
AcDbVertex
100
AcDb2dVertex
 10
20.29040278469027
 20
-19.19498227607998
 30
0.0
  0
VERTEX
  5
289
330
287
100
AcDbEntity
  8
Layer 1
 62
   250
420
  2301728
370
   106
100
AcDbVertex
100
AcDb2dVertex
 10
20.29040278469027
 20
-29.19499863616021
 30
0.0
  0
VERTEX
  5
28A
330
287
100
AcDbEntity
  8
Layer 1
 62
   250
420
  2301728
370
   106
100
AcDbVertex
100
AcDb2dVertex
 10
21.29044576187139
 20
-30.66743341791304
 30
0.0
  0
VERTEX
  5
28B
330
287
100
AcDbEntity
  8
Layer 1
 62
   250
420
  2301728
370
   106
100
AcDbVertex
100
AcDb2dVertex
 10
22.29041983709735
 20
-29.19499863616021
 30
0.0
  0
VERTEX
  5
28C
330
287
100
AcDbEntity
  8
Layer 1
 62
   250
420
  2301728
370
   106
100
AcDbVertex
100
AcDb2dVertex
 10
22.29041983709735
 20
-19.19498227607998
 30
0.0
  0
VERTEX
  5
28D
330
287
100
AcDbEntity
  8
Layer 1
 62
   250
420
  2301728
370
   106
100
AcDbVertex
100
AcDb2dVertex
 10
21.29044576187139
 20
-17.72251304334958
 30
0.0
  0
VERTEX
  5
28E
330
287
100
AcDbEntity
  8
Layer 1
 62
   250
420
  2301728
370
   106
100
AcDbVertex
100
AcDb2dVertex
 10
20.29040278469027
 20
-19.19498227607998
 30
0.0
  0
SEQEND
  5
28F
330
287
100
AcDbEntity
  8
Layer 1
370
   106
  0
ENDBLK
  5
286
330
283
100
AcDbEntity
  8
0
100
AcDbBlockEnd
  0
BLOCK
  5
292
330
290
100
AcDbEntity
  8
0
100
AcDbBlockBegin
  2
block 51
 70
     0
 71
     0
 10
0.0
 20
0.0
 30
0.0
  3
block 51
  1

  0
POLYLINE
  5
294
330
290
100
AcDbEntity
  8
Layer 1
 62
   250
420
  2301728
370
   106
100
AcDb2dPolyline
 66
     1
 10
0.0
 20
0.0
 30
0.0
  0
VERTEX
  5
295
330
294
100
AcDbEntity
  8
Layer 1
 62
   250
420
  2301728
370
   106
100
AcDbVertex
100
AcDb2dVertex
 10
18.81796800293744
 20
-29.66739044073192
 30
0.0
  0
VERTEX
  5
296
330
294
100
AcDbEntity
  8
Layer 1
 62
   250
420
  2301728
370
   106
100
AcDbVertex
100
AcDb2dVertex
 10
8.817951642857208
 20
-29.66739044073192
 30
0.0
  0
VERTEX
  5
297
330
294
100
AcDbEntity
  8
Layer 1
 62
   250
420
  2301728
370
   106
100
AcDbVertex
100
AcDb2dVertex
 10
7.345516861104383
 20
-30.66743341791304
 30
0.0
  0
VERTEX
  5
298
330
294
100
AcDbEntity
  8
Layer 1
 62
   250
420
  2301728
370
   106
100
AcDbVertex
100
AcDb2dVertex
 10
8.817951642857208
 20
-31.667407493139
 30
0.0
  0
VERTEX
  5
299
330
294
100
AcDbEntity
  8
Layer 1
 62
   250
420
  2301728
370
   106
100
AcDbVertex
100
AcDb2dVertex
 10
18.81796800293744
 20
-31.667407493139
 30
0.0
  0
VERTEX
  5
29A
330
294
100
AcDbEntity
  8
Layer 1
 62
   250
420
  2301728
370
   106
100
AcDbVertex
100
AcDb2dVertex
 10
20.29040278469027
 20
-30.66743341791304
 30
0.0
  0
VERTEX
  5
29B
330
294
100
AcDbEntity
  8
Layer 1
 62
   250
420
  2301728
370
   106
100
AcDbVertex
100
AcDb2dVertex
 10
18.81796800293744
 20
-29.66739044073192
 30
0.0
  0
SEQEND
  5
29C
330
294
100
AcDbEntity
  8
Layer 1
370
   106
  0
ENDBLK
  5
293
330
290
100
AcDbEntity
  8
0
100
AcDbBlockEnd
  0
BLOCK
  5
29F
330
29D
100
AcDbEntity
  8
0
100
AcDbBlockBegin
  2
block 52
 70
     0
 71
     0
 10
0.0
 20
0.0
 30
0.0
  3
block 52
  1

  0
INSERT
  5
2A2
330
29D
100
AcDbEntity
  8
Layer 1
100
AcDbBlockReference
  2
block 53
 10
0.0
 20
0.0
 30
0.0
  0
INSERT
  5
2AF
330
29D
100
AcDbEntity
  8
Layer 1
100
AcDbBlockReference
  2
block 54
 10
0.0
 20
0.0
 30
0.0
  0
INSERT
  5
2BC
330
29D
100
AcDbEntity
  8
Layer 1
100
AcDbBlockReference
  2
block 55
 10
0.0
 20
0.0
 30
0.0
  0
INSERT
  5
2C9
330
29D
100
AcDbEntity
  8
Layer 1
100
AcDbBlockReference
  2
block 56
 10
0.0
 20
0.0
 30
0.0
  0
INSERT
  5
2D6
330
29D
100
AcDbEntity
  8
Layer 1
100
AcDbBlockReference
  2
block 57
 10
0.0
 20
0.0
 30
0.0
  0
INSERT
  5
2E3
330
29D
100
AcDbEntity
  8
Layer 1
100
AcDbBlockReference
  2
block 58
 10
0.0
 20
0.0
 30
0.0
  0
INSERT
  5
2F0
330
29D
100
AcDbEntity
  8
Layer 1
100
AcDbBlockReference
  2
block 59
 10
0.0
 20
0.0
 30
0.0
  0
ENDBLK
  5
2A0
330
29D
100
AcDbEntity
  8
0
100
AcDbBlockEnd
  0
BLOCK
  5
2A3
330
2A1
100
AcDbEntity
  8
0
100
AcDbBlockBegin
  2
block 53
 70
     0
 71
     0
 10
0.0
 20
0.0
 30
0.0
  3
block 53
  1

  0
POLYLINE
  5
2A5
330
2A1
100
AcDbEntity
  8
Layer 1
 62
   250
420
  2301728
370
   106
100
AcDb2dPolyline
 66
     1
 10
0.0
 20
0.0
 30
0.0
  0
VERTEX
  5
2A6
330
2A5
100
AcDbEntity
  8
Layer 1
 62
   250
420
  2301728
370
   106
100
AcDbVertex
100
AcDb2dVertex
 10
27.85137605957758
 20
-6.249941323094987
 30
0.0
  0
VERTEX
  5
2A7
330
2A5
100
AcDbEntity
  8
Layer 1
 62
   250
420
  2301728
370
   106
100
AcDbVertex
100
AcDb2dVertex
 10
27.85137605957758
 20
-16.24995768317522
 30
0.0
  0
VERTEX
  5
2A8
330
2A5
100
AcDbEntity
  8
Layer 1
 62
   250
420
  2301728
370
   106
100
AcDbVertex
100
AcDb2dVertex
 10
28.8514190367587
 20
-17.72239246492805
 30
0.0
  0
VERTEX
  5
2A9
330
2A5
100
AcDbEntity
  8
Layer 1
 62
   250
420
  2301728
370
   106
100
AcDbVertex
100
AcDb2dVertex
 10
29.85139311198465
 20
-16.24995768317522
 30
0.0
  0
VERTEX
  5
2AA
330
2A5
100
AcDbEntity
  8
Layer 1
 62
   250
420
  2301728
370
   106
100
AcDbVertex
100
AcDb2dVertex
 10
29.85139311198465
 20
-6.249941323094987
 30
0.0
  0
VERTEX
  5
2AB
330
2A5
100
AcDbEntity
  8
Layer 1
 62
   250
420
  2301728
370
   106
100
AcDbVertex
100
AcDb2dVertex
 10
28.8514190367587
 20
-4.777506541342161
 30
0.0
  0
VERTEX
  5
2AC
330
2A5
100
AcDbEntity
  8
Layer 1
 62
   250
420
  2301728
370
   106
100
AcDbVertex
100
AcDb2dVertex
 10
27.85137605957758
 20
-6.249941323094987
 30
0.0
  0
SEQEND
  5
2AD
330
2A5
100
AcDbEntity
  8
Layer 1
370
   106
  0
ENDBLK
  5
2A4
330
2A1
100
AcDbEntity
  8
0
100
AcDbBlockEnd
  0
BLOCK
  5
2B0
330
2AE
100
AcDbEntity
  8
0
100
AcDbBlockBegin
  2
block 54
 70
     0
 71
     0
 10
0.0
 20
0.0
 30
0.0
  3
block 54
  1

  0
POLYLINE
  5
2B2
330
2AE
100
AcDbEntity
  8
Layer 1
 62
   250
420
  2301728
370
   106
100
AcDb2dPolyline
 66
     1
 10
0.0
 20
0.0
 30
0.0
  0
VERTEX
  5
2B3
330
2B2
100
AcDbEntity
  8
Layer 1
 62
   250
420
  2301728
370
   106
100
AcDbVertex
100
AcDb2dVertex
 10
41.32384425381771
 20
-3.777498015138622
 30
0.0
  0
VERTEX
  5
2B4
330
2B2
100
AcDbEntity
  8
Layer 1
 62
   250
420
  2301728
370
   106
100
AcDbVertex
100
AcDb2dVertex
 10
31.32382789373748
 20
-3.777498015138622
 30
0.0
  0
VERTEX
  5
2B5
330
2B2
100
AcDbEntity
  8
Layer 1
 62
   250
420
  2301728
370
   106
100
AcDbVertex
100
AcDb2dVertex
 10
29.85139311198465
 20
-4.777506541342161
 30
0.0
  0
VERTEX
  5
2B6
330
2B2
100
AcDbEntity
  8
Layer 1
 62
   250
420
  2301728
370
   106
100
AcDbVertex
100
AcDb2dVertex
 10
31.32382789373748
 20
-5.777515067545701
 30
0.0
  0
VERTEX
  5
2B7
330
2B2
100
AcDbEntity
  8
Layer 1
 62
   250
420
  2301728
370
   106
100
AcDbVertex
100
AcDb2dVertex
 10
41.32384425381771
 20
-5.777515067545701
 30
0.0
  0
VERTEX
  5
2B8
330
2B2
100
AcDbEntity
  8
Layer 1
 62
   250
420
  2301728
370
   106
100
AcDbVertex
100
AcDb2dVertex
 10
42.79627903557054
 20
-4.777506541342161
 30
0.0
  0
VERTEX
  5
2B9
330
2B2
100
AcDbEntity
  8
Layer 1
 62
   250
420
  2301728
370
   106
100
AcDbVertex
100
AcDb2dVertex
 10
41.32384425381771
 20
-3.777498015138622
 30
0.0
  0
SEQEND
  5
2BA
330
2B2
100
AcDbEntity
  8
Layer 1
370
   106
  0
ENDBLK
  5
2B1
330
2AE
100
AcDbEntity
  8
0
100
AcDbBlockEnd
  0
BLOCK
  5
2BD
330
2BB
100
AcDbEntity
  8
0
100
AcDbBlockBegin
  2
block 55
 70
     0
 71
     0
 10
0.0
 20
0.0
 30
0.0
  3
block 55
  1

  0
POLYLINE
  5
2BF
330
2BB
100
AcDbEntity
  8
Layer 1
 62
   250
420
  2301728
370
   106
100
AcDb2dPolyline
 66
     1
 10
0.0
 20
0.0
 30
0.0
  0
VERTEX
  5
2C0
330
2BF
100
AcDbEntity
  8
Layer 1
 62
   250
420
  2301728
370
   106
100
AcDbVertex
100
AcDb2dVertex
 10
42.79627903557054
 20
-6.249975774072566
 30
0.0
  0
VERTEX
  5
2C1
330
2BF
100
AcDbEntity
  8
Layer 1
 62
   250
420
  2301728
370
   106
100
AcDbVertex
100
AcDb2dVertex
 10
42.79627903557054
 20
-16.24995768317522
 30
0.0
  0
VERTEX
  5
2C2
330
2BF
100
AcDbEntity
  8
Layer 1
 62
   250
420
  2301728
370
   106
100
AcDbVertex
100
AcDb2dVertex
 10
43.79632201275166
 20
-17.72242691590563
 30
0.0
  0
VERTEX
  5
2C3
330
2BF
100
AcDbEntity
  8
Layer 1
 62
   250
420
  2301728
370
   106
100
AcDbVertex
100
AcDb2dVertex
 10
44.79629608797762
 20
-16.24995768317522
 30
0.0
  0
VERTEX
  5
2C4
330
2BF
100
AcDbEntity
  8
Layer 1
 62
   250
420
  2301728
370
   106
100
AcDbVertex
100
AcDb2dVertex
 10
44.79629608797762
 20
-6.249975774072566
 30
0.0
  0
VERTEX
  5
2C5
330
2BF
100
AcDbEntity
  8
Layer 1
 62
   250
420
  2301728
370
   106
100
AcDbVertex
100
AcDb2dVertex
 10
43.79632201275166
 20
-4.777506541342161
 30
0.0
  0
VERTEX
  5
2C6
330
2BF
100
AcDbEntity
  8
Layer 1
 62
   250
420
  2301728
370
   106
100
AcDbVertex
100
AcDb2dVertex
 10
42.79627903557054
 20
-6.249975774072566
 30
0.0
  0
SEQEND
  5
2C7
330
2BF
100
AcDbEntity
  8
Layer 1
370
   106
  0
ENDBLK
  5
2BE
330
2BB
100
AcDbEntity
  8
0
100
AcDbBlockEnd
  0
BLOCK
  5
2CA
330
2C8
100
AcDbEntity
  8
0
100
AcDbBlockBegin
  2
block 56
 70
     0
 71
     0
 10
0.0
 20
0.0
 30
0.0
  3
block 56
  1

  0
POLYLINE
  5
2CC
330
2C8
100
AcDbEntity
  8
Layer 1
 62
   250
420
  2301728
370
   106
100
AcDb2dPolyline
 66
     1
 10
0.0
 20
0.0
 30
0.0
  0
VERTEX
  5
2CD
330
2CC
100
AcDbEntity
  8
Layer 1
 62
   250
420
  2301728
370
   106
100
AcDbVertex
100
AcDb2dVertex
 10
41.32384425381771
 20
-16.72241838970209
 30
0.0
  0
VERTEX
  5
2CE
330
2CC
100
AcDbEntity
  8
Layer 1
 62
   250
420
  2301728
370
   106
100
AcDbVertex
100
AcDb2dVertex
 10
31.32382789373748
 20
-16.72241838970209
 30
0.0
  0
VERTEX
  5
2CF
330
2CC
100
AcDbEntity
  8
Layer 1
 62
   250
420
  2301728
370
   106
100
AcDbVertex
100
AcDb2dVertex
 10
29.85139311198465
 20
-17.72239246492805
 30
0.0
  0
VERTEX
  5
2D0
330
2CC
100
AcDbEntity
  8
Layer 1
 62
   250
420
  2301728
370
   106
100
AcDbVertex
100
AcDb2dVertex
 10
31.32382789373748
 20
-18.72243544210917
 30
0.0
  0
VERTEX
  5
2D1
330
2CC
100
AcDbEntity
  8
Layer 1
 62
   250
420
  2301728
370
   106
100
AcDbVertex
100
AcDb2dVertex
 10
41.32384425381771
 20
-18.72243544210917
 30
0.0
  0
VERTEX
  5
2D2
330
2CC
100
AcDbEntity
  8
Layer 1
 62
   250
420
  2301728
370
   106
100
AcDbVertex
100
AcDb2dVertex
 10
42.79627903557054
 20
-17.72239246492805
 30
0.0
  0
VERTEX
  5
2D3
330
2CC
100
AcDbEntity
  8
Layer 1
 62
   250
420
  2301728
370
   106
100
AcDbVertex
100
AcDb2dVertex
 10
41.32384425381771
 20
-16.72241838970209
 30
0.0
  0
SEQEND
  5
2D4
330
2CC
100
AcDbEntity
  8
Layer 1
370
   106
  0
ENDBLK
  5
2CB
330
2C8
100
AcDbEntity
  8
0
100
AcDbBlockEnd
  0
BLOCK
  5
2D7
330
2D5
100
AcDbEntity
  8
0
100
AcDbBlockBegin
  2
block 57
 70
     0
 71
     0
 10
0.0
 20
0.0
 30
0.0
  3
block 57
  1

  0
POLYLINE
  5
2D9
330
2D5
100
AcDbEntity
  8
Layer 1
 62
   250
420
  2301728
370
   106
100
AcDb2dPolyline
 66
     1
 10
0.0
 20
0.0
 30
0.0
  0
VERTEX
  5
2DA
330
2D9
100
AcDbEntity
  8
Layer 1
 62
   250
420
  2301728
370
   106
100
AcDbVertex
100
AcDb2dVertex
 10
27.85137605957758
 20
-19.19489614863603
 30
0.0
  0
VERTEX
  5
2DB
330
2D9
100
AcDbEntity
  8
Layer 1
 62
   250
420
  2301728
370
   106
100
AcDbVertex
100
AcDb2dVertex
 10
27.85137605957758
 20
-29.1948436067611
 30
0.0
  0
VERTEX
  5
2DC
330
2D9
100
AcDbEntity
  8
Layer 1
 62
   250
420
  2301728
370
   106
100
AcDbVertex
100
AcDb2dVertex
 10
28.8514190367587
 20
-30.66734729046909
 30
0.0
  0
VERTEX
  5
2DD
330
2D9
100
AcDbEntity
  8
Layer 1
 62
   250
420
  2301728
370
   106
100
AcDbVertex
100
AcDb2dVertex
 10
29.85139311198465
 20
-29.1948436067611
 30
0.0
  0
VERTEX
  5
2DE
330
2D9
100
AcDbEntity
  8
Layer 1
 62
   250
420
  2301728
370
   106
100
AcDbVertex
100
AcDb2dVertex
 10
29.85139311198465
 20
-19.19489614863603
 30
0.0
  0
VERTEX
  5
2DF
330
2D9
100
AcDbEntity
  8
Layer 1
 62
   250
420
  2301728
370
   106
100
AcDbVertex
100
AcDb2dVertex
 10
28.8514190367587
 20
-17.72239246492805
 30
0.0
  0
VERTEX
  5
2E0
330
2D9
100
AcDbEntity
  8
Layer 1
 62
   250
420
  2301728
370
   106
100
AcDbVertex
100
AcDb2dVertex
 10
27.85137605957758
 20
-19.19489614863603
 30
0.0
  0
SEQEND
  5
2E1
330
2D9
100
AcDbEntity
  8
Layer 1
370
   106
  0
ENDBLK
  5
2D8
330
2D5
100
AcDbEntity
  8
0
100
AcDbBlockEnd
  0
BLOCK
  5
2E4
330
2E2
100
AcDbEntity
  8
0
100
AcDbBlockBegin
  2
block 58
 70
     0
 71
     0
 10
0.0
 20
0.0
 30
0.0
  3
block 58
  1

  0
POLYLINE
  5
2E6
330
2E2
100
AcDbEntity
  8
Layer 1
 62
   250
420
  2301728
370
   106
100
AcDb2dPolyline
 66
     1
 10
0.0
 20
0.0
 30
0.0
  0
VERTEX
  5
2E7
330
2E6
100
AcDbEntity
  8
Layer 1
 62
   250
420
  2301728
370
   106
100
AcDbVertex
100
AcDb2dVertex
 10
42.79627903557054
 20
-19.19489614863603
 30
0.0
  0
VERTEX
  5
2E8
330
2E6
100
AcDbEntity
  8
Layer 1
 62
   250
420
  2301728
370
   106
100
AcDbVertex
100
AcDb2dVertex
 10
42.79627903557054
 20
-29.19491250871626
 30
0.0
  0
VERTEX
  5
2E9
330
2E6
100
AcDbEntity
  8
Layer 1
 62
   250
420
  2301728
370
   106
100
AcDbVertex
100
AcDb2dVertex
 10
43.79632201275166
 20
-30.66734729046909
 30
0.0
  0
VERTEX
  5
2EA
330
2E6
100
AcDbEntity
  8
Layer 1
 62
   250
420
  2301728
370
   106
100
AcDbVertex
100
AcDb2dVertex
 10
44.79629608797762
 20
-29.19491250871626
 30
0.0
  0
VERTEX
  5
2EB
330
2E6
100
AcDbEntity
  8
Layer 1
 62
   250
420
  2301728
370
   106
100
AcDbVertex
100
AcDb2dVertex
 10
44.79629608797762
 20
-19.19489614863603
 30
0.0
  0
VERTEX
  5
2EC
330
2E6
100
AcDbEntity
  8
Layer 1
 62
   250
420
  2301728
370
   106
100
AcDbVertex
100
AcDb2dVertex
 10
43.79632201275166
 20
-17.72242691590563
 30
0.0
  0
VERTEX
  5
2ED
330
2E6
100
AcDbEntity
  8
Layer 1
 62
   250
420
  2301728
370
   106
100
AcDbVertex
100
AcDb2dVertex
 10
42.79627903557054
 20
-19.19489614863603
 30
0.0
  0
SEQEND
  5
2EE
330
2E6
100
AcDbEntity
  8
Layer 1
370
   106
  0
ENDBLK
  5
2E5
330
2E2
100
AcDbEntity
  8
0
100
AcDbBlockEnd
  0
BLOCK
  5
2F1
330
2EF
100
AcDbEntity
  8
0
100
AcDbBlockBegin
  2
block 59
 70
     0
 71
     0
 10
0.0
 20
0.0
 30
0.0
  3
block 59
  1

  0
POLYLINE
  5
2F3
330
2EF
100
AcDbEntity
  8
Layer 1
 62
   250
420
  2301728
370
   106
100
AcDb2dPolyline
 66
     1
 10
0.0
 20
0.0
 30
0.0
  0
VERTEX
  5
2F4
330
2F3
100
AcDbEntity
  8
Layer 1
 62
   250
420
  2301728
370
   106
100
AcDbVertex
100
AcDb2dVertex
 10
41.32384425381771
 20
-29.66730431328797
 30
0.0
  0
VERTEX
  5
2F5
330
2F3
100
AcDbEntity
  8
Layer 1
 62
   250
420
  2301728
370
   106
100
AcDbVertex
100
AcDb2dVertex
 10
31.32382789373748
 20
-29.66730431328797
 30
0.0
  0
VERTEX
  5
2F6
330
2F3
100
AcDbEntity
  8
Layer 1
 62
   250
420
  2301728
370
   106
100
AcDbVertex
100
AcDb2dVertex
 10
29.85139311198465
 20
-30.66734729046909
 30
0.0
  0
VERTEX
  5
2F7
330
2F3
100
AcDbEntity
  8
Layer 1
 62
   250
420
  2301728
370
   106
100
AcDbVertex
100
AcDb2dVertex
 10
31.32382789373748
 20
-31.66732136569505
 30
0.0
  0
VERTEX
  5
2F8
330
2F3
100
AcDbEntity
  8
Layer 1
 62
   250
420
  2301728
370
   106
100
AcDbVertex
100
AcDb2dVertex
 10
41.32384425381771
 20
-31.66732136569505
 30
0.0
  0
VERTEX
  5
2F9
330
2F3
100
AcDbEntity
  8
Layer 1
 62
   250
420
  2301728
370
   106
100
AcDbVertex
100
AcDb2dVertex
 10
42.79627903557054
 20
-30.66734729046909
 30
0.0
  0
VERTEX
  5
2FA
330
2F3
100
AcDbEntity
  8
Layer 1
 62
   250
420
  2301728
370
   106
100
AcDbVertex
100
AcDb2dVertex
 10
41.32384425381771
 20
-29.66730431328797
 30
0.0
  0
SEQEND
  5
2FB
330
2F3
100
AcDbEntity
  8
Layer 1
370
   106
  0
ENDBLK
  5
2F2
330
2EF
100
AcDbEntity
  8
0
100
AcDbBlockEnd
  0
BLOCK
  5
2FE
330
2FC
100
AcDbEntity
  8
0
100
AcDbBlockBegin
  2
block 60
 70
     0
 71
     0
 10
0.0
 20
0.0
 30
0.0
  3
block 60
  1

  0
INSERT
  5
301
330
2FC
100
AcDbEntity
  8
Layer 1
100
AcDbBlockReference
  2
block 61
 10
0.0
 20
0.0
 30
0.0
  0
INSERT
  5
30E
330
2FC
100
AcDbEntity
  8
Layer 1
100
AcDbBlockReference
  2
block 62
 10
0.0
 20
0.0
 30
0.0
  0
INSERT
  5
31B
330
2FC
100
AcDbEntity
  8
Layer 1
100
AcDbBlockReference
  2
block 63
 10
0.0
 20
0.0
 30
0.0
  0
INSERT
  5
328
330
2FC
100
AcDbEntity
  8
Layer 1
100
AcDbBlockReference
  2
block 64
 10
0.0
 20
0.0
 30
0.0
  0
INSERT
  5
335
330
2FC
100
AcDbEntity
  8
Layer 1
100
AcDbBlockReference
  2
block 65
 10
0.0
 20
0.0
 30
0.0
  0
INSERT
  5
342
330
2FC
100
AcDbEntity
  8
Layer 1
100
AcDbBlockReference
  2
block 66
 10
0.0
 20
0.0
 30
0.0
  0
INSERT
  5
34F
330
2FC
100
AcDbEntity
  8
Layer 1
100
AcDbBlockReference
  2
block 67
 10
0.0
 20
0.0
 30
0.0
  0
ENDBLK
  5
2FF
330
2FC
100
AcDbEntity
  8
0
100
AcDbBlockEnd
  0
BLOCK
  5
302
330
300
100
AcDbEntity
  8
0
100
AcDbBlockBegin
  2
block 61
 70
     0
 71
     0
 10
0.0
 20
0.0
 30
0.0
  3
block 61
  1

  0
POLYLINE
  5
304
330
300
100
AcDbEntity
  8
Layer 1
 62
   250
420
  2301728
370
   106
100
AcDb2dPolyline
 66
     1
 10
0.0
 20
0.0
 30
0.0
  0
VERTEX
  5
305
330
304
100
AcDbEntity
  8
Layer 1
 62
   250
420
  2301728
370
   106
100
AcDbVertex
100
AcDb2dVertex
 10
55.20393641477988
 20
-6.250044676027725
 30
0.0
  0
VERTEX
  5
306
330
304
100
AcDbEntity
  8
Layer 1
 62
   250
420
  2301728
370
   106
100
AcDbVertex
100
AcDb2dVertex
 10
55.20393641477988
 20
-16.25006103610796
 30
0.0
  0
VERTEX
  5
307
330
304
100
AcDbEntity
  8
Layer 1
 62
   250
420
  2301728
370
   106
100
AcDbVertex
100
AcDb2dVertex
 10
56.203979391961
 20
-17.72249581786079
 30
0.0
  0
VERTEX
  5
308
330
304
100
AcDbEntity
  8
Layer 1
 62
   250
420
  2301728
370
   106
100
AcDbVertex
100
AcDb2dVertex
 10
57.20395346718696
 20
-16.25006103610796
 30
0.0
  0
VERTEX
  5
309
330
304
100
AcDbEntity
  8
Layer 1
 62
   250
420
  2301728
370
   106
100
AcDbVertex
100
AcDb2dVertex
 10
57.20395346718696
 20
-6.250044676027725
 30
0.0
  0
VERTEX
  5
30A
330
304
100
AcDbEntity
  8
Layer 1
 62
   250
420
  2301728
370
   106
100
AcDbVertex
100
AcDb2dVertex
 10
56.203979391961
 20
-4.7776098942749
 30
0.0
  0
VERTEX
  5
30B
330
304
100
AcDbEntity
  8
Layer 1
 62
   250
420
  2301728
370
   106
100
AcDbVertex
100
AcDb2dVertex
 10
55.20393641477988
 20
-6.250044676027725
 30
0.0
  0
SEQEND
  5
30C
330
304
100
AcDbEntity
  8
Layer 1
370
   106
  0
ENDBLK
  5
303
330
300
100
AcDbEntity
  8
0
100
AcDbBlockEnd
  0
BLOCK
  5
30F
330
30D
100
AcDbEntity
  8
0
100
AcDbBlockBegin
  2
block 62
 70
     0
 71
     0
 10
0.0
 20
0.0
 30
0.0
  3
block 62
  1

  0
POLYLINE
  5
311
330
30D
100
AcDbEntity
  8
Layer 1
 62
   250
420
  2301728
370
   106
100
AcDb2dPolyline
 66
     1
 10
0.0
 20
0.0
 30
0.0
  0
VERTEX
  5
312
330
311
100
AcDbEntity
  8
Layer 1
 62
   250
420
  2301728
370
   106
100
AcDbVertex
100
AcDb2dVertex
 10
68.67640460902001
 20
-3.777601368071361
 30
0.0
  0
VERTEX
  5
313
330
311
100
AcDbEntity
  8
Layer 1
 62
   250
420
  2301728
370
   106
100
AcDbVertex
100
AcDb2dVertex
 10
58.67638824893978
 20
-3.777601368071361
 30
0.0
  0
VERTEX
  5
314
330
311
100
AcDbEntity
  8
Layer 1
 62
   250
420
  2301728
370
   106
100
AcDbVertex
100
AcDb2dVertex
 10
57.20395346718696
 20
-4.7776098942749
 30
0.0
  0
VERTEX
  5
315
330
311
100
AcDbEntity
  8
Layer 1
 62
   250
420
  2301728
370
   106
100
AcDbVertex
100
AcDb2dVertex
 10
58.67638824893978
 20
-5.777618420478439
 30
0.0
  0
VERTEX
  5
316
330
311
100
AcDbEntity
  8
Layer 1
 62
   250
420
  2301728
370
   106
100
AcDbVertex
100
AcDb2dVertex
 10
68.67640460902001
 20
-5.777618420478439
 30
0.0
  0
VERTEX
  5
317
330
311
100
AcDbEntity
  8
Layer 1
 62
   250
420
  2301728
370
   106
100
AcDbVertex
100
AcDb2dVertex
 10
70.14883939077284
 20
-4.7776098942749
 30
0.0
  0
VERTEX
  5
318
330
311
100
AcDbEntity
  8
Layer 1
 62
   250
420
  2301728
370
   106
100
AcDbVertex
100
AcDb2dVertex
 10
68.67640460902001
 20
-3.777601368071361
 30
0.0
  0
SEQEND
  5
319
330
311
100
AcDbEntity
  8
Layer 1
370
   106
  0
ENDBLK
  5
310
330
30D
100
AcDbEntity
  8
0
100
AcDbBlockEnd
  0
BLOCK
  5
31C
330
31A
100
AcDbEntity
  8
0
100
AcDbBlockBegin
  2
block 63
 70
     0
 71
     0
 10
0.0
 20
0.0
 30
0.0
  3
block 63
  1

  0
POLYLINE
  5
31E
330
31A
100
AcDbEntity
  8
Layer 1
 62
   250
420
  2301728
370
   106
100
AcDb2dPolyline
 66
     1
 10
0.0
 20
0.0
 30
0.0
  0
VERTEX
  5
31F
330
31E
100
AcDbEntity
  8
Layer 1
 62
   250
420
  2301728
370
   106
100
AcDbVertex
100
AcDb2dVertex
 10
70.14883939077284
 20
-6.250079127005305
 30
0.0
  0
VERTEX
  5
320
330
31E
100
AcDbEntity
  8
Layer 1
 62
   250
420
  2301728
370
   106
100
AcDbVertex
100
AcDb2dVertex
 10
70.14883939077284
 20
-16.25006103610796
 30
0.0
  0
VERTEX
  5
321
330
31E
100
AcDbEntity
  8
Layer 1
 62
   250
420
  2301728
370
   106
100
AcDbVertex
100
AcDb2dVertex
 10
71.14888236795396
 20
-17.72253026883837
 30
0.0
  0
VERTEX
  5
322
330
31E
100
AcDbEntity
  8
Layer 1
 62
   250
420
  2301728
370
   106
100
AcDbVertex
100
AcDb2dVertex
 10
72.14885644317992
 20
-16.25006103610796
 30
0.0
  0
VERTEX
  5
323
330
31E
100
AcDbEntity
  8
Layer 1
 62
   250
420
  2301728
370
   106
100
AcDbVertex
100
AcDb2dVertex
 10
72.14885644317992
 20
-6.250079127005305
 30
0.0
  0
VERTEX
  5
324
330
31E
100
AcDbEntity
  8
Layer 1
 62
   250
420
  2301728
370
   106
100
AcDbVertex
100
AcDb2dVertex
 10
71.14888236795396
 20
-4.7776098942749
 30
0.0
  0
VERTEX
  5
325
330
31E
100
AcDbEntity
  8
Layer 1
 62
   250
420
  2301728
370
   106
100
AcDbVertex
100
AcDb2dVertex
 10
70.14883939077284
 20
-6.250079127005305
 30
0.0
  0
SEQEND
  5
326
330
31E
100
AcDbEntity
  8
Layer 1
370
   106
  0
ENDBLK
  5
31D
330
31A
100
AcDbEntity
  8
0
100
AcDbBlockEnd
  0
BLOCK
  5
329
330
327
100
AcDbEntity
  8
0
100
AcDbBlockBegin
  2
block 64
 70
     0
 71
     0
 10
0.0
 20
0.0
 30
0.0
  3
block 64
  1

  0
POLYLINE
  5
32B
330
327
100
AcDbEntity
  8
Layer 1
 62
   250
420
  2301728
370
   106
100
AcDb2dPolyline
 66
     1
 10
0.0
 20
0.0
 30
0.0
  0
VERTEX
  5
32C
330
32B
100
AcDbEntity
  8
Layer 1
 62
   250
420
  2301728
370
   106
100
AcDbVertex
100
AcDb2dVertex
 10
68.67640460902001
 20
-16.72252174263483
 30
0.0
  0
VERTEX
  5
32D
330
32B
100
AcDbEntity
  8
Layer 1
 62
   250
420
  2301728
370
   106
100
AcDbVertex
100
AcDb2dVertex
 10
58.67638824893978
 20
-16.72252174263483
 30
0.0
  0
VERTEX
  5
32E
330
32B
100
AcDbEntity
  8
Layer 1
 62
   250
420
  2301728
370
   106
100
AcDbVertex
100
AcDb2dVertex
 10
57.20395346718696
 20
-17.72249581786079
 30
0.0
  0
VERTEX
  5
32F
330
32B
100
AcDbEntity
  8
Layer 1
 62
   250
420
  2301728
370
   106
100
AcDbVertex
100
AcDb2dVertex
 10
58.67638824893978
 20
-18.7225387950419
 30
0.0
  0
VERTEX
  5
330
330
32B
100
AcDbEntity
  8
Layer 1
 62
   250
420
  2301728
370
   106
100
AcDbVertex
100
AcDb2dVertex
 10
68.67640460902001
 20
-18.7225387950419
 30
0.0
  0
VERTEX
  5
331
330
32B
100
AcDbEntity
  8
Layer 1
 62
   250
420
  2301728
370
   106
100
AcDbVertex
100
AcDb2dVertex
 10
70.14883939077284
 20
-17.72249581786079
 30
0.0
  0
VERTEX
  5
332
330
32B
100
AcDbEntity
  8
Layer 1
 62
   250
420
  2301728
370
   106
100
AcDbVertex
100
AcDb2dVertex
 10
68.67640460902001
 20
-16.72252174263483
 30
0.0
  0
SEQEND
  5
333
330
32B
100
AcDbEntity
  8
Layer 1
370
   106
  0
ENDBLK
  5
32A
330
327
100
AcDbEntity
  8
0
100
AcDbBlockEnd
  0
BLOCK
  5
336
330
334
100
AcDbEntity
  8
0
100
AcDbBlockBegin
  2
block 65
 70
     0
 71
     0
 10
0.0
 20
0.0
 30
0.0
  3
block 65
  1

  0
POLYLINE
  5
338
330
334
100
AcDbEntity
  8
Layer 1
 62
   250
420
  2301728
370
   106
100
AcDb2dPolyline
 66
     1
 10
0.0
 20
0.0
 30
0.0
  0
VERTEX
  5
339
330
338
100
AcDbEntity
  8
Layer 1
 62
   250
420
  2301728
370
   106
100
AcDbVertex
100
AcDb2dVertex
 10
55.20393641477988
 20
-19.19499950156877
 30
0.0
  0
VERTEX
  5
33A
330
338
100
AcDbEntity
  8
Layer 1
 62
   250
420
  2301728
370
   106
100
AcDbVertex
100
AcDb2dVertex
 10
55.20393641477988
 20
-29.19494695969384
 30
0.0
  0
VERTEX
  5
33B
330
338
100
AcDbEntity
  8
Layer 1
 62
   250
420
  2301728
370
   106
100
AcDbVertex
100
AcDb2dVertex
 10
56.203979391961
 20
-30.66745064340183
 30
0.0
  0
VERTEX
  5
33C
330
338
100
AcDbEntity
  8
Layer 1
 62
   250
420
  2301728
370
   106
100
AcDbVertex
100
AcDb2dVertex
 10
57.20395346718696
 20
-29.19494695969384
 30
0.0
  0
VERTEX
  5
33D
330
338
100
AcDbEntity
  8
Layer 1
 62
   250
420
  2301728
370
   106
100
AcDbVertex
100
AcDb2dVertex
 10
57.20395346718696
 20
-19.19499950156877
 30
0.0
  0
VERTEX
  5
33E
330
338
100
AcDbEntity
  8
Layer 1
 62
   250
420
  2301728
370
   106
100
AcDbVertex
100
AcDb2dVertex
 10
56.203979391961
 20
-17.72249581786079
 30
0.0
  0
VERTEX
  5
33F
330
338
100
AcDbEntity
  8
Layer 1
 62
   250
420
  2301728
370
   106
100
AcDbVertex
100
AcDb2dVertex
 10
55.20393641477988
 20
-19.19499950156877
 30
0.0
  0
SEQEND
  5
340
330
338
100
AcDbEntity
  8
Layer 1
370
   106
  0
ENDBLK
  5
337
330
334
100
AcDbEntity
  8
0
100
AcDbBlockEnd
  0
BLOCK
  5
343
330
341
100
AcDbEntity
  8
0
100
AcDbBlockBegin
  2
block 66
 70
     0
 71
     0
 10
0.0
 20
0.0
 30
0.0
  3
block 66
  1

  0
POLYLINE
  5
345
330
341
100
AcDbEntity
  8
Layer 1
 62
   250
420
  2301728
370
   106
100
AcDb2dPolyline
 66
     1
 10
0.0
 20
0.0
 30
0.0
  0
VERTEX
  5
346
330
345
100
AcDbEntity
  8
Layer 1
 62
   250
420
  2301728
370
   106
100
AcDbVertex
100
AcDb2dVertex
 10
70.14883939077284
 20
-19.19499950156877
 30
0.0
  0
VERTEX
  5
347
330
345
100
AcDbEntity
  8
Layer 1
 62
   250
420
  2301728
370
   106
100
AcDbVertex
100
AcDb2dVertex
 10
70.14883939077284
 20
-29.195015861649
 30
0.0
  0
VERTEX
  5
348
330
345
100
AcDbEntity
  8
Layer 1
 62
   250
420
  2301728
370
   106
100
AcDbVertex
100
AcDb2dVertex
 10
71.14888236795396
 20
-30.66745064340183
 30
0.0
  0
VERTEX
  5
349
330
345
100
AcDbEntity
  8
Layer 1
 62
   250
420
  2301728
370
   106
100
AcDbVertex
100
AcDb2dVertex
 10
72.14885644317992
 20
-29.195015861649
 30
0.0
  0
VERTEX
  5
34A
330
345
100
AcDbEntity
  8
Layer 1
 62
   250
420
  2301728
370
   106
100
AcDbVertex
100
AcDb2dVertex
 10
72.14885644317992
 20
-19.19499950156877
 30
0.0
  0
VERTEX
  5
34B
330
345
100
AcDbEntity
  8
Layer 1
 62
   250
420
  2301728
370
   106
100
AcDbVertex
100
AcDb2dVertex
 10
71.14888236795396
 20
-17.72253026883837
 30
0.0
  0
VERTEX
  5
34C
330
345
100
AcDbEntity
  8
Layer 1
 62
   250
420
  2301728
370
   106
100
AcDbVertex
100
AcDb2dVertex
 10
70.14883939077284
 20
-19.19499950156877
 30
0.0
  0
SEQEND
  5
34D
330
345
100
AcDbEntity
  8
Layer 1
370
   106
  0
ENDBLK
  5
344
330
341
100
AcDbEntity
  8
0
100
AcDbBlockEnd
  0
BLOCK
  5
350
330
34E
100
AcDbEntity
  8
0
100
AcDbBlockBegin
  2
block 67
 70
     0
 71
     0
 10
0.0
 20
0.0
 30
0.0
  3
block 67
  1

  0
POLYLINE
  5
352
330
34E
100
AcDbEntity
  8
Layer 1
 62
   250
420
  2301728
370
   106
100
AcDb2dPolyline
 66
     1
 10
0.0
 20
0.0
 30
0.0
  0
VERTEX
  5
353
330
352
100
AcDbEntity
  8
Layer 1
 62
   250
420
  2301728
370
   106
100
AcDbVertex
100
AcDb2dVertex
 10
68.67640460902001
 20
-29.66740766622071
 30
0.0
  0
VERTEX
  5
354
330
352
100
AcDbEntity
  8
Layer 1
 62
   250
420
  2301728
370
   106
100
AcDbVertex
100
AcDb2dVertex
 10
58.67638824893978
 20
-29.66740766622071
 30
0.0
  0
VERTEX
  5
355
330
352
100
AcDbEntity
  8
Layer 1
 62
   250
420
  2301728
370
   106
100
AcDbVertex
100
AcDb2dVertex
 10
57.20395346718696
 20
-30.66745064340183
 30
0.0
  0
VERTEX
  5
356
330
352
100
AcDbEntity
  8
Layer 1
 62
   250
420
  2301728
370
   106
100
AcDbVertex
100
AcDb2dVertex
 10
58.67638824893978
 20
-31.66742471862779
 30
0.0
  0
VERTEX
  5
357
330
352
100
AcDbEntity
  8
Layer 1
 62
   250
420
  2301728
370
   106
100
AcDbVertex
100
AcDb2dVertex
 10
68.67640460902001
 20
-31.66742471862779
 30
0.0
  0
VERTEX
  5
358
330
352
100
AcDbEntity
  8
Layer 1
 62
   250
420
  2301728
370
   106
100
AcDbVertex
100
AcDb2dVertex
 10
70.14883939077284
 20
-30.66745064340183
 30
0.0
  0
VERTEX
  5
359
330
352
100
AcDbEntity
  8
Layer 1
 62
   250
420
  2301728
370
   106
100
AcDbVertex
100
AcDb2dVertex
 10
68.67640460902001
 20
-29.66740766622071
 30
0.0
  0
SEQEND
  5
35A
330
352
100
AcDbEntity
  8
Layer 1
370
   106
  0
ENDBLK
  5
351
330
34E
100
AcDbEntity
  8
0
100
AcDbBlockEnd
  0
BLOCK
  5
35D
330
35B
100
AcDbEntity
  8
0
100
AcDbBlockBegin
  2
block 68
 70
     0
 71
     0
 10
0.0
 20
0.0
 30
0.0
  3
block 68
  1

  0
INSERT
  5
360
330
35B
100
AcDbEntity
  8
Layer 1
100
AcDbBlockReference
  2
block 69
 10
0.0
 20
0.0
 30
0.0
  0
INSERT
  5
36D
330
35B
100
AcDbEntity
  8
Layer 1
100
AcDbBlockReference
  2
block 70
 10
0.0
 20
0.0
 30
0.0
  0
INSERT
  5
37A
330
35B
100
AcDbEntity
  8
Layer 1
100
AcDbBlockReference
  2
block 71
 10
0.0
 20
0.0
 30
0.0
  0
INSERT
  5
387
330
35B
100
AcDbEntity
  8
Layer 1
100
AcDbBlockReference
  2
block 72
 10
0.0
 20
0.0
 30
0.0
  0
INSERT
  5
394
330
35B
100
AcDbEntity
  8
Layer 1
100
AcDbBlockReference
  2
block 73
 10
0.0
 20
0.0
 30
0.0
  0
INSERT
  5
3A1
330
35B
100
AcDbEntity
  8
Layer 1
100
AcDbBlockReference
  2
block 74
 10
0.0
 20
0.0
 30
0.0
  0
INSERT
  5
3AE
330
35B
100
AcDbEntity
  8
Layer 1
100
AcDbBlockReference
  2
block 75
 10
0.0
 20
0.0
 30
0.0
  0
ENDBLK
  5
35E
330
35B
100
AcDbEntity
  8
0
100
AcDbBlockEnd
  0
BLOCK
  5
361
330
35F
100
AcDbEntity
  8
0
100
AcDbBlockBegin
  2
block 69
 70
     0
 71
     0
 10
0.0
 20
0.0
 30
0.0
  3
block 69
  1

  0
POLYLINE
  5
363
330
35F
100
AcDbEntity
  8
Layer 1
 62
   250
420
  2301728
370
   106
100
AcDb2dPolyline
 66
     1
 10
0.0
 20
0.0
 30
0.0
  0
VERTEX
  5
364
330
363
100
AcDbEntity
  8
Layer 1
 62
   250
420
  2301728
370
   106
100
AcDbVertex
100
AcDb2dVertex
 10
77.85149231095632
 20
-6.250061901516515
 30
0.0
  0
VERTEX
  5
365
330
363
100
AcDbEntity
  8
Layer 1
 62
   250
420
  2301728
370
   106
100
AcDbVertex
100
AcDb2dVertex
 10
77.85149231095632
 20
-16.25007826159675
 30
0.0
  0
VERTEX
  5
366
330
363
100
AcDbEntity
  8
Layer 1
 62
   250
420
  2301728
370
   106
100
AcDbVertex
100
AcDb2dVertex
 10
78.85153528813744
 20
-17.72251304334958
 30
0.0
  0
VERTEX
  5
367
330
363
100
AcDbEntity
  8
Layer 1
 62
   250
420
  2301728
370
   106
100
AcDbVertex
100
AcDb2dVertex
 10
79.8515093633634
 20
-16.25007826159675
 30
0.0
  0
VERTEX
  5
368
330
363
100
AcDbEntity
  8
Layer 1
 62
   250
420
  2301728
370
   106
100
AcDbVertex
100
AcDb2dVertex
 10
79.8515093633634
 20
-6.250061901516515
 30
0.0
  0
VERTEX
  5
369
330
363
100
AcDbEntity
  8
Layer 1
 62
   250
420
  2301728
370
   106
100
AcDbVertex
100
AcDb2dVertex
 10
78.85153528813744
 20
-4.777627119763689
 30
0.0
  0
VERTEX
  5
36A
330
363
100
AcDbEntity
  8
Layer 1
 62
   250
420
  2301728
370
   106
100
AcDbVertex
100
AcDb2dVertex
 10
77.85149231095632
 20
-6.250061901516515
 30
0.0
  0
SEQEND
  5
36B
330
363
100
AcDbEntity
  8
Layer 1
370
   106
  0
ENDBLK
  5
362
330
35F
100
AcDbEntity
  8
0
100
AcDbBlockEnd
  0
BLOCK
  5
36E
330
36C
100
AcDbEntity
  8
0
100
AcDbBlockBegin
  2
block 70
 70
     0
 71
     0
 10
0.0
 20
0.0
 30
0.0
  3
block 70
  1

  0
POLYLINE
  5
370
330
36C
100
AcDbEntity
  8
Layer 1
 62
   250
420
  2301728
370
   106
100
AcDb2dPolyline
 66
     1
 10
0.0
 20
0.0
 30
0.0
  0
VERTEX
  5
371
330
370
100
AcDbEntity
  8
Layer 1
 62
   250
420
  2301728
370
   106
100
AcDbVertex
100
AcDb2dVertex
 10
91.32396050519645
 20
-3.77761859356015
 30
0.0
  0
VERTEX
  5
372
330
370
100
AcDbEntity
  8
Layer 1
 62
   250
420
  2301728
370
   106
100
AcDbVertex
100
AcDb2dVertex
 10
81.32394414511623
 20
-3.77761859356015
 30
0.0
  0
VERTEX
  5
373
330
370
100
AcDbEntity
  8
Layer 1
 62
   250
420
  2301728
370
   106
100
AcDbVertex
100
AcDb2dVertex
 10
79.8515093633634
 20
-4.777627119763689
 30
0.0
  0
VERTEX
  5
374
330
370
100
AcDbEntity
  8
Layer 1
 62
   250
420
  2301728
370
   106
100
AcDbVertex
100
AcDb2dVertex
 10
81.32394414511623
 20
-5.777635645967229
 30
0.0
  0
VERTEX
  5
375
330
370
100
AcDbEntity
  8
Layer 1
 62
   250
420
  2301728
370
   106
100
AcDbVertex
100
AcDb2dVertex
 10
91.32396050519645
 20
-5.777635645967229
 30
0.0
  0
VERTEX
  5
376
330
370
100
AcDbEntity
  8
Layer 1
 62
   250
420
  2301728
370
   106
100
AcDbVertex
100
AcDb2dVertex
 10
92.79639528694929
 20
-4.777627119763689
 30
0.0
  0
VERTEX
  5
377
330
370
100
AcDbEntity
  8
Layer 1
 62
   250
420
  2301728
370
   106
100
AcDbVertex
100
AcDb2dVertex
 10
91.32396050519645
 20
-3.77761859356015
 30
0.0
  0
SEQEND
  5
378
330
370
100
AcDbEntity
  8
Layer 1
370
   106
  0
ENDBLK
  5
36F
330
36C
100
AcDbEntity
  8
0
100
AcDbBlockEnd
  0
BLOCK
  5
37B
330
379
100
AcDbEntity
  8
0
100
AcDbBlockBegin
  2
block 71
 70
     0
 71
     0
 10
0.0
 20
0.0
 30
0.0
  3
block 71
  1

  0
POLYLINE
  5
37D
330
379
100
AcDbEntity
  8
Layer 1
 62
   250
420
  2301728
370
   106
100
AcDb2dPolyline
 66
     1
 10
0.0
 20
0.0
 30
0.0
  0
VERTEX
  5
37E
330
37D
100
AcDbEntity
  8
Layer 1
 62
   250
420
  2301728
370
   106
100
AcDbVertex
100
AcDb2dVertex
 10
92.79639528694929
 20
-6.250096352494095
 30
0.0
  0
VERTEX
  5
37F
330
37D
100
AcDbEntity
  8
Layer 1
 62
   250
420
  2301728
370
   106
100
AcDbVertex
100
AcDb2dVertex
 10
92.79639528694929
 20
-16.25007826159675
 30
0.0
  0
VERTEX
  5
380
330
37D
100
AcDbEntity
  8
Layer 1
 62
   250
420
  2301728
370
   106
100
AcDbVertex
100
AcDb2dVertex
 10
93.7964382641304
 20
-17.72254749432716
 30
0.0
  0
VERTEX
  5
381
330
37D
100
AcDbEntity
  8
Layer 1
 62
   250
420
  2301728
370
   106
100
AcDbVertex
100
AcDb2dVertex
 10
94.79641233935637
 20
-16.25007826159675
 30
0.0
  0
VERTEX
  5
382
330
37D
100
AcDbEntity
  8
Layer 1
 62
   250
420
  2301728
370
   106
100
AcDbVertex
100
AcDb2dVertex
 10
94.79641233935637
 20
-6.250096352494095
 30
0.0
  0
VERTEX
  5
383
330
37D
100
AcDbEntity
  8
Layer 1
 62
   250
420
  2301728
370
   106
100
AcDbVertex
100
AcDb2dVertex
 10
93.7964382641304
 20
-4.777627119763689
 30
0.0
  0
VERTEX
  5
384
330
37D
100
AcDbEntity
  8
Layer 1
 62
   250
420
  2301728
370
   106
100
AcDbVertex
100
AcDb2dVertex
 10
92.79639528694929
 20
-6.250096352494095
 30
0.0
  0
SEQEND
  5
385
330
37D
100
AcDbEntity
  8
Layer 1
370
   106
  0
ENDBLK
  5
37C
330
379
100
AcDbEntity
  8
0
100
AcDbBlockEnd
  0
BLOCK
  5
388
330
386
100
AcDbEntity
  8
0
100
AcDbBlockBegin
  2
block 72
 70
     0
 71
     0
 10
0.0
 20
0.0
 30
0.0
  3
block 72
  1

  0
POLYLINE
  5
38A
330
386
100
AcDbEntity
  8
Layer 1
 62
   250
420
  2301728
370
   106
100
AcDb2dPolyline
 66
     1
 10
0.0
 20
0.0
 30
0.0
  0
VERTEX
  5
38B
330
38A
100
AcDbEntity
  8
Layer 1
 62
   250
420
  2301728
370
   106
100
AcDbVertex
100
AcDb2dVertex
 10
91.32396050519645
 20
-16.72253896812362
 30
0.0
  0
VERTEX
  5
38C
330
38A
100
AcDbEntity
  8
Layer 1
 62
   250
420
  2301728
370
   106
100
AcDbVertex
100
AcDb2dVertex
 10
81.32394414511623
 20
-16.72253896812362
 30
0.0
  0
VERTEX
  5
38D
330
38A
100
AcDbEntity
  8
Layer 1
 62
   250
420
  2301728
370
   106
100
AcDbVertex
100
AcDb2dVertex
 10
79.8515093633634
 20
-17.72251304334958
 30
0.0
  0
VERTEX
  5
38E
330
38A
100
AcDbEntity
  8
Layer 1
 62
   250
420
  2301728
370
   106
100
AcDbVertex
100
AcDb2dVertex
 10
81.32394414511623
 20
-18.72255602053069
 30
0.0
  0
VERTEX
  5
38F
330
38A
100
AcDbEntity
  8
Layer 1
 62
   250
420
  2301728
370
   106
100
AcDbVertex
100
AcDb2dVertex
 10
91.32396050519645
 20
-18.72255602053069
 30
0.0
  0
VERTEX
  5
390
330
38A
100
AcDbEntity
  8
Layer 1
 62
   250
420
  2301728
370
   106
100
AcDbVertex
100
AcDb2dVertex
 10
92.79639528694929
 20
-17.72251304334958
 30
0.0
  0
VERTEX
  5
391
330
38A
100
AcDbEntity
  8
Layer 1
 62
   250
420
  2301728
370
   106
100
AcDbVertex
100
AcDb2dVertex
 10
91.32396050519645
 20
-16.72253896812362
 30
0.0
  0
SEQEND
  5
392
330
38A
100
AcDbEntity
  8
Layer 1
370
   106
  0
ENDBLK
  5
389
330
386
100
AcDbEntity
  8
0
100
AcDbBlockEnd
  0
BLOCK
  5
395
330
393
100
AcDbEntity
  8
0
100
AcDbBlockBegin
  2
block 73
 70
     0
 71
     0
 10
0.0
 20
0.0
 30
0.0
  3
block 73
  1

  0
POLYLINE
  5
397
330
393
100
AcDbEntity
  8
Layer 1
 62
   250
420
  2301728
370
   106
100
AcDb2dPolyline
 66
     1
 10
0.0
 20
0.0
 30
0.0
  0
VERTEX
  5
398
330
397
100
AcDbEntity
  8
Layer 1
 62
   250
420
  2301728
370
   106
100
AcDbVertex
100
AcDb2dVertex
 10
77.85149231095632
 20
-19.19501672705756
 30
0.0
  0
VERTEX
  5
399
330
397
100
AcDbEntity
  8
Layer 1
 62
   250
420
  2301728
370
   106
100
AcDbVertex
100
AcDb2dVertex
 10
77.85149231095632
 20
-29.19496418518263
 30
0.0
  0
VERTEX
  5
39A
330
397
100
AcDbEntity
  8
Layer 1
 62
   250
420
  2301728
370
   106
100
AcDbVertex
100
AcDb2dVertex
 10
78.85153528813744
 20
-30.66746786889062
 30
0.0
  0
VERTEX
  5
39B
330
397
100
AcDbEntity
  8
Layer 1
 62
   250
420
  2301728
370
   106
100
AcDbVertex
100
AcDb2dVertex
 10
79.8515093633634
 20
-29.19496418518263
 30
0.0
  0
VERTEX
  5
39C
330
397
100
AcDbEntity
  8
Layer 1
 62
   250
420
  2301728
370
   106
100
AcDbVertex
100
AcDb2dVertex
 10
79.8515093633634
 20
-19.19501672705756
 30
0.0
  0
VERTEX
  5
39D
330
397
100
AcDbEntity
  8
Layer 1
 62
   250
420
  2301728
370
   106
100
AcDbVertex
100
AcDb2dVertex
 10
78.85153528813744
 20
-17.72251304334958
 30
0.0
  0
VERTEX
  5
39E
330
397
100
AcDbEntity
  8
Layer 1
 62
   250
420
  2301728
370
   106
100
AcDbVertex
100
AcDb2dVertex
 10
77.85149231095632
 20
-19.19501672705756
 30
0.0
  0
SEQEND
  5
39F
330
397
100
AcDbEntity
  8
Layer 1
370
   106
  0
ENDBLK
  5
396
330
393
100
AcDbEntity
  8
0
100
AcDbBlockEnd
  0
BLOCK
  5
3A2
330
3A0
100
AcDbEntity
  8
0
100
AcDbBlockBegin
  2
block 74
 70
     0
 71
     0
 10
0.0
 20
0.0
 30
0.0
  3
block 74
  1

  0
POLYLINE
  5
3A4
330
3A0
100
AcDbEntity
  8
Layer 1
 62
   250
420
  2301728
370
   106
100
AcDb2dPolyline
 66
     1
 10
0.0
 20
0.0
 30
0.0
  0
VERTEX
  5
3A5
330
3A4
100
AcDbEntity
  8
Layer 1
 62
   250
420
  2301728
370
   106
100
AcDbVertex
100
AcDb2dVertex
 10
92.79639528694929
 20
-19.19501672705756
 30
0.0
  0
VERTEX
  5
3A6
330
3A4
100
AcDbEntity
  8
Layer 1
 62
   250
420
  2301728
370
   106
100
AcDbVertex
100
AcDb2dVertex
 10
92.79639528694929
 20
-29.19503308713779
 30
0.0
  0
VERTEX
  5
3A7
330
3A4
100
AcDbEntity
  8
Layer 1
 62
   250
420
  2301728
370
   106
100
AcDbVertex
100
AcDb2dVertex
 10
93.7964382641304
 20
-30.66746786889062
 30
0.0
  0
VERTEX
  5
3A8
330
3A4
100
AcDbEntity
  8
Layer 1
 62
   250
420
  2301728
370
   106
100
AcDbVertex
100
AcDb2dVertex
 10
94.79641233935637
 20
-29.19503308713779
 30
0.0
  0
VERTEX
  5
3A9
330
3A4
100
AcDbEntity
  8
Layer 1
 62
   250
420
  2301728
370
   106
100
AcDbVertex
100
AcDb2dVertex
 10
94.79641233935637
 20
-19.19501672705756
 30
0.0
  0
VERTEX
  5
3AA
330
3A4
100
AcDbEntity
  8
Layer 1
 62
   250
420
  2301728
370
   106
100
AcDbVertex
100
AcDb2dVertex
 10
93.7964382641304
 20
-17.72254749432716
 30
0.0
  0
VERTEX
  5
3AB
330
3A4
100
AcDbEntity
  8
Layer 1
 62
   250
420
  2301728
370
   106
100
AcDbVertex
100
AcDb2dVertex
 10
92.79639528694929
 20
-19.19501672705756
 30
0.0
  0
SEQEND
  5
3AC
330
3A4
100
AcDbEntity
  8
Layer 1
370
   106
  0
ENDBLK
  5
3A3
330
3A0
100
AcDbEntity
  8
0
100
AcDbBlockEnd
  0
BLOCK
  5
3AF
330
3AD
100
AcDbEntity
  8
0
100
AcDbBlockBegin
  2
block 75
 70
     0
 71
     0
 10
0.0
 20
0.0
 30
0.0
  3
block 75
  1

  0
POLYLINE
  5
3B1
330
3AD
100
AcDbEntity
  8
Layer 1
 62
   250
420
  2301728
370
   106
100
AcDb2dPolyline
 66
     1
 10
0.0
 20
0.0
 30
0.0
  0
VERTEX
  5
3B2
330
3B1
100
AcDbEntity
  8
Layer 1
 62
   250
420
  2301728
370
   106
100
AcDbVertex
100
AcDb2dVertex
 10
91.32396050519645
 20
-29.6674248917095
 30
0.0
  0
VERTEX
  5
3B3
330
3B1
100
AcDbEntity
  8
Layer 1
 62
   250
420
  2301728
370
   106
100
AcDbVertex
100
AcDb2dVertex
 10
81.32394414511623
 20
-29.6674248917095
 30
0.0
  0
VERTEX
  5
3B4
330
3B1
100
AcDbEntity
  8
Layer 1
 62
   250
420
  2301728
370
   106
100
AcDbVertex
100
AcDb2dVertex
 10
79.8515093633634
 20
-30.66746786889062
 30
0.0
  0
VERTEX
  5
3B5
330
3B1
100
AcDbEntity
  8
Layer 1
 62
   250
420
  2301728
370
   106
100
AcDbVertex
100
AcDb2dVertex
 10
81.32394414511623
 20
-31.66744194411658
 30
0.0
  0
VERTEX
  5
3B6
330
3B1
100
AcDbEntity
  8
Layer 1
 62
   250
420
  2301728
370
   106
100
AcDbVertex
100
AcDb2dVertex
 10
91.32396050519645
 20
-31.66744194411658
 30
0.0
  0
VERTEX
  5
3B7
330
3B1
100
AcDbEntity
  8
Layer 1
 62
   250
420
  2301728
370
   106
100
AcDbVertex
100
AcDb2dVertex
 10
92.79639528694929
 20
-30.66746786889062
 30
0.0
  0
VERTEX
  5
3B8
330
3B1
100
AcDbEntity
  8
Layer 1
 62
   250
420
  2301728
370
   106
100
AcDbVertex
100
AcDb2dVertex
 10
91.32396050519645
 20
-29.6674248917095
 30
0.0
  0
SEQEND
  5
3B9
330
3B1
100
AcDbEntity
  8
Layer 1
370
   106
  0
ENDBLK
  5
3B0
330
3AD
100
AcDbEntity
  8
0
100
AcDbBlockEnd
  0
ENDSEC
  0
SECTION
  2
ENTITIES
  0
INSERT
  5
3D
330
1F
100
AcDbEntity
  8
Layer 1
100
AcDbBlockReference
  2
block 2
 10
0.0
 20
0.0
 30
0.0
  0
INSERT
  5
4A
330
1F
100
AcDbEntity
  8
Layer 1
100
AcDbBlockReference
  2
block 3
 10
0.0
 20
0.0
 30
0.0
  0
INSERT
  5
57
330
1F
100
AcDbEntity
  8
Layer 1
100
AcDbBlockReference
  2
block 4
 10
0.0
 20
0.0
 30
0.0
  0
INSERT
  5
64
330
1F
100
AcDbEntity
  8
Layer 1
100
AcDbBlockReference
  2
block 5
 10
0.0
 20
0.0
 30
0.0
  0
INSERT
  5
71
330
1F
100
AcDbEntity
  8
Layer 1
100
AcDbBlockReference
  2
block 6
 10
0.0
 20
0.0
 30
0.0
  0
INSERT
  5
D0
330
1F
100
AcDbEntity
  8
Layer 1
100
AcDbBlockReference
  2
block 14
 10
0.0
 20
0.0
 30
0.0
  0
INSERT
  5
DD
330
1F
100
AcDbEntity
  8
Layer 1
100
AcDbBlockReference
  2
block 15
 10
0.0
 20
0.0
 30
0.0
  0
INSERT
  5
EA
330
1F
100
AcDbEntity
  8
Layer 1
100
AcDbBlockReference
  2
block 16
 10
0.0
 20
0.0
 30
0.0
  0
INSERT
  5
F7
330
1F
100
AcDbEntity
  8
Layer 1
100
AcDbBlockReference
  2
block 17
 10
0.0
 20
0.0
 30
0.0
  0
INSERT
  5
104
330
1F
100
AcDbEntity
  8
Layer 1
100
AcDbBlockReference
  2
block 18
 10
0.0
 20
0.0
 30
0.0
  0
INSERT
  5
111
330
1F
100
AcDbEntity
  8
Layer 1
100
AcDbBlockReference
  2
block 19
 10
0.0
 20
0.0
 30
0.0
  0
SPLINE
  5
11D
330
1F
100
AcDbEntity
  8
Layer 1
 62
   250
420
  2301728
370
   106
100
AcDbSpline
210
0.0
220
0.0
230
1.0
 70
    11
 71
     3
 72
    17
 73
    13
 74
     0
 42
0.0000000001
 43
0.0000000001
 40
0.0
 40
0.0
 40
0.0
 40
0.0
 40
1.0
 40
1.0
 40
1.0
 40
2.0
 40
2.0
 40
2.0
 40
3.0
 40
3.0
 40
3.0
 40
4.0
 40
4.0
 40
4.0
 40
4.0
 10
51.01170030604904
 20
-65.90530577642595
 30
0.0
 10
51.01170030604904
 20
-66.55977099750594
 30
0.0
 10
50.53786156041899
 20
-67.09028160125446
 30
0.0
 10
49.95336627480321
 20
-67.09028160125446
 30
0.0
 10
49.36887098918743
 20
-67.09028160125446
 30
0.0
 10
48.89503224355737
 20
-66.55977099750594
 30
0.0
 10
48.89503224355737
 20
-65.90530577642595
 30
0.0
 10
48.89503224355737
 20
-65.25087500632355
 30
0.0
 10
49.36887098918743
 20
-64.72032995159745
 30
0.0
 10
49.95336627480321
 20
-64.72032995159745
 30
0.0
 10
50.53786156041899
 20
-64.72032995159745
 30
0.0
 10
51.01170030604904
 20
-65.25087500632355
 30
0.0
 10
51.01170030604904
 20
-65.90530577642595
 30
0.0
  0
HATCH
  5
11E
330
1F
100
AcDbEntity
  8
Layer 1
 62
   250
420
  2301728
100
AcDbHatch
 10
0.0
 20
0.0
 30
0.0
210
0.0
220
0.0
230
1.0
  2
SOLID
 70
     1
 71
     0
 91
        1
 92
        1
 93
        1
 72
     4
 94
        3
 73
     0
 74
     1
 95
       17
 96
       13
 40
0.0
 40
0.0
 40
0.0
 40
0.0
 40
1.0
 40
1.0
 40
1.0
 40
2.0
 40
2.0
 40
2.0
 40
3.0
 40
3.0
 40
3.0
 40
4.0
 40
4.0
 40
4.0
 40
4.0
 10
51.01170030604904
 20
-65.90530577642595
 10
51.01170030604904
 20
-66.55977099750594
 10
50.53786156041899
 20
-67.09028160125446
 10
49.95336627480321
 20
-67.09028160125446
 10
49.36887098918743
 20
-67.09028160125446
 10
48.89503224355737
 20
-66.55977099750594
 10
48.89503224355737
 20
-65.90530577642595
 10
48.89503224355737
 20
-65.25087500632355
 10
49.36887098918743
 20
-64.72032995159745
 10
49.95336627480321
 20
-64.72032995159745
 10
50.53786156041899
 20
-64.72032995159745
 10
51.01170030604904
 20
-65.25087500632355
 10
51.01170030604904
 20
-65.90530577642595
 97
        0
 75
     2
 76
     1
 98
        0
  0
SPLINE
  5
11F
330
1F
100
AcDbEntity
  8
Layer 1
 62
   250
420
  2301728
370
   106
100
AcDbSpline
210
0.0
220
0.0
230
1.0
 70
    11
 71
     3
 72
    17
 73
    13
 74
     0
 42
0.0000000001
 43
0.0000000001
 40
0.0
 40
0.0
 40
0.0
 40
0.0
 40
1.0
 40
1.0
 40
1.0
 40
2.0
 40
2.0
 40
2.0
 40
3.0
 40
3.0
 40
3.0
 40
4.0
 40
4.0
 40
4.0
 40
4.0
 10
51.01170030604904
 20
-78.85022615098941
 30
0.0
 10
51.01170030604904
 20
-79.5046913720694
 30
0.0
 10
50.53786156041899
 20
-80.03520197581791
 30
0.0
 10
49.95336627480321
 20
-80.03520197581791
 30
0.0
 10
49.36887098918743
 20
-80.03520197581791
 30
0.0
 10
48.89503224355737
 20
-79.5046913720694
 30
0.0
 10
48.89503224355737
 20
-78.85022615098941
 30
0.0
 10
48.89503224355737
 20
-78.19579538088702
 30
0.0
 10
49.36887098918743
 20
-77.66525032616092
 30
0.0
 10
49.95336627480321
 20
-77.66525032616092
 30
0.0
 10
50.53786156041899
 20
-77.66525032616092
 30
0.0
 10
51.01170030604904
 20
-78.19579538088702
 30
0.0
 10
51.01170030604904
 20
-78.85022615098941
 30
0.0
  0
HATCH
  5
120
330
1F
100
AcDbEntity
  8
Layer 1
 62
   250
420
  2301728
100
AcDbHatch
 10
0.0
 20
0.0
 30
0.0
210
0.0
220
0.0
230
1.0
  2
SOLID
 70
     1
 71
     0
 91
        1
 92
        1
 93
        1
 72
     4
 94
        3
 73
     0
 74
     1
 95
       17
 96
       13
 40
0.0
 40
0.0
 40
0.0
 40
0.0
 40
1.0
 40
1.0
 40
1.0
 40
2.0
 40
2.0
 40
2.0
 40
3.0
 40
3.0
 40
3.0
 40
4.0
 40
4.0
 40
4.0
 40
4.0
 10
51.01170030604904
 20
-78.85022615098941
 10
51.01170030604904
 20
-79.5046913720694
 10
50.53786156041899
 20
-80.03520197581791
 10
49.95336627480321
 20
-80.03520197581791
 10
49.36887098918743
 20
-80.03520197581791
 10
48.89503224355737
 20
-79.5046913720694
 10
48.89503224355737
 20
-78.85022615098941
 10
48.89503224355737
 20
-78.19579538088702
 10
49.36887098918743
 20
-77.66525032616092
 10
49.95336627480321
 20
-77.66525032616092
 10
50.53786156041899
 20
-77.66525032616092
 10
51.01170030604904
 20
-78.19579538088702
 10
51.01170030604904
 20
-78.85022615098941
 97
        0
 75
     2
 76
     1
 98
        0
  0
INSERT
  5
122
330
1F
100
AcDbEntity
  8
Layer 1
100
AcDbBlockReference
  2
block 20
 10
0.0
 20
0.0
 30
0.0
  0
INSERT
  5
181
330
1F
100
AcDbEntity
  8
Layer 1
100
AcDbBlockReference
  2
block 28
 10
0.0
 20
0.0
 30
0.0
  0
INSERT
  5
1E0
330
1F
100
AcDbEntity
  8
Layer 1
100
AcDbBlockReference
  2
block 36
 10
0.0
 20
0.0
 30
0.0
  0
INSERT
  5
23F
330
1F
100
AcDbEntity
  8
Layer 1
100
AcDbBlockReference
  2
block 44
 10
0.0
 20
0.0
 30
0.0
  0
INSERT
  5
29E
330
1F
100
AcDbEntity
  8
Layer 1
100
AcDbBlockReference
  2
block 52
 10
0.0
 20
0.0
 30
0.0
  0
INSERT
  5
2FD
330
1F
100
AcDbEntity
  8
Layer 1
100
AcDbBlockReference
  2
block 60
 10
0.0
 20
0.0
 30
0.0
  0
INSERT
  5
35C
330
1F
100
AcDbEntity
  8
Layer 1
100
AcDbBlockReference
  2
block 68
 10
0.0
 20
0.0
 30
0.0
  0
MTEXT
  5
3BA
330
1F
100
AcDbEntity
  8
Layer 1
 62
   250
420
  2301728
100
AcDbMText
 10
44.17707421696159
 20
-43.55361487570325
 30
0.0
 40
3.118557612071048
 41
0.0
 71
     7
 72
     1
  1
\fNyala|b0|i0|c0|p34;\W1;FOULS
 73
     1
 44
1.0
  0
MTEXT
  5
3BB
330
1F
100
AcDbEntity
  8
Layer 1
 62
   250
420
  2301728
100
AcDbMText
 10
33.06336110466508
 20
-56.2183454496117
 30
0.0
 40
3.118557612071048
 41
0.0
 71
     7
 72
     1
  1
\fNyala|b0|i0|c0|p34;\W1;TIEMPO RESTANTE
 73
     1
 44
1.0
  0
ENDSEC
  0
SECTION
  2
OBJECTS
  0
DICTIONARY
  5
C
330
0
100
AcDbDictionary
281
     1
  3
ACAD_GROUP
350
D
  3
ACAD_LAYOUT
350
1A
  3
ACAD_MLINESTYLE
350
17
  3
ACAD_PLOTSETTINGS
350
19
  3
ACAD_PLOTSTYLENAME
350
E
  3
ACAD_TABLESTYLE
350
3BC
  3
ACAD_VISUALSTYLE
350
2A
  0
DICTIONARY
  5
D
102
{ACAD_REACTORS
330
C
102
}
330
C
100
AcDbDictionary
281
     1
  0
DICTIONARY
  5
1A
102
{ACAD_REACTORS
330
C
102
}
330
C
100
AcDbDictionary
281
     1
  3
Layout1
350
1E
  3
Layout2
350
26
  3
Model
350
22
  0
DICTIONARY
  5
17
102
{ACAD_REACTORS
330
C
102
}
330
C
100
AcDbDictionary
281
     1
  3
Standard
350
18
  0
DICTIONARY
  5
19
102
{ACAD_REACTORS
330
C
102
}
330
C
100
AcDbDictionary
281
     1
  0
ACDBDICTIONARYWDFLT
  5
E
102
{ACAD_REACTORS
330
C
102
}
330
C
100
AcDbDictionary
281
     1
  3
Normal
350
F
100
AcDbDictionaryWithDefault
340
F
  0
DICTIONARY
  5
3BC
102
{ACAD_REACTORS
330
C
102
}
330
C
100
AcDbDictionary
281
     1
  0
DICTIONARY
  5
2A
102
{ACAD_REACTORS
330
C
102
}
330
C
100
AcDbDictionary
281
     1
  3
2dWireframe
350
2F
  3
3D Hidden
350
31
  3
3dWireframe
350
30
  3
Basic
350
32
  3
Brighten
350
36
  3
ColorChange
350
3A
  3
Conceptual
350
34
  3
Dim
350
35
  3
Facepattern
350
39
  3
Flat
350
2B
  3
FlatWithEdges
350
2C
  3
Gouraud
350
2D
  3
GouraudWithEdges
350
2E
  3
Linepattern
350
38
  3
Realistic
350
33
  3
Thicken
350
37
  0
LAYOUT
  5
1E
102
{ACAD_REACTORS
330
1A
102
}
330
1A
100
AcDbPlotSettings
  1

  2
none_device
  4

  6

 40
0.0
 41
0.0
 42
0.0
 43
0.0
 44
0.0
 45
0.0
 46
0.0
 47
0.0
 48
0.0
 49
0.0
140
0.0
141
0.0
142
1.0
143
1.0
 70
   688
 72
     0
 73
     0
 74
     5
  7

 75
    16
 76
     0
 77
     2
 78
   300
147
1.0
148
0.0
149
0.0
100
AcDbLayout
  1
Layout1
 70
     1
 71
     1
 10
0.0
 20
0.0
 11
12.0
 21
9.0
 12
0.0
 22
0.0
 32
0.0
 14
1.000000000000000E+20
 24
1.000000000000000E+20
 34
1.000000000000000E+20
 15
-1.000000000000000E+20
 25
-1.000000000000000E+20
 35
-1.000000000000000E+20
146
0.0
 13
0.0
 23
0.0
 33
0.0
 16
1.0
 26
0.0
 36
0.0
 17
0.0
 27
1.0
 37
0.0
 76
     0
330
1B
  0
LAYOUT
  5
26
102
{ACAD_REACTORS
330
1A
102
}
330
1A
100
AcDbPlotSettings
  1

  2
none_device
  4

  6

 40
0.0
 41
0.0
 42
0.0
 43
0.0
 44
0.0
 45
0.0
 46
0.0
 47
0.0
 48
0.0
 49
0.0
140
0.0
141
0.0
142
1.0
143
1.0
 70
   688
 72
     0
 73
     0
 74
     5
  7

 75
    16
 76
     0
 77
     2
 78
   300
147
1.0
148
0.0
149
0.0
100
AcDbLayout
  1
Layout2
 70
     1
 71
     2
 10
0.0
 20
0.0
 11
0.0
 21
0.0
 12
0.0
 22
0.0
 32
0.0
 14
0.0
 24
0.0
 34
0.0
 15
0.0
 25
0.0
 35
0.0
146
0.0
 13
0.0
 23
0.0
 33
0.0
 16
1.0
 26
0.0
 36
0.0
 17
0.0
 27
1.0
 37
0.0
 76
     0
330
23
  0
LAYOUT
  5
22
102
{ACAD_REACTORS
330
1A
102
}
330
1A
100
AcDbPlotSettings
  1

  2
none_device
  4

  6

 40
0.0
 41
0.0
 42
0.0
 43
0.0
 44
0.0
 45
0.0
 46
0.0
 47
0.0
 48
0.0
 49
0.0
140
0.0
141
0.0
142
1.0
143
1.0
 70
  1712
 72
     0
 73
     0
 74
     0
  7

 75
     0
 76
     0
 77
     2
 78
   300
147
1.0
148
0.0
149
0.0
100
AcDbLayout
  1
Model
 70
     1
 71
     0
 10
0.0
 20
0.0
 11
12.0
 21
9.0
 12
0.0
 22
0.0
 32
0.0
 14
1.000000000000000E+20
 24
1.000000000000000E+20
 34
1.000000000000000E+20
 15
-1.000000000000000E+20
 25
-1.000000000000000E+20
 35
-1.000000000000000E+20
146
0.0
 13
0.0
 23
0.0
 33
0.0
 16
1.0
 26
0.0
 36
0.0
 17
0.0
 27
1.0
 37
0.0
 76
     0
330
1F
331
29
  0
MLINESTYLE
  5
18
102
{ACAD_REACTORS
330
17
102
}
330
17
100
AcDbMlineStyle
  2
Standard
 70
     0
  3

 62
   256
 51
90.0
 52
90.0
 71
     2
 49
0.5
 62
   256
  6
BYLAYER
 49
-0.5
 62
   256
  6
BYLAYER
  0
ACDBPLACEHOLDER
  5
F
102
{ACAD_REACTORS
330
E
102
}
330
E
  0
VISUALSTYLE
  5
2F
102
{ACAD_REACTORS
330
2A
102
}
330
2A
100
AcDbVisualStyle
  2
2dWireframe
 70
     4
 71
     0
 72
     2
 73
     0
 90
        0
 40
-0.6
 41
-30.0
 62
     5
 63
     7
421
 16777215
 74
     1
 91
        4
 64
     7
 65
   257
 75
     1
175
     1
 42
1.0
 92
        0
 66
   257
 43
1.0
 76
     1
 77
     6
 78
     2
 67
     7
 79
     5
170
     0
171
     0
290
     0
174
     0
 93
        1
 44
0.0
173
     0
291
     0
 45
0.0
1001
ACAD
1000
AcDbSavedByObjectVersion
1070
     0
  0
VISUALSTYLE
  5
31
102
{ACAD_REACTORS
330
2A
102
}
330
2A
100
AcDbVisualStyle
  2
3D Hidden
 70
     6
 71
     1
 72
     2
 73
     2
 90
        0
 40
-0.6
 41
-30.0
 62
     5
 63
     7
421
 16777215
 74
     2
 91
        2
 64
     7
 65
   257
 75
     2
175
     1
 42
40.0
 92
        0
 66
   257
 43
1.0
 76
     1
 77
     6
 78
     2
 67
     7
 79
     3
170
     0
171
     0
290
     0
174
     0
 93
        1
 44
0.0
173
     0
291
     0
 45
0.0
1001
ACAD
1000
AcDbSavedByObjectVersion
1070
     0
  0
VISUALSTYLE
  5
30
102
{ACAD_REACTORS
330
2A
102
}
330
2A
100
AcDbVisualStyle
  2
3dWireframe
 70
     5
 71
     0
 72
     2
 73
     0
 90
        0
 40
-0.6
 41
-30.0
 62
     5
 63
     7
421
 16777215
 74
     1
 91
        4
 64
     7
 65
   257
 75
     1
175
     1
 42
1.0
 92
        0
 66
   257
 43
1.0
 76
     1
 77
     6
 78
     2
 67
     7
 79
     5
170
     0
171
     0
290
     0
174
     0
 93
        1
 44
0.0
173
     0
291
     0
 45
0.0
1001
ACAD
1000
AcDbSavedByObjectVersion
1070
     0
  0
VISUALSTYLE
  5
32
102
{ACAD_REACTORS
330
2A
102
}
330
2A
100
AcDbVisualStyle
  2
Basic
 70
     7
 71
     1
 72
     0
 73
     1
 90
        0
 40
-0.6
 41
-30.0
 62
     5
 63
     7
421
 16777215
 74
     0
 91
        4
 64
     7
 65
   257
 75
     1
175
     1
 42
1.0
 92
        8
 66
     7
 43
1.0
 76
     1
 77
     6
 78
     2
 67
     7
 79
     5
170
     0
171
     0
290
     0
174
     0
 93
        1
 44
0.0
173
     0
291
     1
 45
0.0
1001
ACAD
1000
AcDbSavedByObjectVersion
1070
     0
  0
VISUALSTYLE
  5
36
102
{ACAD_REACTORS
330
2A
102
}
330
2A
100
AcDbVisualStyle
  2
Brighten
 70
    12
 71
     2
 72
     2
 73
     0
 90
        0
 40
-0.6
 41
-30.0
 62
     5
 63
     7
421
 16777215
 74
     1
 91
        4
 64
     7
 65
   257
 75
     1
175
     1
 42
1.0
 92
        8
 66
     7
 43
1.0
 76
     1
 77
     6
 78
     2
 67
     7
 79
     5
170
     0
171
     0
290
     0
174
     0
 93
        1
 44
50.0
173
     0
291
     1
 45
0.0
1001
ACAD
1000
AcDbSavedByObjectVersion
1070
     0
  0
VISUALSTYLE
  5
3A
102
{ACAD_REACTORS
330
2A
102
}
330
2A
100
AcDbVisualStyle
  2
ColorChange
 70
    16
 71
     2
 72
     2
 73
     3
 90
        0
 40
-0.6
 41
-30.0
 62
     5
 63
     8
421
  8421504
 74
     1
 91
        4
 64
     7
 65
   257
 75
     1
175
     1
 42
1.0
 92
        8
 66
     8
424
  8421504
 43
1.0
 76
     1
 77
     6
 78
     2
 67
     7
 79
     5
170
     0
171
     0
290
     0
174
     0
 93
        1
 44
0.0
173
     0
291
     1
 45
0.0
1001
ACAD
1000
AcDbSavedByObjectVersion
1070
     0
  0
VISUALSTYLE
  5
34
102
{ACAD_REACTORS
330
2A
102
}
330
2A
100
AcDbVisualStyle
  2
Conceptual
 70
     9
 71
     3
 72
     2
 73
     0
 90
        0
 40
-0.6
 41
-30.0
 62
     5
 63
     7
421
 16777215
 74
     2
 91
        2
 64
     7
 65
   257
 75
     1
175
     1
 42
40.0
 92
        8
 66
     7
 43
1.0
 76
     1
 77
     6
 78
     2
 67
     7
 79
     3
170
     0
171
     0
290
     0
174
     0
 93
        1
 44
0.0
173
     0
291
     0
 45
0.0
1001
ACAD
1000
AcDbSavedByObjectVersion
1070
     0
  0
VISUALSTYLE
  5
35
102
{ACAD_REACTORS
330
2A
102
}
330
2A
100
AcDbVisualStyle
  2
Dim
 70
    11
 71
     2
 72
     2
 73
     0
 90
        0
 40
-0.6
 41
-30.0
 62
     5
 63
     7
421
 16777215
 74
     1
 91
        4
 64
     7
 65
   257
 75
     1
175
     1
 42
1.0
 92
        8
 66
     7
 43
1.0
 76
     1
 77
     6
 78
     2
 67
     7
 79
     5
170
     0
171
     0
290
     0
174
     0
 93
        1
 44
-50.0
173
     0
291
     1
 45
0.0
1001
ACAD
1000
AcDbSavedByObjectVersion
1070
     0
  0
VISUALSTYLE
  5
39
102
{ACAD_REACTORS
330
2A
102
}
330
2A
100
AcDbVisualStyle
  2
Facepattern
 70
    15
 71
     2
 72
     2
 73
     0
 90
        0
 40
-0.6
 41
-30.0
 62
     5
 63
     7
421
 16777215
 74
     1
 91
        4
 64
     7
 65
   257
 75
     1
175
     1
 42
1.0
 92
        8
 66
     7
 43
1.0
 76
     1
 77
     6
 78
     2
 67
     7
 79
     5
170
     0
171
     0
290
     0
174
     0
 93
        1
 44
0.0
173
     0
291
     1
 45
0.0
1001
ACAD
1000
AcDbSavedByObjectVersion
1070
     0
  0
VISUALSTYLE
  5
2B
102
{ACAD_REACTORS
330
2A
102
}
330
2A
100
AcDbVisualStyle
  2
Flat
 70
     0
 71
     2
 72
     1
 73
     1
 90
        2
 40
-0.6
 41
30.0
 62
     5
 63
     7
421
 16777215
 74
     0
 91
        4
 64
     7
 65
   257
 75
     1
175
     1
 42
1.0
 92
        8
 66
     7
 43
1.0
 76
     1
 77
     6
 78
     2
 67
     7
 79
     5
170
     0
171
     0
290
     0
174
     0
 93
       13
 44
0.0
173
     0
291
     1
 45
0.0
1001
ACAD
1000
AcDbSavedByObjectVersion
1070
     0
  0
VISUALSTYLE
  5
2C
102
{ACAD_REACTORS
330
2A
102
}
330
2A
100
AcDbVisualStyle
  2
FlatWithEdges
 70
     1
 71
     2
 72
     1
 73
     1
 90
        2
 40
-0.6
 41
30.0
 62
     5
 63
     7
421
 16777215
 74
     1
 91
        4
 64
     7
 65
   257
 75
     1
175
     1
 42
1.0
 92
        0
 66
   257
 43
1.0
 76
     1
 77
     6
 78
     2
 67
     7
 79
     5
170
     0
171
     0
290
     0
174
     0
 93
       13
 44
0.0
173
     0
291
     1
 45
0.0
1001
ACAD
1000
AcDbSavedByObjectVersion
1070
     0
  0
VISUALSTYLE
  5
2D
102
{ACAD_REACTORS
330
2A
102
}
330
2A
100
AcDbVisualStyle
  2
Gouraud
 70
     2
 71
     2
 72
     2
 73
     1
 90
        2
 40
-0.6
 41
30.0
 62
     5
 63
     7
421
 16777215
 74
     0
 91
        4
 64
     7
 65
   257
 75
     1
175
     1
 42
1.0
 92
        0
 66
     7
 43
1.0
 76
     1
 77
     6
 78
     2
 67
     7
 79
     5
170
     0
171
     0
290
     0
174
     0
 93
       13
 44
0.0
173
     0
291
     1
 45
0.0
1001
ACAD
1000
AcDbSavedByObjectVersion
1070
     0
  0
VISUALSTYLE
  5
2E
102
{ACAD_REACTORS
330
2A
102
}
330
2A
100
AcDbVisualStyle
  2
GouraudWithEdges
 70
     3
 71
     2
 72
     2
 73
     1
 90
        2
 40
-0.6
 41
30.0
 62
     5
 63
     7
421
 16777215
 74
     1
 91
        4
 64
     7
 65
   257
 75
     1
175
     1
 42
1.0
 92
        0
 66
   257
 43
1.0
 76
     1
 77
     6
 78
     2
 67
     7
 79
     5
170
     0
171
     0
290
     0
174
     0
 93
       13
 44
0.0
173
     0
291
     1
 45
0.0
1001
ACAD
1000
AcDbSavedByObjectVersion
1070
     0
  0
VISUALSTYLE
  5
38
102
{ACAD_REACTORS
330
2A
102
}
330
2A
100
AcDbVisualStyle
  2
Linepattern
 70
    14
 71
     2
 72
     2
 73
     0
 90
        0
 40
-0.6
 41
-30.0
 62
     5
 63
     7
421
 16777215
 74
     1
 91
        4
 64
     7
 65
   257
 75
     7
175
     7
 42
1.0
 92
        8
 66
     7
 43
1.0
 76
     1
 77
     6
 78
     2
 67
     7
 79
     5
170
     0
171
     0
290
     0
174
     0
 93
        1
 44
0.0
173
     0
291
     1
 45
0.0
1001
ACAD
1000
AcDbSavedByObjectVersion
1070
     0
  0
VISUALSTYLE
  5
33
102
{ACAD_REACTORS
330
2A
102
}
330
2A
100
AcDbVisualStyle
  2
Realistic
 70
     8
 71
     2
 72
     2
 73
     0
 90
        0
 40
-0.6
 41
-30.0
 62
     5
 63
     7
421
 16777215
 74
     1
 91
        0
 64
     7
 65
   257
 75
     1
175
     1
 42
1.0
 92
        8
 66
     8
424
  7895160
 43
1.0
 76
     1
 77
     6
 78
     2
 67
     7
 79
     5
170
     0
171
     0
290
     0
174
     0
 93
       13
 44
0.0
173
     0
291
     0
 45
0.0
1001
ACAD
1000
AcDbSavedByObjectVersion
1070
     0
  0
VISUALSTYLE
  5
37
102
{ACAD_REACTORS
330
2A
102
}
330
2A
100
AcDbVisualStyle
  2
Thicken
 70
    13
 71
     2
 72
     2
 73
     0
 90
        0
 40
-0.6
 41
-30.0
 62
     5
 63
     7
421
 16777215
 74
     1
 91
        4
 64
     7
 65
   257
 75
     1
175
     1
 42
1.0
 92
       12
 66
     7
 43
1.0
 76
     1
 77
     6
 78
     2
 67
     7
 79
     5
170
     0
171
     0
290
     0
174
     0
 93
        1
 44
0.0
173
     0
291
     1
 45
0.0
1001
ACAD
1000
AcDbSavedByObjectVersion
1070
     0
  0
ENDSEC
  0
EOF
